<?xml version="1.0" standalone="no"?>
<!DOCTYPE svg PUBLIC "-//W3C//DTD SVG 20010904//EN"
 "http://www.w3.org/TR/2001/REC-SVG-20010904/DTD/svg10.dtd">
<svg version="1.0" xmlns="http://www.w3.org/2000/svg"
 width="1034.000000pt" height="1034.000000pt" viewBox="0 0 1034.000000 1034.000000"
 preserveAspectRatio="xMidYMid meet">
<metadata>
Created by potrace 1.11, written by Peter Selinger 2001-2013
</metadata>
<g transform="translate(0.000000,1034.000000) scale(0.100000,-0.100000)"
fill="#000000" stroke="none">
<path d="M4860 10329 c-989 -74 -1886 -431 -2627 -1045 -242 -199 -543 -516
-733 -769 -811 -1081 -1103 -2457 -805 -3796 188 -842 606 -1600 1225 -2220
562 -563 1217 -950 1977 -1168 347 -99 664 -150 1066 -172 304 -16 426 5 590
102 86 50 227 190 276 272 160 271 146 610 -34 827 -106 129 -207 301 -241
416 -28 90 -25 257 5 354 80 261 271 457 521 538 119 39 97 54 282 -193 377
-505 1087 -1402 1119 -1413 10 -4 479 328 479 338 0 16 -366 589 -641 1003
-115 173 -193 300 -186 302 7 2 98 6 202 9 902 24 1738 551 2149 1356 137 267
216 518 263 835 24 166 24 562 -1 765 -106 870 -496 1658 -1137 2299 -645 644
-1482 1083 -2424 1271 -424 84 -932 119 -1325 89z m-775 -1034 c260 -70 489
-302 555 -561 27 -104 27 -254 0 -358 -55 -217 -224 -419 -431 -516 -114 -53
-218 -73 -344 -67 -208 10 -366 86 -523 251 -277 292 -277 725 1 1023 111 118
259 204 411 239 76 17 247 12 331 -11z m2506 11 c154 -33 303 -119 416 -239
278 -298 278 -731 1 -1023 -157 -165 -315 -241 -523 -251 -126 -6 -230 14
-344 67 -207 97 -376 299 -431 516 -27 103 -27 254 -1 356 99 388 507 653 882
574z m-4031 -2056 c247 -69 455 -270 536 -517 26 -79 29 -101 29 -223 0 -115
-4 -145 -23 -204 -90 -269 -300 -470 -560 -537 -93 -24 -253 -26 -336 -4 -148
39 -308 132 -399 234 -112 124 -192 305 -204 461 -33 433 360 838 792 815 50
-2 124 -14 165 -25z m5547 15 c324 -61 582 -325 633 -648 42 -261 -82 -547
-310 -717 -136 -100 -283 -150 -446 -150 -331 0 -623 220 -736 556 -19 59 -23
89 -23 204 0 122 3 144 29 223 91 279 334 488 624 537 76 12 144 11 229 -5z"/>
<path d="M7929 2158 c-140 -101 -301 -216 -357 -257 l-103 -74 227 -221 c126
-122 233 -220 240 -220 8 1 487 340 522 369 2 2 -265 573 -273 583 -1 1 -116
-80 -256 -180z"/>
<path d="M8335 1452 c-135 -97 -181 -136 -188 -158 -6 -16 -10 -110 -11 -209
0 -214 14 -281 94 -440 159 -316 471 -510 989 -615 75 -15 137 -27 139 -25 1
1 -18 37 -42 81 -92 163 -148 345 -168 546 -12 113 -8 188 19 389 17 128 -116
286 -354 420 -76 43 -280 139 -296 139 -2 0 -84 -58 -182 -128z"/>
</g>
</svg>
