<?xml version="1.0" encoding="UTF-8" standalone="no"?><!-- Generator: Gravit.io --><svg xmlns="http://www.w3.org/2000/svg" xmlns:xlink="http://www.w3.org/1999/xlink" style="isolation:isolate" viewBox="0 0 2484.6 2034"><g id="Group"><g id="tickets"><g id="Group"><g id="Group"/></g></g></g><path d=" M 744.114 376.563 C 727.959 376.563 714.817 363.42 714.817 347.266 C 714.817 331.111 727.959 317.969 744.114 317.969 C 760.269 317.969 773.411 331.111 773.411 347.266 C 773.411 363.42 760.269 376.563 744.114 376.563 L 744.114 376.563 L 744.114 376.563 L 744.114 376.563 L 744.114 376.563 L 744.114 376.563 L 744.114 376.563 L 744.114 376.563 L 744.114 376.563 L 744.114 376.563 L 744.114 376.563 L 744.114 376.563 L 744.114 376.563 L 744.114 376.563 L 744.114 376.563 L 744.114 376.563 L 744.114 376.563 L 744.114 376.563 L 744.114 376.563 L 744.114 376.563 L 744.114 376.563 L 744.114 376.563 L 744.114 376.563 L 744.114 376.563 L 744.114 376.563 L 744.114 376.563 L 744.114 376.563 Z  M 921.458 329.688 C 905.303 329.688 892.161 316.545 892.161 300.391 C 892.161 284.236 905.303 271.094 921.458 271.094 C 937.612 271.094 950.755 284.236 950.755 300.391 C 950.755 316.545 937.612 329.688 921.458 329.688 L 921.458 329.688 L 921.458 329.688 L 921.458 329.688 L 921.458 329.688 L 921.458 329.688 L 921.458 329.688 L 921.458 329.688 L 921.458 329.688 L 921.458 329.688 L 921.458 329.688 L 921.458 329.688 L 921.458 329.688 L 921.458 329.688 L 921.458 329.688 L 921.458 329.688 L 921.458 329.688 L 921.458 329.688 L 921.458 329.688 L 921.458 329.688 L 921.458 329.688 L 921.458 329.688 L 921.458 329.688 L 921.458 329.688 L 921.458 329.688 L 921.458 329.688 L 921.458 329.688 Z  M 950.755 156.002 L 796.848 186.512 L 796.848 140.093 L 950.755 109.583 L 950.755 156.002 L 950.755 156.002 L 950.755 156.002 L 950.755 156.002 L 950.755 156.002 L 950.755 156.002 L 950.755 156.002 L 950.755 156.002 L 950.755 156.002 L 950.755 156.002 L 950.755 156.002 L 950.755 156.002 L 950.755 156.002 L 950.755 156.002 L 950.755 156.002 L 950.755 156.002 L 950.755 156.002 L 950.755 156.002 L 950.755 156.002 L 950.755 156.002 L 950.755 156.002 L 950.755 156.002 L 950.755 156.002 L 950.755 156.002 L 950.755 156.002 L 950.755 156.002 L 950.755 156.002 Z  M 627.334 246.094 C 611.18 246.094 598.037 232.952 598.037 216.797 C 598.037 200.642 611.18 187.5 627.334 187.5 C 643.489 187.5 656.631 200.642 656.631 216.797 C 656.631 232.952 643.488 246.094 627.334 246.094 L 627.334 246.094 L 627.334 246.094 L 627.334 246.094 L 627.334 246.094 L 627.334 246.094 L 627.334 246.094 L 627.334 246.094 L 627.334 246.094 L 627.334 246.094 L 627.334 246.094 L 627.334 246.094 L 627.334 246.094 L 627.334 246.094 L 627.334 246.094 L 627.334 246.094 L 627.334 246.094 L 627.334 246.094 L 627.334 246.094 L 627.334 246.094 L 627.334 246.094 L 627.334 246.094 L 627.334 246.094 L 627.334 246.094 L 627.334 246.094 L 627.334 246.094 L 627.334 246.094 Z  M 1450.6 982.8 L 1471.186 982.8 C 1460.036 1082.524 1375.746 1157.953 1275.4 1158 L 1254.814 1158 C 1265.964 1058.276 1350.254 982.847 1450.6 982.8 L 1450.6 982.8 L 1450.6 982.8 L 1450.6 982.8 L 1450.6 982.8 L 1450.6 982.8 L 1450.6 982.8 L 1450.6 982.8 L 1450.6 982.8 L 1450.6 982.8 L 1450.6 982.8 L 1450.6 982.8 L 1450.6 982.8 L 1450.6 982.8 L 1450.6 982.8 L 1450.6 982.8 L 1450.6 982.8 L 1450.6 982.8 L 1450.6 982.8 L 1450.6 982.8 L 1450.6 982.8 L 1450.6 982.8 L 1450.6 982.8 L 1450.6 982.8 L 1450.6 982.8 L 1450.6 982.8 Z  M 1384.9 763.8 L 1405.048 763.8 C 1394.355 827.055 1339.551 873.341 1275.4 873.3 L 1255.252 873.3 C 1265.945 810.045 1320.75 763.759 1384.9 763.8 L 1384.9 763.8 L 1384.9 763.8 L 1384.9 763.8 L 1384.9 763.8 L 1384.9 763.8 L 1384.9 763.8 L 1384.9 763.8 L 1384.9 763.8 L 1384.9 763.8 L 1384.9 763.8 L 1384.9 763.8 L 1384.9 763.8 L 1384.9 763.8 L 1384.9 763.8 L 1384.9 763.8 L 1384.9 763.8 L 1384.9 763.8 L 1384.9 763.8 L 1384.9 763.8 L 1384.9 763.8 L 1384.9 763.8 L 1384.9 763.8 L 1384.9 763.8 L 1384.9 763.8 L 1384.9 763.8 Z  M 1187.8 873.3 C 1123.649 873.341 1068.845 827.055 1058.152 763.8 L 1078.3 763.8 C 1142.451 763.759 1197.255 810.045 1207.948 873.3 L 1187.8 873.3 L 1187.8 873.3 L 1187.8 873.3 L 1187.8 873.3 L 1187.8 873.3 L 1187.8 873.3 L 1187.8 873.3 L 1187.8 873.3 L 1187.8 873.3 L 1187.8 873.3 L 1187.8 873.3 L 1187.8 873.3 L 1187.8 873.3 L 1187.8 873.3 L 1187.8 873.3 L 1187.8 873.3 L 1187.8 873.3 L 1187.8 873.3 L 1187.8 873.3 L 1187.8 873.3 L 1187.8 873.3 L 1187.8 873.3 L 1187.8 873.3 L 1187.8 873.3 L 1187.8 873.3 L 1187.8 873.3 Z  M 1187.8 1158 C 1087.454 1157.953 1003.164 1082.524 992.014 982.8 L 1012.6 982.8 C 1112.946 982.847 1197.236 1058.276 1208.386 1158 L 1187.8 1158 L 1187.8 1158 L 1187.8 1158 L 1187.8 1158 L 1187.8 1158 L 1187.8 1158 L 1187.8 1158 L 1187.8 1158 L 1187.8 1158 L 1187.8 1158 L 1187.8 1158 L 1187.8 1158 L 1187.8 1158 L 1187.8 1158 L 1187.8 1158 L 1187.8 1158 L 1187.8 1158 L 1187.8 1158 L 1187.8 1158 L 1187.8 1158 L 1187.8 1158 L 1187.8 1158 L 1187.8 1158 L 1187.8 1158 L 1187.8 1158 L 1187.8 1158 Z  M 968.8 1771.2 L 968.8 1815 L 706 1815 L 706 1771.2 L 968.8 1771.2 L 968.8 1771.2 L 968.8 1771.2 L 968.8 1771.2 L 968.8 1771.2 L 968.8 1771.2 L 968.8 1771.2 L 968.8 1771.2 L 968.8 1771.2 L 968.8 1771.2 L 968.8 1771.2 L 968.8 1771.2 L 968.8 1771.2 L 968.8 1771.2 L 968.8 1771.2 L 968.8 1771.2 L 968.8 1771.2 L 968.8 1771.2 L 968.8 1771.2 L 968.8 1771.2 L 968.8 1771.2 L 968.8 1771.2 L 968.8 1771.2 L 968.8 1771.2 L 968.8 1771.2 L 968.8 1771.2 Z  M 662.2 1596 L 925 1596 L 925 1639.8 L 662.2 1639.8 L 662.2 1596 L 662.2 1596 L 662.2 1596 L 662.2 1596 L 662.2 1596 L 662.2 1596 L 662.2 1596 L 662.2 1596 L 662.2 1596 L 662.2 1596 L 662.2 1596 L 662.2 1596 L 662.2 1596 L 662.2 1596 L 662.2 1596 L 662.2 1596 L 662.2 1596 L 662.2 1596 L 662.2 1596 L 662.2 1596 L 662.2 1596 L 662.2 1596 L 662.2 1596 L 662.2 1596 L 662.2 1596 L 662.2 1596 Z  M 662.2 1683.6 L 925 1683.6 L 925 1727.4 L 662.2 1727.4 L 662.2 1683.6 L 662.2 1683.6 L 662.2 1683.6 L 662.2 1683.6 L 662.2 1683.6 L 662.2 1683.6 L 662.2 1683.6 L 662.2 1683.6 L 662.2 1683.6 L 662.2 1683.6 L 662.2 1683.6 L 662.2 1683.6 L 662.2 1683.6 L 662.2 1683.6 L 662.2 1683.6 L 662.2 1683.6 L 662.2 1683.6 L 662.2 1683.6 L 662.2 1683.6 L 662.2 1683.6 L 662.2 1683.6 L 662.2 1683.6 L 662.2 1683.6 L 662.2 1683.6 L 662.2 1683.6 L 662.2 1683.6 Z  M 662.2 1858.8 L 925 1858.8 L 925 1902.6 L 662.2 1902.6 L 662.2 1858.8 L 662.2 1858.8 L 662.2 1858.8 L 662.2 1858.8 L 662.2 1858.8 L 662.2 1858.8 L 662.2 1858.8 L 662.2 1858.8 L 662.2 1858.8 L 662.2 1858.8 L 662.2 1858.8 L 662.2 1858.8 L 662.2 1858.8 L 662.2 1858.8 L 662.2 1858.8 L 662.2 1858.8 L 662.2 1858.8 L 662.2 1858.8 L 662.2 1858.8 L 662.2 1858.8 L 662.2 1858.8 L 662.2 1858.8 L 662.2 1858.8 L 662.2 1858.8 L 662.2 1858.8 L 662.2 1858.8 Z  M 968.8 1990.2 L 706 1990.2 L 706 1946.4 L 968.8 1946.4 L 968.8 1990.2 L 968.8 1990.2 L 968.8 1990.2 L 968.8 1990.2 L 968.8 1990.2 L 968.8 1990.2 L 968.8 1990.2 L 968.8 1990.2 L 968.8 1990.2 L 968.8 1990.2 L 968.8 1990.2 L 968.8 1990.2 L 968.8 1990.2 L 968.8 1990.2 L 968.8 1990.2 L 968.8 1990.2 L 968.8 1990.2 L 968.8 1990.2 L 968.8 1990.2 L 968.8 1990.2 L 968.8 1990.2 L 968.8 1990.2 L 968.8 1990.2 L 968.8 1990.2 L 968.8 1990.2 L 968.8 1990.2 Z  M 1406.8 1858.8 L 1406.8 1902.6 L 1144 1902.6 L 1144 1858.8 L 1406.8 1858.8 L 1406.8 1858.8 L 1406.8 1858.8 L 1406.8 1858.8 L 1406.8 1858.8 L 1406.8 1858.8 L 1406.8 1858.8 L 1406.8 1858.8 L 1406.8 1858.8 L 1406.8 1858.8 L 1406.8 1858.8 L 1406.8 1858.8 L 1406.8 1858.8 L 1406.8 1858.8 L 1406.8 1858.8 L 1406.8 1858.8 L 1406.8 1858.8 L 1406.8 1858.8 L 1406.8 1858.8 L 1406.8 1858.8 L 1406.8 1858.8 L 1406.8 1858.8 L 1406.8 1858.8 L 1406.8 1858.8 L 1406.8 1858.8 L 1406.8 1858.8 Z  M 1363 1771.2 L 1363 1815 L 1100.2 1815 L 1100.2 1771.2 L 1363 1771.2 L 1363 1771.2 L 1363 1771.2 L 1363 1771.2 L 1363 1771.2 L 1363 1771.2 L 1363 1771.2 L 1363 1771.2 L 1363 1771.2 L 1363 1771.2 L 1363 1771.2 L 1363 1771.2 L 1363 1771.2 L 1363 1771.2 L 1363 1771.2 L 1363 1771.2 L 1363 1771.2 L 1363 1771.2 L 1363 1771.2 L 1363 1771.2 L 1363 1771.2 L 1363 1771.2 L 1363 1771.2 L 1363 1771.2 L 1363 1771.2 L 1363 1771.2 Z  M 1100.2 1727.4 L 1100.2 1683.6 L 1341.1 1683.6 L 1363 1683.6 L 1363 1727.4 L 1100.2 1727.4 L 1100.2 1727.4 L 1100.2 1727.4 L 1100.2 1727.4 L 1100.2 1727.4 L 1100.2 1727.4 L 1100.2 1727.4 L 1100.2 1727.4 L 1100.2 1727.4 L 1100.2 1727.4 L 1100.2 1727.4 L 1100.2 1727.4 L 1100.2 1727.4 L 1100.2 1727.4 L 1100.2 1727.4 L 1100.2 1727.4 L 1100.2 1727.4 L 1100.2 1727.4 L 1100.2 1727.4 L 1100.2 1727.4 L 1100.2 1727.4 L 1100.2 1727.4 L 1100.2 1727.4 L 1100.2 1727.4 L 1100.2 1727.4 L 1100.2 1727.4 Z  M 1363 1552.2 L 1100.2 1552.2 L 1100.2 1508.4 L 1363 1508.4 L 1363 1552.2 L 1363 1552.2 L 1363 1552.2 L 1363 1552.2 L 1363 1552.2 L 1363 1552.2 L 1363 1552.2 L 1363 1552.2 L 1363 1552.2 L 1363 1552.2 L 1363 1552.2 L 1363 1552.2 L 1363 1552.2 L 1363 1552.2 L 1363 1552.2 L 1363 1552.2 L 1363 1552.2 L 1363 1552.2 L 1363 1552.2 L 1363 1552.2 L 1363 1552.2 L 1363 1552.2 L 1363 1552.2 L 1363 1552.2 L 1363 1552.2 L 1363 1552.2 Z  M 1100.2 1333.2 L 1363 1333.2 L 1363 1377 L 1100.2 1377 L 1100.2 1333.2 L 1100.2 1333.2 L 1100.2 1333.2 L 1100.2 1333.2 L 1100.2 1333.2 L 1100.2 1333.2 L 1100.2 1333.2 L 1100.2 1333.2 L 1100.2 1333.2 L 1100.2 1333.2 L 1100.2 1333.2 L 1100.2 1333.2 L 1100.2 1333.2 L 1100.2 1333.2 L 1100.2 1333.2 L 1100.2 1333.2 L 1100.2 1333.2 L 1100.2 1333.2 L 1100.2 1333.2 L 1100.2 1333.2 L 1100.2 1333.2 L 1100.2 1333.2 L 1100.2 1333.2 L 1100.2 1333.2 L 1100.2 1333.2 L 1100.2 1333.2 Z  M 1056.4 1420.8 L 1319.2 1420.8 L 1319.2 1464.6 L 1056.4 1464.6 L 1056.4 1420.8 L 1056.4 1420.8 L 1056.4 1420.8 L 1056.4 1420.8 L 1056.4 1420.8 L 1056.4 1420.8 L 1056.4 1420.8 L 1056.4 1420.8 L 1056.4 1420.8 L 1056.4 1420.8 L 1056.4 1420.8 L 1056.4 1420.8 L 1056.4 1420.8 L 1056.4 1420.8 L 1056.4 1420.8 L 1056.4 1420.8 L 1056.4 1420.8 L 1056.4 1420.8 L 1056.4 1420.8 L 1056.4 1420.8 L 1056.4 1420.8 L 1056.4 1420.8 L 1056.4 1420.8 L 1056.4 1420.8 L 1056.4 1420.8 L 1056.4 1420.8 Z  M 1056.4 1639.8 L 1056.4 1596 L 1319.2 1596 L 1319.2 1639.8 L 1056.4 1639.8 L 1056.4 1639.8 L 1056.4 1639.8 L 1056.4 1639.8 L 1056.4 1639.8 L 1056.4 1639.8 L 1056.4 1639.8 L 1056.4 1639.8 L 1056.4 1639.8 L 1056.4 1639.8 L 1056.4 1639.8 L 1056.4 1639.8 L 1056.4 1639.8 L 1056.4 1639.8 L 1056.4 1639.8 L 1056.4 1639.8 L 1056.4 1639.8 L 1056.4 1639.8 L 1056.4 1639.8 L 1056.4 1639.8 L 1056.4 1639.8 L 1056.4 1639.8 L 1056.4 1639.8 L 1056.4 1639.8 L 1056.4 1639.8 L 1056.4 1639.8 Z  M 1363 1990.2 L 1100.2 1990.2 L 1100.2 1946.4 L 1363 1946.4 L 1363 1990.2 L 1363 1990.2 L 1363 1990.2 L 1363 1990.2 L 1363 1990.2 L 1363 1990.2 L 1363 1990.2 L 1363 1990.2 L 1363 1990.2 L 1363 1990.2 L 1363 1990.2 L 1363 1990.2 L 1363 1990.2 L 1363 1990.2 L 1363 1990.2 L 1363 1990.2 L 1363 1990.2 L 1363 1990.2 L 1363 1990.2 L 1363 1990.2 L 1363 1990.2 L 1363 1990.2 L 1363 1990.2 L 1363 1990.2 L 1363 1990.2 L 1363 1990.2 Z  M 1494.4 1683.6 L 1757.2 1683.6 L 1757.2 1727.4 L 1494.4 1727.4 L 1494.4 1683.6 L 1494.4 1683.6 L 1494.4 1683.6 L 1494.4 1683.6 L 1494.4 1683.6 L 1494.4 1683.6 L 1494.4 1683.6 L 1494.4 1683.6 L 1494.4 1683.6 L 1494.4 1683.6 L 1494.4 1683.6 L 1494.4 1683.6 L 1494.4 1683.6 L 1494.4 1683.6 L 1494.4 1683.6 L 1494.4 1683.6 L 1494.4 1683.6 L 1494.4 1683.6 L 1494.4 1683.6 L 1494.4 1683.6 L 1494.4 1683.6 L 1494.4 1683.6 L 1494.4 1683.6 L 1494.4 1683.6 L 1494.4 1683.6 L 1494.4 1683.6 Z  M 1801 1990.2 L 1538.2 1990.2 L 1538.2 1946.4 L 1801 1946.4 L 1801 1990.2 L 1801 1990.2 L 1801 1990.2 L 1801 1990.2 L 1801 1990.2 L 1801 1990.2 L 1801 1990.2 L 1801 1990.2 L 1801 1990.2 L 1801 1990.2 L 1801 1990.2 L 1801 1990.2 L 1801 1990.2 L 1801 1990.2 L 1801 1990.2 L 1801 1990.2 L 1801 1990.2 L 1801 1990.2 L 1801 1990.2 L 1801 1990.2 L 1801 1990.2 L 1801 1990.2 L 1801 1990.2 L 1801 1990.2 L 1801 1990.2 L 1801 1990.2 Z  M 1801 1902.6 L 1538.2 1902.6 L 1538.2 1858.8 L 1801 1858.8 L 1801 1902.6 L 1801 1902.6 L 1801 1902.6 L 1801 1902.6 L 1801 1902.6 L 1801 1902.6 L 1801 1902.6 L 1801 1902.6 L 1801 1902.6 L 1801 1902.6 L 1801 1902.6 L 1801 1902.6 L 1801 1902.6 L 1801 1902.6 L 1801 1902.6 L 1801 1902.6 L 1801 1902.6 L 1801 1902.6 L 1801 1902.6 L 1801 1902.6 L 1801 1902.6 L 1801 1902.6 L 1801 1902.6 L 1801 1902.6 L 1801 1902.6 L 1801 1902.6 Z  M 1801 1815 L 1538.2 1815 L 1538.2 1771.2 L 1779.1 1771.2 L 1801 1771.2 L 1801 1815 L 1801 1815 L 1801 1815 L 1801 1815 L 1801 1815 L 1801 1815 L 1801 1815 L 1801 1815 L 1801 1815 L 1801 1815 L 1801 1815 L 1801 1815 L 1801 1815 L 1801 1815 L 1801 1815 L 1801 1815 L 1801 1815 L 1801 1815 L 1801 1815 L 1801 1815 L 1801 1815 L 1801 1815 L 1801 1815 L 1801 1815 L 1801 1815 L 1801 1815 Z  M 1669.6 1508.4 C 1669.6 1532.591 1649.991 1552.2 1625.8 1552.2 L 1625.8 1596 C 1674.18 1596 1713.4 1556.78 1713.4 1508.4 L 1669.6 1508.4 L 1669.6 1508.4 L 1669.6 1508.4 L 1669.6 1508.4 L 1669.6 1508.4 L 1669.6 1508.4 L 1669.6 1508.4 L 1669.6 1508.4 L 1669.6 1508.4 L 1669.6 1508.4 L 1669.6 1508.4 L 1669.6 1508.4 L 1669.6 1508.4 L 1669.6 1508.4 L 1669.6 1508.4 L 1669.6 1508.4 L 1669.6 1508.4 L 1669.6 1508.4 L 1669.6 1508.4 L 1669.6 1508.4 L 1669.6 1508.4 L 1669.6 1508.4 L 1669.6 1508.4 L 1669.6 1508.4 Z  M 1538.2 1508.4 L 1582 1508.4 C 1582 1484.209 1601.609 1464.6 1625.8 1464.6 L 1625.8 1420.8 C 1577.42 1420.8 1538.2 1460.02 1538.2 1508.4 L 1538.2 1508.4 L 1538.2 1508.4 L 1538.2 1508.4 L 1538.2 1508.4 L 1538.2 1508.4 L 1538.2 1508.4 L 1538.2 1508.4 L 1538.2 1508.4 L 1538.2 1508.4 L 1538.2 1508.4 L 1538.2 1508.4 L 1538.2 1508.4 L 1538.2 1508.4 L 1538.2 1508.4 L 1538.2 1508.4 L 1538.2 1508.4 L 1538.2 1508.4 L 1538.2 1508.4 L 1538.2 1508.4 L 1538.2 1508.4 L 1538.2 1508.4 L 1538.2 1508.4 Z  M 1669.6 904.617 C 1661.103 892.4 1650.5 881.797 1638.283 873.3 C 1650.5 864.803 1661.103 854.2 1669.6 841.983 C 1678.097 854.2 1688.699 864.803 1700.917 873.3 C 1688.699 881.797 1678.097 892.4 1669.6 904.617 L 1669.6 904.617 L 1669.6 904.617 L 1669.6 904.617 L 1669.6 904.617 L 1669.6 904.617 L 1669.6 904.617 L 1669.6 904.617 L 1669.6 904.617 L 1669.6 904.617 L 1669.6 904.617 L 1669.6 904.617 L 1669.6 904.617 L 1669.6 904.617 L 1669.6 904.617 L 1669.6 904.617 L 1669.6 904.617 L 1669.6 904.617 L 1669.6 904.617 L 1669.6 904.617 L 1669.6 904.617 L 1669.6 904.617 L 1669.6 904.617 Z  M 793.6 1386.417 C 785.103 1374.2 774.5 1363.597 762.283 1355.1 C 774.5 1346.603 785.103 1336 793.6 1323.783 C 802.097 1336 812.7 1346.603 824.917 1355.1 C 812.7 1363.597 802.097 1374.2 793.6 1386.417 L 793.6 1386.417 L 793.6 1386.417 L 793.6 1386.417 L 793.6 1386.417 L 793.6 1386.417 L 793.6 1386.417 L 793.6 1386.417 L 793.6 1386.417 L 793.6 1386.417 L 793.6 1386.417 L 793.6 1386.417 L 793.6 1386.417 L 793.6 1386.417 L 793.6 1386.417 L 793.6 1386.417 L 793.6 1386.417 L 793.6 1386.417 L 793.6 1386.417 L 793.6 1386.417 L 793.6 1386.417 L 793.6 1386.417 Z  M 1822.9 1245.6 L 1822.9 1179.9 L 1779.1 1179.9 L 1779.1 1245.6 L 1713.4 1245.6 L 1713.4 1289.4 L 1779.1 1289.4 L 1779.1 1355.1 L 1822.9 1355.1 L 1822.9 1289.4 L 1888.6 1289.4 L 1888.6 1245.6 L 1822.9 1245.6 L 1822.9 1245.6 L 1822.9 1245.6 L 1822.9 1245.6 L 1822.9 1245.6 L 1822.9 1245.6 L 1822.9 1245.6 L 1822.9 1245.6 L 1822.9 1245.6 L 1822.9 1245.6 L 1822.9 1245.6 L 1822.9 1245.6 L 1822.9 1245.6 L 1822.9 1245.6 L 1822.9 1245.6 L 1822.9 1245.6 L 1822.9 1245.6 L 1822.9 1245.6 L 1822.9 1245.6 L 1822.9 1245.6 Z  M 925 1114.2 L 925 1092.3 L 881.2 1092.3 L 881.2 1114.2 C 881.2 1186.771 940.029 1245.6 1012.6 1245.6 L 1012.6 1201.8 C 964.22 1201.8 925 1162.58 925 1114.2 L 925 1114.2 L 925 1114.2 L 925 1114.2 L 925 1114.2 L 925 1114.2 L 925 1114.2 L 925 1114.2 L 925 1114.2 L 925 1114.2 L 925 1114.2 L 925 1114.2 L 925 1114.2 L 925 1114.2 L 925 1114.2 L 925 1114.2 L 925 1114.2 L 925 1114.2 L 925 1114.2 Z  M 2171.267 830.73 C 2171.267 827.051 2174.254 824.063 2177.933 824.063 C 2181.613 824.063 2184.6 827.051 2184.6 830.73 C 2184.6 834.409 2181.613 837.397 2177.933 837.397 C 2174.254 837.397 2171.267 834.409 2171.267 830.73 L 2171.267 830.73 L 2171.267 830.73 L 2171.267 830.73 L 2171.267 830.73 L 2171.267 830.73 L 2171.267 830.73 L 2171.267 830.73 L 2171.267 830.73 L 2171.267 830.73 L 2171.267 830.73 L 2171.267 830.73 L 2171.267 830.73 L 2171.267 830.73 L 2171.267 830.73 L 2171.267 830.73 L 2171.267 830.73 L 2171.267 830.73 Z  M 2224.6 830.73 C 2224.6 827.051 2227.587 824.063 2231.267 824.063 C 2234.946 824.063 2237.933 827.051 2237.933 830.73 C 2237.933 834.409 2234.946 837.397 2231.267 837.397 C 2227.587 837.397 2224.6 834.409 2224.6 830.73 L 2224.6 830.73 L 2224.6 830.73 L 2224.6 830.73 L 2224.6 830.73 L 2224.6 830.73 L 2224.6 830.73 L 2224.6 830.73 L 2224.6 830.73 L 2224.6 830.73 L 2224.6 830.73 L 2224.6 830.73 L 2224.6 830.73 L 2224.6 830.73 L 2224.6 830.73 L 2224.6 830.73 L 2224.6 830.73 Z  M 2217.933 844.063 L 2217.933 824.063 L 2204.6 824.063 L 2204.6 844.063 C 2204.596 847.744 2201.614 850.726 2197.933 850.73 L 2191.267 850.73 L 2191.267 864.063 L 2197.933 864.063 C 2208.974 864.051 2217.921 855.104 2217.933 844.063 L 2217.933 844.063 L 2217.933 844.063 L 2217.933 844.063 L 2217.933 844.063 L 2217.933 844.063 L 2217.933 844.063 L 2217.933 844.063 L 2217.933 844.063 L 2217.933 844.063 L 2217.933 844.063 L 2217.933 844.063 L 2217.933 844.063 L 2217.933 844.063 L 2217.933 844.063 L 2217.933 844.063 Z  M 2171.97 880.378 C 2177.156 890.836 2187.835 897.436 2199.507 897.397 L 2217.933 897.397 L 2217.933 884.063 L 2199.507 884.063 C 2192.89 884.086 2186.835 880.344 2183.896 874.415 L 2171.97 880.378 L 2171.97 880.378 L 2171.97 880.378 L 2171.97 880.378 L 2171.97 880.378 L 2171.97 880.378 L 2171.97 880.378 L 2171.97 880.378 L 2171.97 880.378 L 2171.97 880.378 L 2171.97 880.378 L 2171.97 880.378 L 2171.97 880.378 L 2171.97 880.378 L 2171.97 880.378 Z  M 2132.884 883.044 L 2131.068 875.78 C 2130.326 872.812 2127.659 870.73 2124.6 870.73 C 2117.24 870.722 2111.275 864.757 2111.267 857.397 L 2111.267 797.397 C 2111.275 790.036 2117.24 784.072 2124.6 784.063 C 2139.321 784.047 2151.25 772.117 2151.267 757.397 C 2151.275 750.036 2157.24 744.072 2164.6 744.063 L 2183.026 744.063 C 2189.644 744.041 2195.698 747.783 2198.637 753.712 C 2199.767 755.97 2202.075 757.397 2204.6 757.397 C 2207.125 757.397 2209.433 755.97 2210.563 753.712 C 2213.502 747.783 2219.556 744.041 2226.174 744.063 L 2244.6 744.063 C 2251.96 744.072 2257.925 750.036 2257.933 757.397 C 2257.95 772.117 2269.879 784.047 2284.6 784.063 C 2291.96 784.072 2297.925 790.036 2297.933 797.397 L 2297.933 857.397 C 2297.925 864.757 2291.96 870.722 2284.6 870.73 C 2281.541 870.73 2278.874 872.812 2278.132 875.78 L 2276.317 883.043 C 2274.811 889.083 2270.429 893.995 2264.6 896.178 L 2264.6 810.73 L 2277.933 810.73 L 2277.933 797.397 L 2213.032 797.397 C 2206.012 797.377 2199.511 793.696 2195.883 787.686 L 2183.65 767.3 C 2182.347 765.128 2179.926 763.882 2177.401 764.085 C 2174.876 764.287 2172.684 765.902 2171.743 768.254 L 2161.763 793.206 C 2160.758 795.743 2158.302 797.406 2155.573 797.397 L 2131.267 797.397 L 2131.267 810.73 L 2144.6 810.73 L 2144.6 896.178 C 2138.771 893.995 2134.39 889.083 2132.884 883.044 L 2132.884 883.044 L 2132.884 883.044 L 2132.884 883.044 L 2132.884 883.044 L 2132.884 883.044 L 2132.884 883.044 L 2132.884 883.044 L 2132.884 883.044 L 2132.884 883.044 L 2132.884 883.044 L 2132.884 883.044 L 2132.884 883.044 L 2132.884 883.044 L 2132.884 883.044 L 2132.884 883.044 Z  M 2297.933 1086.082 L 2297.933 1117.397 L 2111.267 1117.397 L 2111.267 1086.082 L 2121.501 1070.73 L 2287.699 1070.73 L 2297.933 1086.082 L 2297.933 1086.082 L 2297.933 1086.082 L 2297.933 1086.082 L 2297.933 1086.082 L 2297.933 1086.082 L 2297.933 1086.082 L 2297.933 1086.082 L 2297.933 1086.082 L 2297.933 1086.082 L 2297.933 1086.082 L 2297.933 1086.082 L 2297.933 1086.082 L 2297.933 1086.082 L 2297.933 1086.082 Z  M 2229.987 964.859 C 2233.646 956.362 2236.079 947.388 2237.211 938.206 L 2223.977 936.588 C 2221.923 953.136 2215.037 968.711 2204.178 981.366 C 2196.721 970.538 2184.415 964.068 2171.267 964.063 L 2144.6 964.063 L 2144.6 977.397 L 2171.267 977.397 C 2185.987 977.413 2197.917 989.343 2197.933 1004.063 L 2197.933 1017.397 L 2211.267 1017.397 L 2211.267 1004.063 C 2211.283 989.343 2223.213 977.413 2237.933 977.397 L 2264.6 977.397 L 2264.6 964.063 L 2237.933 964.063 C 2235.264 964.063 2232.602 964.329 2229.987 964.859 L 2229.987 964.859 L 2229.987 964.859 L 2229.987 964.859 L 2229.987 964.859 L 2229.987 964.859 L 2229.987 964.859 L 2229.987 964.859 L 2229.987 964.859 L 2229.987 964.859 L 2229.987 964.859 L 2229.987 964.859 L 2229.987 964.859 L 2229.987 964.859 Z  M 2451.267 773.492 L 2471.267 753.492 L 2471.267 1001.302 L 2451.267 981.302 L 2451.267 773.492 L 2451.267 773.492 L 2451.267 773.492 L 2451.267 773.492 L 2451.267 773.492 L 2451.267 773.492 L 2451.267 773.492 L 2451.267 773.492 L 2451.267 773.492 L 2451.267 773.492 L 2451.267 773.492 L 2451.267 773.492 L 2451.267 773.492 Z  M 2337.933 844.063 C 2337.933 833.018 2346.887 824.063 2357.933 824.063 C 2368.979 824.063 2377.933 833.018 2377.933 844.063 C 2377.933 855.109 2368.979 864.063 2357.933 864.063 C 2346.893 864.051 2337.946 855.104 2337.933 844.063 L 2337.933 844.063 L 2337.933 844.063 L 2337.933 844.063 L 2337.933 844.063 L 2337.933 844.063 L 2337.933 844.063 L 2337.933 844.063 L 2337.933 844.063 L 2337.933 844.063 L 2337.933 844.063 L 2337.933 844.063 Z  M 1868.335 91.725 C 1883.782 112.316 1872.815 149.508 1839.809 189.803 C 1825.105 173.792 1809.078 159.047 1791.9 145.725 C 1788.768 121.464 1783.462 98.401 1776.419 78.378 C 1820.509 68.544 1854.581 73.388 1868.335 91.726 L 1868.335 91.725 L 1868.335 91.725 L 1868.335 91.725 L 1868.335 91.725 L 1868.335 91.725 L 1868.335 91.725 L 1868.335 91.725 L 1868.335 91.725 L 1868.335 91.725 L 1868.335 91.725 L 1868.335 91.725 Z  M 1763.419 318.379 C 1747.739 314.004 1732.39 308.522 1717.487 301.975 C 1731.907 294.531 1745.935 286.349 1759.514 277.462 Q 1768.295 271.72 1776.754 265.638 C 1773.88 283.578 1769.418 301.228 1763.422 318.38 L 1763.419 318.379 L 1763.419 318.379 L 1763.419 318.379 L 1763.419 318.379 L 1763.419 318.379 L 1763.419 318.379 L 1763.419 318.379 L 1763.419 318.379 L 1763.419 318.379 L 1763.419 318.379 L 1763.419 318.379 Z  M 1640.529 318.379 C 1634.532 301.228 1630.07 283.577 1627.195 265.637 Q 1635.635 271.699 1644.436 277.462 C 1658.015 286.349 1672.042 294.531 1686.463 301.975 C 1671.56 308.522 1656.211 314.005 1640.532 318.38 L 1640.529 318.379 L 1640.529 318.379 L 1640.529 318.379 L 1640.529 318.379 L 1640.529 318.379 L 1640.529 318.379 L 1640.529 318.379 L 1640.529 318.379 L 1640.529 318.379 L 1640.529 318.379 L 1640.529 318.379 Z  M 1640.529 81.619 C 1656.208 85.994 1671.557 91.476 1686.46 98.023 C 1672.04 105.467 1658.012 113.649 1644.434 122.536 Q 1635.652 128.278 1627.194 134.361 C 1630.07 116.42 1634.534 98.771 1640.532 81.62 L 1640.529 81.619 L 1640.529 81.619 L 1640.529 81.619 L 1640.529 81.619 L 1640.529 81.619 L 1640.529 81.619 L 1640.529 81.619 L 1640.529 81.619 L 1640.529 81.619 L 1640.529 81.619 L 1640.529 81.619 Z  M 1610.093 235.562 C 1596.864 224.61 1584.435 212.726 1572.903 200 C 1584.437 187.273 1596.867 175.387 1610.097 164.433 C 1609.139 176.136 1608.644 188.04 1608.644 200 C 1608.644 211.96 1609.139 223.86 1610.096 235.562 L 1610.093 235.562 L 1610.093 235.562 L 1610.093 235.562 L 1610.093 235.562 L 1610.093 235.562 L 1610.093 235.562 L 1610.093 235.562 L 1610.093 235.562 L 1610.093 235.562 L 1610.093 235.562 L 1610.093 235.562 Z  M 1763.422 81.62 C 1769.418 98.772 1773.88 116.422 1776.755 134.363 Q 1768.315 128.3 1759.515 122.537 C 1745.936 113.65 1731.908 105.468 1717.488 98.024 C 1732.392 91.477 1747.742 85.995 1763.422 81.62 L 1763.422 81.62 L 1763.422 81.62 L 1763.422 81.62 L 1763.422 81.62 L 1763.422 81.62 L 1763.422 81.62 L 1763.422 81.62 L 1763.422 81.62 L 1763.422 81.62 L 1763.422 81.62 L 1763.422 81.62 Z  M 1793.858 164.438 C 1807.088 175.389 1819.518 187.273 1831.051 200 C 1819.517 212.727 1807.087 224.613 1793.857 235.567 C 1794.815 223.864 1795.31 211.96 1795.31 200 C 1795.31 188.04 1794.815 176.14 1793.858 164.438 L 1793.858 164.438 L 1793.858 164.438 L 1793.858 164.438 L 1793.858 164.438 L 1793.858 164.438 L 1793.858 164.438 L 1793.858 164.438 L 1793.858 164.438 L 1793.858 164.438 L 1793.858 164.438 Z  M 1761.977 40 C 1761.977 47.364 1756.007 53.333 1748.644 53.333 C 1741.28 53.333 1735.31 47.364 1735.31 40 C 1735.31 32.636 1741.28 26.667 1748.644 26.667 C 1756.004 26.675 1761.968 32.64 1761.977 40 L 1761.977 40 L 1761.977 40 L 1761.977 40 L 1761.977 40 L 1761.977 40 L 1761.977 40 L 1761.977 40 L 1761.977 40 L 1761.977 40 L 1761.977 40 Z  M 1701.977 13.333 C 1710.7 13.333 1719.303 16.798 1727.62 23.624 C 1720.415 32.859 1720.085 45.716 1726.806 55.309 C 1733.528 64.902 1745.725 68.982 1756.865 65.363 Q 1757.71 67.229 1758.532 69.138 C 1739.132 74.673 1720.218 81.785 1701.977 90.403 C 1683.734 81.783 1664.816 74.67 1645.413 69.134 C 1660.612 33.563 1681.005 13.333 1701.977 13.333 L 1701.977 13.333 L 1701.977 13.333 L 1701.977 13.333 L 1701.977 13.333 L 1701.977 13.333 L 1701.977 13.333 L 1701.977 13.333 L 1701.977 13.333 L 1701.977 13.333 L 1701.977 13.333 Z  M 1535.619 91.725 C 1549.373 73.392 1583.444 68.543 1627.535 78.378 C 1620.494 98.398 1615.188 121.457 1612.056 145.717 C 1594.878 159.043 1578.851 173.79 1564.145 189.801 C 1531.139 149.51 1520.171 112.317 1535.619 91.725 L 1535.619 91.725 L 1535.619 91.725 L 1535.619 91.725 L 1535.619 91.725 L 1535.619 91.725 L 1535.619 91.725 L 1535.619 91.725 L 1535.619 91.725 L 1535.619 91.725 L 1535.619 91.725 Z  M 1541.977 220 C 1549.341 220 1555.31 225.97 1555.31 233.333 C 1555.31 240.697 1549.341 246.667 1541.977 246.667 C 1534.613 246.667 1528.644 240.697 1528.644 233.333 C 1528.652 225.973 1534.617 220.009 1541.977 220 L 1541.977 220 L 1541.977 220 L 1541.977 220 L 1541.977 220 L 1541.977 220 L 1541.977 220 L 1541.977 220 L 1541.977 220 L 1541.977 220 L 1541.977 220 L 1541.977 220 Z  M 1535.62 308.276 C 1524.822 293.874 1528.286 274.443 1534.271 258.859 C 1545.991 262.404 1558.618 257.508 1564.885 246.99 C 1571.152 236.472 1569.448 223.036 1560.752 214.417 Q 1562.41 212.304 1564.143 210.193 C 1578.848 226.206 1594.875 240.953 1612.055 254.277 C 1615.186 278.538 1620.492 301.601 1627.535 321.624 C 1583.446 331.457 1549.374 326.612 1535.62 308.276 L 1535.62 308.276 L 1535.62 308.276 L 1535.62 308.276 L 1535.62 308.276 L 1535.62 308.276 L 1535.62 308.276 L 1535.62 308.276 L 1535.62 308.276 L 1535.62 308.276 L 1535.62 308.276 Z  M 1701.977 386.667 C 1681.005 386.667 1660.612 366.437 1645.413 330.865 C 1664.816 325.33 1683.734 318.217 1701.977 309.598 C 1720.221 318.216 1739.138 325.33 1758.541 330.866 C 1743.342 366.437 1722.949 386.667 1701.977 386.667 L 1701.977 386.667 L 1701.977 386.667 L 1701.977 386.667 L 1701.977 386.667 L 1701.977 386.667 L 1701.977 386.667 L 1701.977 386.667 L 1701.977 386.667 L 1701.977 386.667 L 1701.977 386.667 Z  M 1808.644 346.667 C 1801.28 346.667 1795.31 340.697 1795.31 333.333 C 1795.31 325.97 1801.28 320 1808.644 320 C 1816.007 320 1821.977 325.97 1821.977 333.333 C 1821.968 340.694 1816.004 346.658 1808.644 346.667 L 1808.644 346.667 L 1808.644 346.667 L 1808.644 346.667 L 1808.644 346.667 L 1808.644 346.667 L 1808.644 346.667 L 1808.644 346.667 L 1808.644 346.667 L 1808.644 346.667 L 1808.644 346.667 L 1808.644 346.667 Z  M 1868.333 308.278 C 1861.583 317.286 1849.827 323.182 1834.139 325.516 C 1830.835 314.753 1821.127 307.224 1809.881 306.702 C 1798.634 306.181 1788.271 312.779 1783.986 323.191 Q 1780.249 322.481 1776.42 321.62 C 1783.461 301.601 1788.766 278.543 1791.898 254.283 C 1809.076 240.957 1825.103 226.211 1839.809 210.199 C 1872.815 250.49 1883.782 287.683 1868.333 308.278 L 1868.333 308.278 L 1868.333 308.278 L 1868.333 308.278 L 1868.333 308.278 L 1868.333 308.278 L 1868.333 308.278 L 1868.333 308.278 L 1868.333 308.278 L 1868.333 308.278 L 1868.333 308.278 Z  M 1701.977 240 C 1679.886 240 1661.977 222.091 1661.977 200 C 1661.977 177.909 1679.886 160 1701.977 160 C 1724.068 160 1741.977 177.909 1741.977 200 C 1741.952 222.081 1724.058 239.975 1701.977 240 L 1701.977 240 L 1701.977 240 L 1701.977 240 L 1701.977 240 L 1701.977 240 L 1701.977 240 L 1701.977 240 L 1701.977 240 L 1701.977 240 L 1701.977 240 Z  M 233.095 793.834 L 253.794 814.533 C 240.965 832.489 245.122 857.446 263.078 870.276 C 276.973 880.204 295.642 880.204 309.537 870.276 L 336.896 897.635 L 290.277 944.254 L 269.152 944.254 L 284.423 928.983 C 287.023 926.382 287.023 922.166 284.423 919.566 L 211.164 846.307 C 208.564 843.707 204.348 843.707 201.747 846.307 L 103.801 944.254 L 82.676 944.254 L 233.095 793.834 L 233.095 793.834 L 233.095 793.834 L 233.095 793.834 L 233.095 793.834 L 233.095 793.834 L 233.095 793.834 L 233.095 793.834 L 233.095 793.834 Z  M 250.318 944.254 L 122.635 944.254 L 206.456 860.433 L 270.297 924.274 L 250.318 944.254 L 250.318 944.254 L 250.318 944.254 L 250.318 944.254 L 250.318 944.254 L 250.318 944.254 L 250.318 944.254 L 250.318 944.254 L 250.318 944.254 Z  M 319.674 970.893 L 332.993 970.893 L 332.993 997.533 L 319.674 997.533 L 319.674 970.893 L 319.674 970.893 L 319.674 970.893 L 319.674 970.893 L 319.674 970.893 L 319.674 970.893 L 319.674 970.893 Z  M 319.674 1010.852 L 332.993 1010.852 L 332.993 1037.492 L 319.674 1037.492 L 319.674 1010.852 L 319.674 1010.852 L 319.674 1010.852 L 319.674 1010.852 L 319.674 1010.852 L 319.674 1010.852 Z  M 319.674 1050.812 L 332.993 1050.812 L 332.993 1077.451 L 319.674 1077.451 L 319.674 1050.812 L 319.674 1050.812 L 319.674 1050.812 L 319.674 1050.812 L 319.674 1050.812 Z  M 66.599 990.873 L 79.918 990.873 L 79.918 1017.512 L 66.599 1017.512 L 66.599 990.873 L 66.599 990.873 L 66.599 990.873 L 66.599 990.873 Z  M 66.599 1030.832 L 79.918 1030.832 L 79.918 1057.471 L 66.599 1057.471 L 66.599 1030.832 L 66.599 1030.832 L 66.599 1030.832 Z  M 66.599 1070.791 L 79.918 1070.791 L 79.918 1097.431 L 66.599 1097.431 L 66.599 1070.791 L 66.599 1070.791 Z  M 2311.267 988.35 L 2254.774 1057.397 L 2154.426 1057.397 L 2097.933 988.35 L 2097.933 970.73 C 2097.95 956.009 2109.879 944.08 2124.6 944.063 L 2151.267 944.063 C 2154.948 944.063 2157.933 941.079 2157.933 937.397 L 2157.933 908.384 C 2169.304 922.513 2186.464 930.73 2204.6 930.73 C 2222.736 930.73 2239.896 922.513 2251.267 908.384 L 2251.267 937.397 C 2251.267 941.079 2254.251 944.063 2257.933 944.063 L 2284.6 944.063 C 2299.321 944.08 2311.25 956.009 2311.267 970.73 L 2311.267 988.35 L 2311.267 988.35 L 2311.267 988.35 L 2311.267 988.35 L 2311.267 988.35 L 2311.267 988.35 L 2311.267 988.35 L 2311.267 988.35 L 2311.267 988.35 L 2311.267 988.35 L 2311.267 988.35 L 2311.267 988.35 L 2311.267 988.35 L 2311.267 988.35 L 2311.267 988.35 Z  M 716.723 124.805 L 740.161 124.805 C 740.161 100.584 743.61 72.618 721.298 50.308 C 714.292 43.302 707.662 37.753 701.813 32.858 C 686.345 19.913 680.069 14.098 680.069 0 L 656.631 0 L 656.631 172.973 C 648.245 167.349 638.167 164.063 627.334 164.063 C 598.256 164.063 574.6 187.719 574.6 216.797 C 574.6 245.875 598.256 269.531 627.334 269.531 C 654.431 269.531 676.81 248.985 679.735 222.656 L 680.069 222.656 L 680.069 45.141 C 687.458 51.596 695.754 57.908 704.727 66.88 C 719.593 81.748 716.723 101.262 716.723 124.805 L 716.723 124.805 L 716.723 124.805 L 716.723 124.805 L 716.723 124.805 L 716.723 124.805 L 716.723 124.805 L 716.723 124.805 L 716.723 124.805 L 716.723 124.805 L 716.723 124.805 L 716.723 124.805 L 716.723 124.805 L 716.723 124.805 L 716.723 124.805 L 716.723 124.805 L 716.723 124.805 L 716.723 124.805 L 716.723 124.805 L 716.723 124.805 L 716.723 124.805 L 716.723 124.805 L 716.723 124.805 L 716.723 124.805 L 716.723 124.805 L 716.723 124.805 L 716.723 124.805 Z  M 1760.704 851.4 C 1725.303 845.328 1697.572 817.597 1691.5 782.196 C 1691.5 770.102 1681.694 760.296 1669.6 760.296 C 1657.506 760.296 1647.7 770.102 1647.7 782.196 C 1641.628 817.597 1613.897 845.328 1578.496 851.4 C 1566.402 851.4 1556.596 861.206 1556.596 873.3 C 1556.596 885.394 1566.402 895.2 1578.496 895.2 C 1613.897 901.272 1641.628 929.003 1647.7 964.404 C 1647.7 976.498 1657.506 986.304 1669.6 986.304 C 1681.694 986.304 1691.5 976.498 1691.5 964.404 C 1697.572 929.003 1725.303 901.272 1760.704 895.2 C 1772.798 895.2 1782.604 885.394 1782.604 873.3 C 1782.604 861.206 1772.798 851.4 1760.704 851.4 L 1760.704 851.4 L 1760.704 851.4 L 1760.704 851.4 L 1760.704 851.4 L 1760.704 851.4 L 1760.704 851.4 L 1760.704 851.4 L 1760.704 851.4 L 1760.704 851.4 L 1760.704 851.4 L 1760.704 851.4 L 1760.704 851.4 L 1760.704 851.4 L 1760.704 851.4 L 1760.704 851.4 L 1760.704 851.4 L 1760.704 851.4 L 1760.704 851.4 L 1760.704 851.4 L 1760.704 851.4 L 1760.704 851.4 L 1760.704 851.4 Z  M 884.704 1333.2 C 849.303 1327.128 821.572 1299.397 815.5 1263.996 C 815.5 1251.902 805.694 1242.096 793.6 1242.096 C 781.506 1242.096 771.7 1251.902 771.7 1263.996 C 765.628 1299.397 737.897 1327.128 702.496 1333.2 C 690.402 1333.2 680.596 1343.006 680.596 1355.1 C 680.596 1367.194 690.402 1377 702.496 1377 C 737.897 1383.072 765.628 1410.803 771.7 1446.204 C 771.7 1458.298 781.506 1468.104 793.6 1468.104 C 805.694 1468.104 815.5 1458.298 815.5 1446.204 C 821.572 1410.803 849.303 1383.072 884.704 1377 C 896.798 1377 906.604 1367.194 906.604 1355.1 C 906.604 1343.006 896.798 1333.2 884.704 1333.2 L 884.704 1333.2 L 884.704 1333.2 L 884.704 1333.2 L 884.704 1333.2 L 884.704 1333.2 L 884.704 1333.2 L 884.704 1333.2 L 884.704 1333.2 L 884.704 1333.2 L 884.704 1333.2 L 884.704 1333.2 L 884.704 1333.2 L 884.704 1333.2 L 884.704 1333.2 L 884.704 1333.2 L 884.704 1333.2 L 884.704 1333.2 L 884.704 1333.2 L 884.704 1333.2 L 884.704 1333.2 L 884.704 1333.2 Z  M 2477.933 730.73 L 2284.6 730.73 L 2284.6 744.063 L 2461.838 744.063 L 2441.838 764.063 L 2311.267 764.063 L 2311.267 777.397 L 2437.933 777.397 L 2437.933 911.109 L 2401.809 885.305 C 2399.754 883.837 2397.046 883.656 2394.814 884.838 L 2346.676 910.323 L 2315.695 882.784 L 2306.838 892.75 L 2334.099 916.982 L 2314.814 927.191 L 2321.052 938.975 L 2397.411 898.55 L 2437.933 927.494 L 2437.933 977.397 L 2337.933 977.397 L 2337.933 990.73 L 2441.838 990.73 L 2461.838 1010.73 L 2324.6 1010.73 L 2324.6 1024.063 L 2477.933 1024.063 C 2481.615 1024.063 2484.6 1021.079 2484.6 1017.397 L 2484.6 737.397 C 2484.6 733.715 2481.615 730.73 2477.933 730.73 L 2477.933 730.73 L 2477.933 730.73 L 2477.933 730.73 L 2477.933 730.73 L 2477.933 730.73 L 2477.933 730.73 L 2477.933 730.73 L 2477.933 730.73 L 2477.933 730.73 L 2477.933 730.73 L 2477.933 730.73 L 2477.933 730.73 L 2477.933 730.73 Z  M 2391.267 844.063 C 2391.267 825.654 2376.343 810.73 2357.933 810.73 C 2339.524 810.73 2324.6 825.654 2324.6 844.063 C 2324.6 862.473 2339.524 877.397 2357.933 877.397 C 2376.334 877.376 2391.246 862.464 2391.267 844.063 L 2391.267 844.063 L 2391.267 844.063 L 2391.267 844.063 L 2391.267 844.063 L 2391.267 844.063 L 2391.267 844.063 L 2391.267 844.063 L 2391.267 844.063 L 2391.267 844.063 L 2391.267 844.063 L 2391.267 844.063 Z  M 1701.977 146.667 C 1672.522 146.667 1648.644 170.545 1648.644 200 C 1648.644 229.455 1672.522 253.333 1701.977 253.333 C 1731.432 253.333 1755.31 229.455 1755.31 200 C 1755.277 170.559 1731.418 146.7 1701.977 146.667 L 1701.977 146.667 L 1701.977 146.667 L 1701.977 146.667 L 1701.977 146.667 L 1701.977 146.667 L 1701.977 146.667 L 1701.977 146.667 L 1701.977 146.667 L 1701.977 146.667 L 1701.977 146.667 Z  M 1651.73 266.302 C 1642.384 260.191 1633.28 253.753 1624.62 247.146 C 1621.091 215.814 1621.091 184.185 1624.62 152.853 C 1633.28 146.245 1642.385 139.807 1651.73 133.695 C 1667.857 123.133 1684.64 113.609 1701.977 105.18 C 1719.313 113.609 1736.095 123.134 1752.22 133.697 C 1761.567 139.808 1770.67 146.246 1779.33 152.853 C 1781.1 168.506 1781.984 184.247 1781.977 200 C 1781.984 215.753 1781.1 231.494 1779.33 247.147 C 1770.67 253.754 1761.566 260.193 1752.22 266.304 C 1736.095 276.866 1719.313 286.391 1701.977 294.82 C 1684.641 286.391 1667.859 276.866 1651.734 266.303 L 1651.73 266.302 L 1651.73 266.302 L 1651.73 266.302 L 1651.73 266.302 L 1651.73 266.302 L 1651.73 266.302 L 1651.73 266.302 L 1651.73 266.302 L 1651.73 266.302 L 1651.73 266.302 L 1651.73 266.302 Z  M 1494.4 1508.4 C 1494.4 1435.829 1553.229 1377 1625.8 1377 C 1698.371 1377 1757.2 1435.829 1757.2 1508.4 C 1757.2 1580.971 1698.371 1639.8 1625.8 1639.8 C 1553.229 1639.8 1494.4 1580.971 1494.4 1508.4 L 1494.4 1508.4 L 1494.4 1508.4 L 1494.4 1508.4 L 1494.4 1508.4 L 1494.4 1508.4 L 1494.4 1508.4 L 1494.4 1508.4 L 1494.4 1508.4 L 1494.4 1508.4 L 1494.4 1508.4 L 1494.4 1508.4 L 1494.4 1508.4 L 1494.4 1508.4 L 1494.4 1508.4 L 1494.4 1508.4 L 1494.4 1508.4 L 1494.4 1508.4 L 1494.4 1508.4 L 1494.4 1508.4 L 1494.4 1508.4 L 1494.4 1508.4 L 1494.4 1508.4 L 1494.4 1508.4 L 1494.4 1508.4 L 1494.4 1508.4 Z  M 974.192 81.042 L 773.411 120.845 L 773.411 303.442 C 765.026 297.818 754.948 294.531 744.114 294.531 C 715.036 294.531 691.38 318.188 691.38 347.266 C 691.38 376.344 715.036 400 744.114 400 C 771.211 400 793.59 379.454 796.515 353.125 L 796.848 353.125 L 796.848 200.392 L 950.755 179.895 L 950.755 256.567 C 942.37 250.943 932.291 247.656 921.458 247.656 C 892.38 247.656 868.723 271.313 868.723 300.391 C 868.723 329.469 892.38 353.125 921.458 353.125 C 952.651 353.125 977.354 325.967 973.859 294.531 L 974.192 294.531 L 974.192 81.042 L 974.192 81.042 L 974.192 81.042 L 974.192 81.042 L 974.192 81.042 L 974.192 81.042 L 974.192 81.042 L 974.192 81.042 L 974.192 81.042 L 974.192 81.042 L 974.192 81.042 L 974.192 81.042 L 974.192 81.042 L 974.192 81.042 L 974.192 81.042 L 974.192 81.042 L 974.192 81.042 L 974.192 81.042 L 974.192 81.042 L 974.192 81.042 L 974.192 81.042 L 974.192 81.042 L 974.192 81.042 L 974.192 81.042 L 974.192 81.042 L 974.192 81.042 L 974.192 81.042 Z  M 2157.933 810.579 C 2165.212 809.742 2171.441 804.969 2174.143 798.158 L 2179.132 785.685 L 2184.448 794.546 C 2190.497 804.562 2201.332 810.697 2213.032 810.73 L 2251.267 810.73 L 2251.267 870.73 C 2251.267 896.503 2230.373 917.397 2204.6 917.397 C 2178.827 917.397 2157.933 896.503 2157.933 870.73 L 2157.933 810.579 L 2157.933 810.579 L 2157.933 810.579 L 2157.933 810.579 L 2157.933 810.579 L 2157.933 810.579 L 2157.933 810.579 L 2157.933 810.579 L 2157.933 810.579 L 2157.933 810.579 L 2157.933 810.579 L 2157.933 810.579 L 2157.933 810.579 L 2157.933 810.579 L 2157.933 810.579 Z  M 353.489 1044.115 C 356.313 1060.913 369.475 1074.074 386.272 1076.898 L 386.272 1117.41 L 332.993 1117.41 L 332.993 1090.771 L 319.674 1090.771 L 319.674 1117.41 L 79.918 1117.41 L 79.918 1110.75 L 66.599 1110.75 L 66.599 1117.41 L 13.32 1117.41 L 13.32 1076.898 C 35.083 1073.24 49.761 1052.632 46.103 1030.869 C 43.279 1014.071 30.118 1000.909 13.32 998.085 L 13.32 957.573 L 66.599 957.573 L 66.599 977.553 L 79.918 977.553 L 79.918 957.573 L 386.272 957.573 L 386.272 998.085 C 364.509 1001.743 349.831 1022.352 353.489 1044.115 L 353.489 1044.115 L 353.489 1044.115 L 353.489 1044.115 L 353.489 1044.115 L 353.489 1044.115 L 353.489 1044.115 L 353.489 1044.115 L 353.489 1044.115 Z  M 392.932 1010.852 C 396.61 1010.852 399.592 1007.87 399.592 1004.193 L 399.592 950.914 C 399.592 947.236 396.61 944.254 392.932 944.254 L 309.111 944.254 L 351.022 902.343 C 353.622 899.742 353.622 895.527 351.022 892.926 L 314.632 856.537 C 312.032 853.937 307.816 853.937 305.215 856.537 C 294.81 866.942 277.939 866.942 267.534 856.537 C 257.128 846.131 257.128 829.26 267.534 818.855 C 270.133 816.254 270.133 812.039 267.534 809.438 L 237.804 779.708 C 235.203 777.108 230.988 777.108 228.387 779.708 L 63.842 944.254 L 6.66 944.254 C 2.982 944.254 0 947.236 0 950.914 L 0 1004.193 C 0 1007.87 2.982 1010.852 6.66 1010.852 C 21.372 1010.852 33.299 1022.779 33.299 1037.492 C 33.299 1052.204 21.372 1064.131 6.66 1064.131 C 2.982 1064.131 0 1067.113 0 1070.791 L 0 1124.07 C 0 1127.748 2.982 1130.73 6.66 1130.73 L 392.932 1130.73 C 396.61 1130.73 399.592 1127.748 399.592 1124.07 L 399.592 1070.791 C 399.592 1067.113 396.61 1064.131 392.932 1064.131 C 378.22 1064.131 366.293 1052.204 366.293 1037.492 C 366.293 1022.779 378.22 1010.852 392.932 1010.852 L 392.932 1010.852 L 392.932 1010.852 L 392.932 1010.852 L 392.932 1010.852 L 392.932 1010.852 L 392.932 1010.852 L 392.932 1010.852 L 392.932 1010.852 Z  M 2324.6 990.73 L 2324.6 970.73 C 2324.575 948.649 2306.681 930.755 2284.6 930.73 L 2264.6 930.73 L 2264.6 910.038 C 2276.692 907.497 2286.268 898.268 2289.252 886.277 L 2289.939 883.526 C 2302.344 880.973 2311.25 870.061 2311.267 857.397 L 2311.267 797.397 C 2311.25 782.676 2299.321 770.747 2284.6 770.73 C 2277.24 770.722 2271.275 764.757 2271.267 757.397 C 2271.25 742.676 2259.321 730.747 2244.6 730.73 L 2226.174 730.73 C 2218.105 730.704 2210.352 733.865 2204.6 739.524 C 2198.848 733.865 2191.095 730.704 2183.026 730.73 L 2164.6 730.73 C 2149.879 730.747 2137.95 742.676 2137.933 757.397 C 2137.925 764.757 2131.96 770.722 2124.6 770.73 C 2109.879 770.747 2097.95 782.676 2097.933 797.397 L 2097.933 857.397 C 2097.95 870.061 2106.856 880.973 2119.261 883.526 L 2119.948 886.278 C 2122.932 898.268 2132.508 907.498 2144.6 910.038 L 2144.6 930.73 L 2124.6 930.73 C 2102.519 930.755 2084.625 948.649 2084.6 970.73 L 2084.6 990.73 C 2084.6 992.269 2085.132 993.761 2086.107 994.952 L 2137.198 1057.397 L 2117.933 1057.397 C 2115.704 1057.397 2113.623 1058.511 2112.386 1060.365 L 2099.053 1080.365 C 2098.323 1081.46 2097.933 1082.747 2097.933 1084.063 L 2097.933 1124.063 C 2097.933 1127.745 2100.918 1130.73 2104.6 1130.73 L 2304.6 1130.73 C 2308.282 1130.73 2311.267 1127.745 2311.267 1124.063 L 2311.267 1084.063 C 2311.267 1082.747 2310.877 1081.46 2310.147 1080.365 L 2296.813 1060.365 C 2295.577 1058.511 2293.496 1057.397 2291.267 1057.397 L 2272.001 1057.397 L 2323.093 994.952 C 2324.067 993.761 2324.6 992.269 2324.6 990.73 L 2324.6 990.73 L 2324.6 990.73 L 2324.6 990.73 L 2324.6 990.73 L 2324.6 990.73 L 2324.6 990.73 L 2324.6 990.73 L 2324.6 990.73 L 2324.6 990.73 L 2324.6 990.73 L 2324.6 990.73 L 2324.6 990.73 L 2324.6 990.73 L 2324.6 990.73 Z  M 1879.002 83.725 C 1861.543 60.449 1822.576 54.015 1771.596 65.797 C 1770.503 63.176 1769.374 60.602 1768.209 58.094 C 1776.716 48.906 1777.68 35.035 1770.526 24.759 C 1763.372 14.483 1750.029 10.571 1738.459 15.359 C 1727.027 5.175 1714.775 0 1701.977 0 C 1687.278 0 1673.323 6.781 1660.5 20.154 C 1649.759 31.356 1640.31 46.7 1632.356 65.796 C 1581.376 54.016 1542.41 60.45 1524.953 83.724 C 1505.095 110.194 1516.455 153.41 1555.259 200 Q 1552.084 203.813 1549.111 207.642 C 1537.542 204.418 1525.245 209.332 1519.084 219.641 C 1512.923 229.951 1514.42 243.108 1522.74 251.77 C 1512.106 277.892 1512.841 300.12 1524.952 316.27 C 1536.697 331.927 1558.167 339.967 1586.485 339.966 C 1600.264 339.966 1615.67 338.055 1632.356 334.198 C 1640.309 353.294 1649.759 368.639 1660.5 379.841 C 1673.323 393.219 1687.278 400 1701.977 400 C 1716.676 400 1730.631 393.219 1743.454 379.846 C 1754.194 368.645 1763.643 353.303 1771.595 334.21 Q 1776.944 335.446 1782.161 336.42 C 1783.681 349.382 1794.358 359.339 1807.394 359.952 C 1820.43 360.565 1831.995 351.653 1834.724 338.891 C 1854.64 336.186 1869.89 328.433 1879.001 316.276 C 1898.858 289.807 1887.501 246.591 1848.697 200 C 1887.5 153.408 1898.858 110.193 1879.002 83.725 L 1879.002 83.725 L 1879.002 83.725 L 1879.002 83.725 L 1879.002 83.725 L 1879.002 83.725 L 1879.002 83.725 L 1879.002 83.725 L 1879.002 83.725 L 1879.002 83.725 L 1879.002 83.725 Z  M 1844.8 1990.2 L 1844.8 1924.5 L 1844.8 1749.3 C 1844.8 1737.206 1834.994 1727.4 1822.9 1727.4 L 1801 1727.4 L 1801 1661.7 C 1801 1649.606 1791.194 1639.8 1779.1 1639.8 L 1741.213 1639.8 C 1814.011 1576.06 1821.353 1465.372 1757.613 1392.574 C 1693.873 1319.775 1583.185 1312.431 1510.387 1376.173 C 1437.589 1439.913 1430.244 1550.601 1493.987 1623.4 C 1499.084 1629.222 1504.564 1634.703 1510.387 1639.8 L 1472.5 1639.8 C 1460.406 1639.8 1450.6 1649.606 1450.6 1661.7 L 1450.6 1749.3 C 1450.6 1761.394 1460.406 1771.2 1472.5 1771.2 L 1494.4 1771.2 L 1494.4 1990.2 L 1406.8 1990.2 L 1406.8 1946.4 L 1428.7 1946.4 C 1440.794 1946.4 1450.6 1936.594 1450.6 1924.5 L 1450.6 1836.9 C 1450.6 1824.806 1440.794 1815 1428.7 1815 L 1406.8 1815 L 1406.8 1661.7 C 1406.8 1649.606 1396.994 1639.8 1384.9 1639.8 L 1363 1639.8 L 1363 1596 L 1384.9 1596 C 1396.994 1596 1406.8 1586.194 1406.8 1574.1 L 1406.8 1486.5 C 1406.8 1474.406 1396.994 1464.6 1384.9 1464.6 L 1363 1464.6 L 1363 1420.8 L 1384.9 1420.8 C 1396.994 1420.8 1406.8 1410.994 1406.8 1398.9 L 1406.8 1311.3 C 1406.8 1299.206 1396.994 1289.4 1384.9 1289.4 L 1253.5 1289.4 L 1253.5 1201.8 L 1275.4 1201.8 C 1408.445 1201.8 1516.3 1093.945 1516.3 960.9 C 1516.3 948.806 1506.494 939 1494.4 939 L 1450.6 939 C 1372.047 939.123 1298.488 977.536 1253.5 1041.93 L 1253.5 917.1 L 1275.4 917.1 C 1372.16 917.1 1450.6 838.66 1450.6 741.9 C 1450.6 729.806 1440.794 720 1428.7 720 L 1384.9 720 C 1321.105 720.057 1262.38 754.788 1231.6 810.666 C 1200.82 754.788 1142.097 720.057 1078.3 720 L 1034.5 720 C 1022.406 720 1012.6 729.806 1012.6 741.9 C 1012.6 838.66 1091.04 917.1 1187.8 917.1 L 1209.7 917.1 L 1209.7 1041.93 C 1164.712 977.536 1091.153 939.123 1012.6 939 L 968.8 939 C 956.706 939 946.9 948.806 946.9 960.9 C 946.9 1093.945 1054.755 1201.8 1187.8 1201.8 L 1209.7 1201.8 L 1209.7 1289.4 L 1078.3 1289.4 C 1066.206 1289.4 1056.4 1299.206 1056.4 1311.3 L 1056.4 1377 L 1034.5 1377 C 1022.406 1377 1012.6 1386.806 1012.6 1398.9 L 1012.6 1486.5 C 1012.6 1498.594 1022.406 1508.4 1034.5 1508.4 L 1056.4 1508.4 L 1056.4 1552.2 L 1034.5 1552.2 C 1022.406 1552.2 1012.6 1562.006 1012.6 1574.1 L 1012.6 1661.7 C 1012.6 1673.794 1022.406 1683.6 1034.5 1683.6 L 1056.4 1683.6 L 1056.4 1836.9 C 1056.4 1848.994 1066.206 1858.8 1078.3 1858.8 L 1100.2 1858.8 L 1100.2 1902.6 L 1078.3 1902.6 C 1066.206 1902.6 1056.4 1912.406 1056.4 1924.5 L 1056.4 1990.2 L 1012.6 1990.2 L 1012.6 1924.5 C 1012.6 1912.406 1002.794 1902.6 990.7 1902.6 L 968.8 1902.6 L 968.8 1858.8 L 990.7 1858.8 C 1002.794 1858.8 1012.6 1848.994 1012.6 1836.9 L 1012.6 1749.3 C 1012.6 1737.206 1002.794 1727.4 990.7 1727.4 L 968.8 1727.4 L 968.8 1574.1 C 968.8 1562.006 958.994 1552.2 946.9 1552.2 L 640.3 1552.2 C 628.206 1552.2 618.4 1562.006 618.4 1574.1 L 618.4 1749.3 C 618.4 1761.394 628.206 1771.2 640.3 1771.2 L 662.2 1771.2 L 662.2 1815 L 640.3 1815 C 628.206 1815 618.4 1824.806 618.4 1836.9 L 618.4 1924.5 C 618.4 1936.594 628.206 1946.4 640.3 1946.4 L 662.2 1946.4 L 662.2 1990.2 L 574.6 1990.2 L 574.6 2034 L 1888.6 2034 L 1888.6 1990.2 L 1844.8 1990.2 L 1844.8 1990.2 L 1844.8 1990.2 L 1844.8 1990.2 L 1844.8 1990.2 L 1844.8 1990.2 L 1844.8 1990.2 L 1844.8 1990.2 L 1844.8 1990.2 L 1844.8 1990.2 L 1844.8 1990.2 L 1844.8 1990.2 L 1844.8 1990.2 L 1844.8 1990.2 L 1844.8 1990.2 L 1844.8 1990.2 L 1844.8 1990.2 L 1844.8 1990.2 L 1844.8 1990.2 L 1844.8 1990.2 L 1844.8 1990.2 L 1844.8 1990.2 L 1844.8 1990.2 L 1844.8 1990.2 L 1844.8 1990.2 L 1844.8 1990.2 Z  M 286.374 1071.63 C 276.998 1074.073 269.676 1081.395 267.234 1090.771 L 132.358 1090.771 C 129.916 1081.395 122.594 1074.073 113.218 1071.63 L 113.218 1003.353 C 122.594 1000.911 129.916 993.589 132.358 984.213 L 267.234 984.213 C 269.676 993.589 276.998 1000.911 286.374 1003.353 L 286.374 1071.63 L 286.374 1071.63 Z  M 293.034 990.873 C 285.678 990.873 279.715 984.91 279.715 977.553 C 279.715 973.875 276.733 970.893 273.055 970.893 L 126.538 970.893 C 122.86 970.893 119.878 973.875 119.878 977.553 C 119.878 984.91 113.915 990.873 106.558 990.873 C 102.88 990.873 99.898 993.855 99.898 997.533 L 99.898 1077.451 C 99.898 1081.129 102.88 1084.111 106.558 1084.111 C 113.915 1084.111 119.878 1090.074 119.878 1097.431 C 119.878 1101.109 122.86 1104.091 126.538 1104.091 L 273.055 1104.091 C 276.733 1104.091 279.715 1101.109 279.715 1097.431 C 279.715 1090.074 285.678 1084.111 293.034 1084.111 C 296.712 1084.111 299.694 1081.129 299.694 1077.451 L 299.694 997.533 C 299.694 993.855 296.712 990.873 293.034 990.873 L 293.034 990.873 Z " fill-rule="evenodd" id="Compound Path" fill="rgb(241,111,85)"/></svg>