<?xml version="1.0" encoding="UTF-8" standalone="no"?><!-- Generator: Gravit.io --><svg xmlns="http://www.w3.org/2000/svg" xmlns:xlink="http://www.w3.org/1999/xlink" style="isolation:isolate" viewBox="0 0 2640.629 1021" ><g id="Group"><g id="Badge_Maker"><linearGradient id="_lgradient_8" x1="0.5" y1="0" x2="0.49999999999999983" y2="1" gradientTransform="matrix(600,0,0,600,0,0)" gradientUnits="userSpaceOnUse"><stop offset="0%" stop-opacity="1" style="stop-color:rgb(79,168,155)"/><stop offset="100%" stop-opacity="1" style="stop-color:rgb(106,206,187)"/></linearGradient><circle vector-effect="non-scaling-stroke" cx="300" cy="300" r="300" id="Ellipse" fill="url(#_lgradient_8)"/><path d=" M 152.339 390 L 152.339 248.805 L 259.416 329.385 L 259.416 390 L 286.754 390 L 286.754 323.701 C 286.754 318.691 284.4 313.971 280.396 310.959 L 150.537 213.234 C 140.027 205.325 125 212.823 125 225.977 L 125 390 L 152.339 390 Z  M 448.48 390 L 448.48 248.805 L 341.403 329.385 L 341.403 390 L 314.065 390 L 314.065 323.701 C 314.065 318.691 316.419 313.971 320.423 310.959 L 450.282 213.234 C 460.792 205.325 475.819 212.823 475.819 225.977 L 475.819 390 L 448.48 390 Z " id="Compound Path" fill="rgb(255,255,255)"/></g><g id="Badge_Dai"><linearGradient id="_lgradient_9" x1="0.5" y1="-0.14166666666666666" x2="0.4999999999999998" y2="1.105" gradientTransform="matrix(600,0,0,600,300,421)" gradientUnits="userSpaceOnUse"><stop offset="0%" stop-opacity="1" style="stop-color:rgb(249,166,6)"/><stop offset="100%" stop-opacity="1" style="stop-color:rgb(251,204,95)"/></linearGradient><circle vector-effect="non-scaling-stroke" cx="600" cy="720.9999999999995" r="300" id="Ellipse" fill="url(#_lgradient_9)"/><path d=" M 777.9 671.5 L 742.3 671.5 C 722.7 617.1 670 579.8 600.5 579.8 L 486.2 579.8 L 486.2 671.5 L 446.5 671.5 L 446.5 704.4 L 486.2 704.4 L 486.2 738.9 L 446.5 738.9 L 446.5 771.8 L 486.2 771.8 L 486.2 862.4 L 600.5 862.4 C 669.2 862.4 721.5 825.4 741.6 771.8 L 777.9 771.8 L 777.9 738.9 L 749.6 738.9 C 750.3 733.1 750.7 727.1 750.7 721.1 L 750.7 720.3 C 750.7 714.9 750.4 709.6 749.9 704.4 L 778 704.4 L 778 671.5 L 777.9 671.5 Z  M 518.2 609.1 L 600.5 609.1 C 651.5 609.1 689.4 634.2 706.9 671.4 L 518.2 671.4 L 518.2 609.1 L 518.2 609.1 Z  M 600.5 832.8 L 518.2 832.8 L 518.2 771.7 L 706.7 771.7 C 689.1 808.3 651.3 832.8 600.5 832.8 Z  M 717.6 721.8 C 717.6 727.6 717.2 733.3 716.4 738.8 L 518.2 738.8 L 518.2 704.3 L 716.5 704.3 C 717.2 709.7 717.6 715.3 717.6 721 L 717.6 721.8 Z " id="Compound Path" fill="rgb(255,255,255)"/></g></g><g id="Logo_Dai"><path d=" M 1396.495 209 L 1194.271 209 L 1194.271 371.321 L 1124 371.321 L 1124 429.469 L 1194.271 429.469 L 1194.271 490.502 L 1124 490.502 L 1124 548.65 L 1194.271 548.65 L 1194.271 709 L 1396.495 709 C 1518.11 709 1610.63 643.518 1646.23 548.65 L 1710.422 548.65 L 1710.422 490.502 L 1660.308 490.502 C 1661.535 480.192 1662.164 469.666 1662.164 458.958 L 1662.164 457.53 C 1662.164 448.019 1661.669 438.657 1660.693 429.469 L 1710.422 429.469 L 1710.422 371.321 L 1647.428 371.321 C 1612.741 275.115 1519.501 209 1396.495 209 Z  M 1250.805 656.838 L 1250.805 548.65 L 1584.287 548.65 C 1553.194 613.508 1486.399 656.838 1396.495 656.838 L 1250.805 656.838 Z  M 1250.805 490.502 L 1601.607 490.502 C 1602.964 480.711 1603.66 470.656 1603.66 460.386 L 1603.66 458.958 C 1603.66 448.919 1602.998 439.074 1601.695 429.469 L 1250.805 429.469 L 1250.805 490.502 Z  M 1584.714 371.321 C 1553.809 305.551 1486.813 261.077 1396.495 261.077 L 1250.805 261.077 L 1250.805 371.321 L 1584.714 371.321 Z " fill-rule="evenodd" id="Compound Path" fill="rgb(244,183,49)"/><path d=" M 2067.858 349.224 C 2053.99 346.647 2038.835 345.359 2022.394 345.359 L 1971.505 345.359 C 1948.371 345.359 1929.618 364.112 1929.618 387.246 L 1929.618 565.042 C 1929.618 588.176 1948.371 606.929 1971.505 606.929 L 1997.358 606.929 C 2008.278 606.929 2016.748 606.868 2022.758 606.745 C 2028.895 606.622 2036.69 606.132 2046.136 605.272 C 2055.586 604.291 2064.177 602.941 2071.909 601.223 C 2087.001 597.91 2100.38 592.817 2112.037 585.944 C 2123.816 578.95 2133.328 571.157 2140.566 562.567 C 2147.93 553.854 2153.945 544.098 2158.607 533.299 C 2163.269 522.378 2166.524 511.701 2168.363 501.27 C 2170.206 490.717 2171.123 479.795 2171.123 468.505 C 2171.123 459.914 2170.449 451.631 2169.1 443.655 C 2167.873 435.555 2165.602 427.333 2162.289 418.988 C 2159.097 410.644 2154.988 402.913 2149.958 395.795 C 2144.923 388.678 2138.48 381.989 2130.627 375.731 C 2122.773 369.472 2113.817 364.134 2103.752 359.716 C 2093.69 355.299 2081.727 351.801 2067.858 349.224 Z  M 1976.004 388.064 L 2023.68 388.064 C 2034.479 388.064 2042.948 388.494 2049.085 389.352 C 2056.323 390.334 2063.381 392.114 2070.25 394.691 C 2077.124 397.268 2083.872 400.888 2090.499 405.551 C 2097.251 410.214 2103.077 415.675 2107.986 421.934 C 2113.017 428.07 2117.005 435.678 2119.954 444.759 C 2123.02 453.84 2124.553 463.78 2124.553 474.579 C 2124.553 493.355 2120.381 509.738 2112.037 523.727 C 2107.496 531.336 2101.791 537.84 2094.918 543.239 C 2088.17 548.516 2081.602 552.504 2075.222 555.204 C 2068.964 557.781 2061.353 559.806 2052.398 561.279 C 2043.438 562.751 2036.196 563.61 2030.675 563.856 C 2025.154 564.101 2018.159 564.224 2009.69 564.224 L 1976.004 564.224 L 1976.004 388.064 Z " fill-rule="evenodd" id="Compound Path" fill="rgb(244,183,49)"/><path d=" M 2354.372 345.359 C 2339.045 345.359 2325.272 354.717 2319.626 368.967 L 2225.346 606.929 L 2270.258 606.929 L 2299.529 538.453 L 2406.291 538.453 L 2435.558 606.929 L 2483.234 606.929 L 2389.13 368.988 C 2383.487 354.727 2369.711 345.359 2354.372 345.359 Z  M 2352.91 398.924 L 2390.093 495.932 L 2315.542 495.932 L 2352.91 398.924 Z " fill-rule="evenodd" id="Compound Path" fill="rgb(244,183,49)"/><path d=" M 2594.243 368.552 C 2594.243 355.743 2604.627 345.359 2617.436 345.359 C 2630.245 345.359 2640.629 355.743 2640.629 368.552 L 2640.629 606.929 L 2594.243 606.929 L 2594.243 368.552 Z " id="Path" fill="rgb(244,183,49)"/></g></svg>