<?xml version="1.0" encoding="UTF-8" standalone="no"?><!-- Generator: Gravit.io --><svg xmlns="http://www.w3.org/2000/svg" xmlns:xlink="http://www.w3.org/1999/xlink" style="isolation:isolate" viewBox="0 0 2119.195 1701.207" ><g id="Group"><g id="connection"><g id="Group"><path d=" M 1716.803 1576.472 C 1692.166 1564.404 1657.674 1556.875 1619.195 1556.875 C 1580.773 1556.875 1546.279 1564.404 1521.588 1576.472 C 1500.051 1587.047 1486.762 1600.502 1486.762 1614.396 C 1486.762 1628.293 1500.051 1641.746 1521.588 1652.32 C 1546.281 1664.39 1580.773 1671.863 1619.195 1671.863 C 1657.674 1671.863 1692.166 1664.39 1716.803 1652.32 C 1738.34 1641.746 1751.684 1628.291 1751.684 1614.396 C 1751.684 1600.502 1738.34 1587.047 1716.803 1576.472 L 1716.803 1576.472 L 1716.803 1576.472 L 1716.803 1576.472 L 1716.803 1576.472 L 1716.803 1576.472 Z  M 1696.041 930.871 C 1672.18 934.746 1630.711 935.521 1596.938 904.795 C 1585.422 911.771 1566.045 920.185 1542.348 917.418 L 1542.348 961.433 C 1542.348 982.527 1550.984 1001.738 1564.936 1015.689 C 1578.889 1029.586 1598.1 1038.277 1619.193 1038.277 C 1640.342 1038.277 1659.555 1029.586 1673.451 1015.689 C 1687.402 1001.736 1696.039 982.527 1696.039 961.433 L 1696.039 930.871 L 1696.041 930.871 L 1696.041 930.871 L 1696.041 930.871 L 1696.041 930.871 L 1696.041 930.871 Z  M 1542.35 887.963 C 1558.682 890.898 1576.676 885.527 1589.021 874.566 C 1595.111 869.307 1604.357 869.971 1609.617 876.06 C 1638.018 908.724 1677.826 905.127 1696.041 901.252 L 1696.041 863.383 C 1696.041 853.306 1691.943 844.172 1685.301 837.527 C 1678.658 830.939 1669.521 826.787 1659.5 826.787 L 1578.943 826.787 C 1568.865 826.787 1559.73 830.939 1553.088 837.527 C 1546.5 844.17 1542.348 853.306 1542.348 863.383 L 1542.348 887.963 L 1542.35 887.963 L 1542.35 887.963 L 1542.35 887.963 L 1542.35 887.963 Z  M 1574.57 1057.654 L 1552.979 1057.765 C 1529.393 1057.765 1507.912 1067.455 1492.354 1083.012 C 1476.797 1098.568 1467.107 1120.051 1467.107 1143.691 L 1467.107 1361.549 C 1482.887 1364.871 1499.496 1367.75 1516.826 1370.076 L 1516.826 1200.385 C 1516.826 1192.303 1523.414 1185.713 1531.498 1185.713 C 1539.582 1185.713 1546.113 1192.303 1546.113 1200.385 L 1546.113 1373.344 C 1569.533 1375.502 1594.004 1376.609 1619.195 1376.609 C 1644.385 1376.609 1668.857 1375.502 1692.277 1373.344 L 1692.277 1200.385 C 1692.277 1192.303 1698.865 1185.713 1706.949 1185.713 C 1715.033 1185.713 1721.564 1192.303 1721.564 1200.385 L 1721.564 1370.076 C 1738.893 1367.75 1755.559 1364.871 1771.283 1361.549 L 1771.283 1143.691 C 1771.283 1120.051 1761.65 1098.568 1746.037 1083.012 C 1730.48 1067.455 1708.998 1057.765 1685.412 1057.765 L 1663.543 1057.765 C 1650.033 1064.021 1635.029 1067.564 1619.195 1067.564 C 1603.307 1067.564 1588.191 1064.021 1574.57 1057.654 L 1574.57 1057.654 L 1574.57 1057.654 L 1574.57 1057.654 Z  M 1437.82 1354.408 L 1437.82 1183.941 C 1400.947 1193.851 1370.662 1206.64 1349.07 1221.422 C 1327.477 1236.26 1315.352 1252.537 1315.352 1269.201 C 1315.352 1296.219 1347.354 1321.963 1399.174 1341.84 C 1411.135 1346.435 1424.035 1350.588 1437.82 1354.408 L 1437.82 1354.408 L 1437.82 1354.408 Z  M 1437.82 1384.691 L 1382.898 1431.64 C 1385.832 1432.914 1388.656 1434.187 1391.424 1435.572 C 1423.092 1451.074 1442.746 1473.719 1442.746 1499.683 C 1442.746 1522.105 1428.186 1541.926 1403.881 1556.932 C 1381.68 1570.605 1350.785 1580.57 1315.684 1584.502 C 1307.656 1585.389 1300.459 1579.631 1299.574 1571.601 C 1298.688 1563.574 1304.447 1556.32 1312.473 1555.435 C 1343.367 1551.947 1369.941 1543.588 1388.545 1532.127 C 1404.102 1522.492 1413.459 1511.142 1413.459 1499.683 C 1413.459 1485.787 1400.115 1472.334 1378.578 1461.76 C 1349.4 1447.474 1312.639 1442.16 1280.971 1442.16 C 1242.492 1442.16 1208 1449.635 1183.361 1461.76 C 1161.826 1472.334 1148.482 1485.787 1148.482 1499.683 C 1148.482 1511.144 1157.838 1522.494 1173.396 1532.127 C 1191.998 1543.586 1218.574 1551.947 1249.467 1555.435 C 1257.439 1556.322 1263.254 1563.574 1262.367 1571.601 C 1261.48 1579.629 1254.283 1585.387 1246.256 1584.502 C 1211.154 1580.57 1180.262 1570.605 1158.059 1556.932 C 1133.758 1541.926 1119.195 1522.105 1119.195 1499.681 C 1119.195 1473.717 1138.795 1451.072 1170.52 1435.57 C 1199.088 1421.562 1238.176 1412.871 1280.973 1412.871 C 1305.832 1412.871 1329.418 1415.805 1350.455 1421.01 L 1404.436 1374.779 C 1399.066 1373.008 1393.807 1371.125 1388.768 1369.187 C 1325.32 1344.883 1286.012 1309.615 1286.012 1269.199 C 1286.012 1242.182 1302.787 1217.711 1332.629 1197.281 C 1358.318 1179.674 1394.359 1164.726 1437.822 1153.709 L 1437.822 1143.687 C 1437.822 1111.963 1450.777 1083.174 1471.648 1062.303 C 1489.145 1044.807 1512.23 1032.848 1537.92 1029.473 C 1522.418 1011.037 1513.061 987.228 1513.061 961.43 L 1513.061 863.383 C 1513.061 845.223 1520.479 828.781 1532.383 816.822 C 1544.342 804.918 1560.785 797.5 1578.945 797.5 L 1659.502 797.5 C 1677.605 797.5 1694.104 804.918 1706.008 816.822 C 1717.967 828.781 1725.33 845.224 1725.33 863.383 L 1725.33 961.433 C 1725.33 987.232 1715.975 1011.039 1700.527 1029.476 C 1726.217 1032.853 1749.248 1044.812 1766.799 1062.306 C 1787.615 1083.18 1800.57 1111.969 1800.57 1143.691 L 1800.57 1153.713 C 1843.645 1164.896 1879.742 1179.955 1905.652 1197.672 C 1935.385 1218.101 1952.381 1242.406 1952.381 1269.203 C 1952.381 1309.619 1913.127 1344.885 1849.625 1369.191 C 1844.586 1371.129 1839.383 1373.012 1834.012 1374.783 L 1887.992 1421.014 C 1908.977 1415.808 1932.617 1412.875 1957.475 1412.875 C 2000.271 1412.875 2039.305 1421.566 2067.873 1435.574 C 2099.596 1451.072 2119.195 1473.717 2119.195 1499.681 C 2119.195 1522.103 2104.689 1541.924 2080.33 1556.93 C 2058.184 1570.603 2027.291 1580.568 1992.189 1584.5 C 1984.16 1585.387 1976.908 1579.629 1976.021 1571.599 C 1975.135 1563.572 1980.949 1556.318 1988.977 1555.433 C 2019.814 1551.945 2046.445 1543.586 2064.992 1532.125 C 2080.605 1522.49 2089.906 1511.14 2089.906 1499.681 C 2089.906 1485.785 2076.619 1472.332 2055.082 1461.758 C 2030.389 1449.633 1995.896 1442.158 1957.473 1442.158 C 1925.805 1442.158 1888.986 1447.474 1859.811 1461.758 C 1838.273 1472.332 1824.986 1485.785 1824.986 1499.681 C 1824.986 1511.142 1834.287 1522.492 1849.9 1532.125 C 1868.447 1543.584 1895.078 1551.945 1925.916 1555.433 C 1933.943 1556.32 1939.758 1563.572 1938.871 1571.599 C 1937.984 1579.627 1930.732 1585.385 1922.705 1584.5 C 1887.603 1580.568 1856.709 1570.603 1834.564 1556.93 C 1810.203 1541.926 1795.699 1522.105 1795.699 1499.681 C 1795.699 1473.717 1815.299 1451.072 1847.021 1435.57 C 1849.734 1434.187 1852.613 1432.914 1855.492 1431.639 L 1800.57 1384.689 C 1770.176 1392.496 1739.115 1397.81 1707.891 1401.244 C 1683.197 1403.902 1658.338 1405.342 1633.867 1405.783 L 1633.867 1527.918 C 1670.852 1529.689 1704.346 1537.883 1729.648 1550.285 C 1761.373 1565.842 1780.971 1588.432 1780.971 1614.396 C 1780.971 1640.361 1761.373 1662.951 1729.648 1678.508 C 1701.08 1692.514 1661.992 1701.207 1619.195 1701.207 C 1576.398 1701.207 1537.365 1692.514 1508.799 1678.508 C 1477.074 1662.951 1457.42 1640.361 1457.42 1614.396 C 1457.42 1588.432 1477.072 1565.842 1508.799 1550.285 C 1534.045 1537.883 1567.541 1529.689 1604.58 1527.918 L 1604.58 1405.783 C 1568.98 1405.174 1533.326 1402.351 1498.113 1396.926 C 1477.793 1393.826 1457.695 1389.785 1437.82 1384.691 L 1437.82 1384.691 L 1437.82 1384.691 L 1437.82 1384.691 L 1437.82 1384.691 L 1437.82 1384.691 L 1437.82 1384.691 Z  M 1800.57 1354.408 C 1814.357 1350.588 1827.312 1346.435 1839.217 1341.84 C 1891.037 1321.963 1923.094 1296.221 1923.094 1269.201 C 1923.094 1252.869 1910.748 1236.646 1889.154 1221.81 C 1867.451 1206.973 1837.111 1194.017 1800.57 1183.996 L 1800.57 1354.408 Z " fill-rule="evenodd" id="Compound Path" fill="rgb(62,124,177)"/></g></g><g id="woman"><path d=" M 1936.987 1518.975 C 1936.987 1516.761 1938.781 1514.967 1940.996 1514.967 L 2015.099 1514.967 L 2015.099 1477.155 C 2015.099 1474.941 2016.893 1473.146 2019.107 1473.146 C 2021.322 1473.146 2023.116 1474.94 2023.116 1477.155 L 2023.116 1514.967 L 2043.22 1514.967 C 2048.684 1514.967 2051.648 1513.134 2051.689 1507.655 C 2051.711 1504.916 2051.715 1507.063 2039.892 1446.956 C 2037.367 1434.313 2025.643 1432.25 2024.962 1431.937 L 2001.408 1426.099 L 1976.651 1455.18 C 1968.406 1464.862 1955.88 1465.466 1947.102 1456.903 C 1945.582 1455.42 1947.139 1457.062 1920.838 1426.077 L 1897.194 1431.938 L 1894.414 1432.757 C 1890.589 1434.212 1884.06 1437.967 1882.265 1446.958 C 1870.339 1507.589 1870.446 1504.929 1870.469 1507.658 C 1870.52 1513.252 1873.612 1514.967 1878.937 1514.967 L 1899.185 1514.967 L 1899.185 1477.155 C 1899.185 1474.941 1900.98 1473.146 1903.194 1473.146 C 1905.408 1473.146 1907.203 1474.94 1907.203 1477.155 L 1907.203 1514.967 L 1922.288 1514.967 C 1924.502 1514.967 1926.297 1516.761 1926.297 1518.975 C 1926.297 1521.19 1936.987 1521.19 1936.987 1518.975 Z " id="Path" fill="rgb(255,255,255)"/><path d=" M 2047.754 1445.388 C 2044.147 1427.322 2027.199 1424.246 2027.146 1424.222 L 2027.146 1424.222 C 2026.964 1424.169 2028.7 1424.605 1985.812 1413.973 L 1985.812 1412.518 L 2017.384 1412.518 C 2023.892 1412.518 2029.186 1407.224 2029.186 1400.716 L 2029.186 1340.503 C 2029.716 1338.265 2029.718 1335.937 2029.186 1333.694 L 2029.186 1311.718 C 2029.186 1309.503 2027.391 1307.709 2025.177 1307.709 C 2022.962 1307.709 2021.168 1309.503 2021.168 1311.718 L 2021.168 1323.223 C 2019.052 1321.959 2016.634 1321.054 2014.03 1320.605 C 2013.089 1316.428 2009.619 1313.125 2005.219 1312.547 C 2000.633 1311.944 1997.157 1309.27 1994.888 1304.6 C 1993.826 1302.414 1991.746 1300.978 1989.325 1300.758 C 1986.902 1300.539 1984.608 1301.574 1983.172 1303.529 C 1976.281 1312.907 1957.124 1333.942 1924.044 1333.941 C 1921.527 1333.941 1919.821 1333.822 1919.226 1333.795 C 1913.148 1333.429 1908.008 1338.286 1908.008 1344.377 L 1908.008 1353.588 C 1908.008 1368.31 1914.116 1382.583 1924.764 1392.746 C 1928.295 1396.116 1932.191 1398.928 1936.345 1401.17 L 1936.345 1404.502 L 1904.917 1404.502 C 1902.83 1404.502 1901.133 1402.804 1901.133 1400.717 L 1901.133 1310.638 C 1901.133 1281.435 1924.943 1257.371 1953.706 1257.371 C 1953.799 1257.371 1953.892 1257.372 1953.984 1257.372 C 1964.289 1257.427 1976.187 1260.354 1984.295 1264.827 C 1989.434 1267.663 1992.608 1265.409 1997.682 1265.409 C 2010.068 1265.409 2019.993 1278.145 2021.183 1289.599 C 2021.191 1289.767 2021.208 1290.439 2021.21 1293.013 C 2021.213 1296.883 2025.584 1297.18 2025.222 1297.018 C 2027.437 1297.017 2029.23 1295.22 2029.228 1293.006 C 2029.227 1292.294 2029.233 1289.503 2029.167 1288.855 C 2027.555 1272.909 2013.953 1257.391 1997.683 1257.391 C 1991.328 1257.391 1990.338 1259.002 1988.169 1257.807 C 1978.975 1252.735 1965.573 1249.417 1954.027 1249.355 C 1920.747 1249.139 1893.114 1276.864 1893.114 1310.637 L 1893.114 1400.717 C 1893.114 1407.225 1898.409 1412.519 1904.917 1412.519 L 1936.345 1412.519 L 1936.345 1413.974 L 1895.173 1424.178 C 1895.118 1424.191 1895.065 1424.207 1895.011 1424.222 L 1892.003 1425.11 C 1891.913 1425.136 1891.824 1425.166 1891.736 1425.198 C 1886.368 1427.201 1876.979 1432.487 1874.402 1445.39 C 1862.201 1506.681 1862.715 1504.064 1862.685 1504.274 C 1861.215 1514.669 1866.419 1522.984 1878.937 1522.984 L 1922.288 1522.984 C 1924.503 1522.984 1926.297 1521.19 1926.297 1518.975 C 1926.297 1516.761 1924.502 1514.967 1922.288 1514.967 L 1907.203 1514.967 L 1907.203 1477.155 C 1907.203 1474.94 1905.408 1473.146 1903.194 1473.146 C 1900.98 1473.146 1899.185 1474.941 1899.185 1477.155 L 1899.185 1514.967 L 1878.937 1514.967 C 1873.612 1514.967 1870.52 1513.252 1870.469 1507.658 C 1870.446 1504.929 1870.339 1507.589 1882.265 1446.958 C 1884.06 1437.967 1890.589 1434.212 1894.414 1432.757 L 1897.194 1431.938 L 1920.838 1426.077 C 1947.139 1457.062 1945.582 1455.42 1947.102 1456.903 C 1955.88 1465.466 1968.406 1464.862 1976.651 1455.18 L 2001.408 1426.099 L 2024.962 1431.937 C 2025.643 1432.25 2037.367 1434.313 2039.892 1446.956 C 2051.715 1507.063 2051.711 1504.916 2051.689 1507.655 C 2051.648 1513.134 2048.684 1514.967 2043.22 1514.967 L 2023.116 1514.967 L 2023.116 1477.155 C 2023.116 1474.94 2021.322 1473.146 2019.107 1473.146 C 2016.893 1473.146 2015.099 1474.941 2015.099 1477.155 L 2015.099 1514.967 L 1940.996 1514.967 C 1938.781 1514.967 1936.987 1516.761 1936.987 1518.975 C 1936.987 1521.19 1938.782 1522.984 1940.996 1522.984 L 2043.221 1522.984 C 2053.125 1522.984 2059.616 1517.535 2059.707 1507.719 C 2059.741 1503.135 2059.467 1505.325 2047.754 1445.388 Z " id="Path" fill="rgb(62,124,177)"/><path d=" M 2026.661 1297.297 C 2027.028 1297.461 2022.586 1297.159 2022.584 1293.231 C 2022.581 1290.618 2022.563 1289.936 2022.556 1289.765 C 2021.347 1278.136 2011.26 1265.206 1998.673 1265.206 C 1993.515 1265.206 1990.29 1267.495 1985.068 1264.616 C 1976.828 1260.075 1964.736 1257.103 1954.263 1257.047 C 1954.169 1257.047 1954.075 1257.046 1953.98 1257.046 C 1924.75 1257.046 1900.551 1281.476 1900.551 1311.124 L 1900.551 1402.576 C 1900.551 1404.694 1902.277 1406.418 1904.398 1406.418 L 1936.337 1406.418 L 1936.337 1399.693 C 1932.115 1397.417 1931.04 1396.39 1927.451 1392.968 C 1916.63 1382.651 1909.518 1369.675 1909.518 1354.729 L 1909.518 1345.377 C 1909.518 1339.194 1912.762 1334.263 1918.94 1334.634 C 1919.544 1334.661 1921.278 1334.782 1923.836 1334.782 C 1957.454 1334.784 1976.923 1313.428 1983.926 1303.907 C 1985.385 1301.922 1987.717 1300.871 1990.18 1301.094 C 1992.64 1301.317 1993.622 1302.775 1994.701 1304.995 C 1997.006 1309.736 2001.671 1312.45 2006.332 1313.062 C 2010.804 1313.649 2011.678 1317.002 2012.634 1321.243 C 2015.281 1321.699 2020.39 1322.618 2022.541 1323.901 L 2022.541 1312.221 C 2022.541 1309.972 2024.364 1308.151 2026.615 1308.151 C 2028.864 1308.151 2028.912 1297.296 2026.661 1297.297 Z " id="Path" fill="rgb(255,255,255)"/><path d=" M 2014.292 1328.876 C 2017.64 1329.871 2020.222 1332.077 2021.169 1334.802 L 2021.169 1339.395 C 2020.222 1342.12 2017.64 1344.326 2014.292 1345.321 L 2014.292 1328.876 Z " id="Path" fill="rgb(255,255,255)"/><path d=" M 2014.292 1354.286 L 2014.292 1353.546 C 2016.797 1353.083 2019.124 1352.196 2021.169 1350.975 L 2021.169 1400.717 C 2021.169 1402.804 2019.471 1404.501 2017.384 1404.501 L 1985.812 1404.501 L 1985.812 1401.402 C 2002.809 1392.516 2014.292 1374.724 2014.292 1354.286 Z " id="Path" fill="rgb(255,255,255)"/><path d=" M 1930.3 1386.945 C 1921.229 1378.286 1916.027 1366.129 1916.027 1353.587 C 1916.265 1344.859 1915.449 1343.801 1916.842 1342.489 C 1917.335 1342.024 1917.998 1341.754 1918.745 1341.797 C 1947.489 1343.528 1972.212 1330.892 1988.535 1309.734 C 1992.936 1317.462 1999.39 1319.868 2004.176 1320.497 C 2005.372 1320.654 2006.274 1321.675 2006.274 1322.873 C 2006.274 1333.963 2006.274 1343.276 2006.274 1354.287 C 2006.274 1394.175 1958.521 1413.88 1930.3 1386.945 Z " id="Path" fill="rgb(255,255,255)"/><path d=" M 1970.545 1449.982 C 1964.959 1456.543 1957.14 1456.525 1951.568 1449.949 L 1943.204 1440.076 L 1978.978 1440.076 L 1970.545 1449.982 Z " id="Path" fill="rgb(255,255,255)"/><path d=" M 1985.805 1432.058 L 1936.412 1432.058 L 1929.522 1423.926 L 1941.319 1421.001 C 1943.109 1420.558 1944.364 1418.913 1944.364 1417.071 L 1944.364 1404.668 C 1955.395 1408.345 1967.044 1408.305 1977.794 1404.783 C 1977.87 1417.596 1977.622 1417.303 1978.018 1418.433 C 1978.455 1419.682 1979.496 1420.668 1980.838 1421.001 L 1992.713 1423.944 L 1985.805 1432.058 Z " id="Path" fill="rgb(255,255,255)"/></g><g id="woman"><g id="Group"><path d=" M 1258.193 1519.759 C 1258.193 1517.545 1259.987 1515.75 1262.201 1515.75 L 1336.304 1515.75 L 1336.304 1477.938 C 1336.304 1475.724 1338.098 1473.93 1340.313 1473.93 C 1342.527 1473.93 1344.321 1475.724 1344.321 1477.938 L 1344.321 1515.75 L 1364.425 1515.75 C 1369.889 1515.75 1372.853 1513.917 1372.894 1508.438 C 1372.916 1505.7 1372.921 1507.846 1361.097 1447.739 C 1358.573 1435.096 1346.848 1433.033 1346.167 1432.72 L 1322.614 1426.883 L 1297.856 1455.963 C 1289.612 1465.645 1277.086 1466.249 1268.307 1457.686 C 1266.787 1456.203 1268.344 1457.845 1242.043 1426.861 L 1218.399 1432.721 L 1215.619 1433.541 C 1211.794 1434.995 1205.266 1438.75 1203.47 1447.741 C 1191.544 1508.372 1191.651 1505.713 1191.674 1508.441 C 1191.725 1514.035 1194.817 1515.75 1200.143 1515.75 L 1220.39 1515.75 L 1220.39 1477.938 C 1220.39 1475.724 1222.185 1473.93 1224.399 1473.93 C 1226.613 1473.93 1228.408 1475.724 1228.408 1477.938 L 1228.408 1515.75 L 1243.493 1515.75 C 1245.708 1515.75 1247.502 1517.544 1247.502 1519.759 C 1247.502 1521.973 1258.193 1521.973 1258.193 1519.759 Z " id="Path" fill="rgb(255,255,255)"/><path d=" M 1368.959 1446.171 C 1365.353 1428.105 1348.404 1425.03 1348.351 1425.005 L 1348.351 1425.006 C 1348.169 1424.952 1349.906 1425.388 1307.017 1414.757 L 1307.017 1413.301 L 1338.589 1413.301 C 1345.097 1413.301 1350.391 1408.007 1350.391 1401.499 L 1350.391 1341.287 C 1350.922 1339.048 1350.923 1336.72 1350.391 1334.477 L 1350.391 1312.501 C 1350.391 1310.287 1348.596 1308.492 1346.382 1308.492 C 1344.167 1308.492 1342.373 1310.287 1342.373 1312.501 L 1342.373 1324.006 C 1340.257 1322.743 1337.84 1321.837 1335.235 1321.388 C 1334.294 1317.211 1330.825 1313.908 1326.425 1313.33 C 1321.838 1312.727 1318.362 1310.054 1316.093 1305.384 C 1315.032 1303.197 1312.952 1301.761 1310.531 1301.541 C 1308.107 1301.322 1305.813 1302.357 1304.377 1304.312 C 1297.486 1313.69 1278.329 1334.725 1245.249 1334.724 C 1242.732 1334.724 1241.026 1334.605 1240.432 1334.578 C 1234.353 1334.212 1229.213 1339.069 1229.213 1345.16 L 1229.213 1354.371 C 1229.213 1369.093 1235.321 1383.366 1245.969 1393.529 C 1249.5 1396.9 1253.396 1399.711 1257.55 1401.953 L 1257.55 1405.285 L 1226.123 1405.285 C 1224.036 1405.285 1222.338 1403.587 1222.338 1401.501 L 1222.338 1311.421 C 1222.338 1282.218 1246.149 1258.154 1274.911 1258.154 C 1275.004 1258.154 1275.097 1258.155 1275.189 1258.155 C 1285.494 1258.211 1297.392 1261.138 1305.5 1265.61 C 1310.639 1268.447 1313.813 1266.192 1318.888 1266.192 C 1331.273 1266.192 1341.199 1278.928 1342.388 1290.383 C 1342.396 1290.55 1342.413 1291.222 1342.416 1293.796 C 1342.418 1297.666 1346.789 1297.963 1346.428 1297.802 C 1348.642 1297.8 1350.435 1296.003 1350.433 1293.79 C 1350.433 1293.078 1350.439 1290.286 1350.372 1289.639 C 1348.76 1273.693 1335.158 1258.175 1318.888 1258.175 C 1312.534 1258.175 1311.543 1259.786 1309.374 1258.591 C 1300.18 1253.518 1286.779 1250.2 1275.233 1250.138 C 1241.952 1249.922 1214.32 1277.647 1214.32 1311.421 L 1214.32 1401.5 C 1214.32 1408.008 1219.614 1413.302 1226.122 1413.302 L 1257.55 1413.302 L 1257.55 1414.757 L 1216.378 1424.961 C 1216.324 1424.975 1216.27 1424.99 1216.216 1425.006 L 1213.208 1425.893 C 1213.118 1425.92 1213.029 1425.949 1212.941 1425.982 C 1207.573 1427.985 1198.184 1433.271 1195.607 1446.174 C 1183.406 1507.464 1183.92 1504.847 1183.89 1505.057 C 1182.421 1515.452 1187.624 1523.767 1200.143 1523.767 L 1243.493 1523.767 C 1245.708 1523.767 1247.502 1521.973 1247.502 1519.759 C 1247.502 1517.544 1245.708 1515.75 1243.493 1515.75 L 1228.408 1515.75 L 1228.408 1477.938 C 1228.408 1475.724 1226.613 1473.93 1224.399 1473.93 C 1222.185 1473.93 1220.39 1475.724 1220.39 1477.938 L 1220.39 1515.75 L 1200.143 1515.75 C 1194.817 1515.75 1191.725 1514.035 1191.674 1508.441 C 1191.651 1505.713 1191.544 1508.372 1203.471 1447.741 C 1205.266 1438.75 1211.794 1434.995 1215.619 1433.541 L 1218.399 1432.721 L 1242.043 1426.861 C 1268.344 1457.845 1266.787 1456.203 1268.307 1457.686 C 1277.085 1466.249 1289.612 1465.645 1297.856 1455.963 L 1322.614 1426.883 L 1346.167 1432.72 C 1346.848 1433.033 1358.573 1435.096 1361.097 1447.74 C 1372.921 1507.846 1372.916 1505.7 1372.894 1508.438 C 1372.853 1513.917 1369.889 1515.75 1364.425 1515.75 L 1344.321 1515.75 L 1344.321 1477.938 C 1344.321 1475.724 1342.527 1473.93 1340.313 1473.93 C 1338.098 1473.93 1336.304 1475.724 1336.304 1477.938 L 1336.304 1515.75 L 1262.201 1515.75 C 1259.987 1515.75 1258.193 1517.544 1258.193 1519.759 C 1258.193 1521.973 1259.987 1523.767 1262.201 1523.767 L 1364.426 1523.767 C 1374.33 1523.767 1380.821 1518.318 1380.912 1508.502 C 1380.946 1503.918 1380.673 1506.109 1368.959 1446.171 Z " id="Path" fill="rgb(62,124,177)"/><path d=" M 1347.866 1298.08 C 1348.233 1298.244 1343.791 1297.943 1343.789 1294.014 C 1343.787 1291.401 1343.769 1290.719 1343.761 1290.548 C 1342.552 1278.919 1332.465 1265.99 1319.878 1265.99 C 1314.721 1265.99 1311.495 1268.278 1306.273 1265.399 C 1298.033 1260.858 1285.941 1257.886 1275.468 1257.83 C 1275.374 1257.83 1275.28 1257.829 1275.185 1257.829 C 1245.955 1257.829 1221.757 1282.259 1221.757 1311.908 L 1221.757 1403.359 C 1221.757 1405.478 1223.482 1407.201 1225.603 1407.201 L 1257.542 1407.201 L 1257.542 1400.476 C 1253.32 1398.2 1252.246 1397.174 1248.656 1393.751 C 1237.835 1383.434 1230.723 1370.458 1230.723 1355.512 L 1230.723 1346.161 C 1230.723 1339.977 1233.967 1335.046 1240.145 1335.418 C 1240.749 1335.445 1242.483 1335.566 1245.041 1335.566 C 1278.659 1335.567 1298.128 1314.211 1305.131 1304.69 C 1306.591 1302.705 1308.922 1301.654 1311.385 1301.877 C 1313.845 1302.1 1314.827 1303.558 1315.906 1305.778 C 1318.212 1310.519 1322.876 1313.234 1327.538 1313.846 C 1332.009 1314.432 1332.883 1317.785 1333.839 1322.027 C 1336.487 1322.482 1341.595 1323.402 1343.746 1324.684 L 1343.746 1313.004 C 1343.746 1310.756 1345.569 1308.934 1347.82 1308.934 C 1350.07 1308.934 1350.117 1298.079 1347.866 1298.08 Z " id="Path" fill="rgb(255,255,255)"/><path d=" M 1335.497 1329.659 C 1338.845 1330.655 1341.427 1332.861 1342.374 1335.585 L 1342.374 1340.178 C 1341.427 1342.903 1338.845 1345.109 1335.497 1346.105 L 1335.497 1329.659 Z " id="Path" fill="rgb(255,255,255)"/><path d=" M 1335.497 1355.069 L 1335.497 1354.329 C 1338.003 1353.866 1340.329 1352.979 1342.374 1351.758 L 1342.374 1401.5 C 1342.374 1403.587 1340.676 1405.284 1338.59 1405.284 L 1307.017 1405.284 L 1307.017 1402.186 C 1324.014 1393.3 1335.497 1375.508 1335.497 1355.069 Z " id="Path" fill="rgb(255,255,255)"/><path d=" M 1251.505 1387.728 C 1242.434 1379.07 1237.232 1366.912 1237.232 1354.37 C 1237.47 1345.642 1236.654 1344.584 1238.047 1343.273 C 1238.54 1342.808 1239.203 1342.538 1239.95 1342.58 C 1268.694 1344.311 1293.417 1331.675 1309.74 1310.517 C 1314.141 1318.245 1320.596 1320.651 1325.381 1321.28 C 1326.577 1321.438 1327.48 1322.458 1327.48 1323.656 C 1327.48 1334.746 1327.48 1344.059 1327.48 1355.07 C 1327.48 1394.958 1279.727 1414.663 1251.505 1387.728 Z " id="Path" fill="rgb(255,255,255)"/><path d=" M 1291.75 1450.765 C 1286.164 1457.326 1278.346 1457.309 1272.774 1450.732 L 1264.409 1440.859 L 1300.183 1440.859 L 1291.75 1450.765 Z " id="Path" fill="rgb(255,255,255)"/><path d=" M 1307.01 1432.841 L 1257.617 1432.841 L 1250.728 1424.709 L 1262.525 1421.785 C 1264.314 1421.342 1265.569 1419.697 1265.569 1417.854 L 1265.569 1405.452 C 1276.6 1409.129 1288.249 1409.088 1299 1405.566 C 1299.075 1418.379 1298.827 1418.086 1299.223 1419.216 C 1299.66 1420.466 1300.702 1421.452 1302.043 1421.784 L 1313.918 1424.727 L 1307.01 1432.841 Z " id="Path" fill="rgb(255,255,255)"/></g></g><g id="businessman"><path d=" M 1717.828 1598.883 L 1717.828 1579.57 C 1717.828 1564.591 1708.597 1550.329 1695.379 1544.889 C 1695.354 1544.879 1695.329 1544.868 1695.304 1544.859 L 1643.561 1524.82 L 1643.553 1514.753 C 1652.381 1508.291 1658.496 1498.343 1659.862 1486.951 C 1669.888 1486.073 1677.353 1478.079 1677.353 1468.759 C 1677.353 1464.178 1675.61 1459.7 1672.667 1456.274 L 1672.667 1439.224 C 1672.667 1410.401 1649.218 1386.952 1620.395 1386.952 L 1617.995 1386.952 C 1589.172 1386.952 1565.723 1410.401 1565.723 1439.224 L 1565.723 1456.747 C 1562.765 1460.139 1561.038 1464.444 1561.038 1468.809 C 1561.038 1477.983 1568.366 1486.09 1578.526 1486.956 C 1579.856 1498.143 1585.75 1508.15 1594.807 1514.708 L 1594.807 1524.659 C 1588.762 1527.021 1548.047 1542.922 1543.077 1544.863 C 1543.055 1544.871 1543.034 1544.88 1543.012 1544.889 C 1532.2 1549.339 1520.562 1562.09 1520.562 1579.57 L 1520.562 1639.527 C 1520.562 1645.339 1525.29 1650.067 1531.103 1650.067 L 1707.289 1650.067 C 1713.1 1650.067 1717.828 1645.339 1717.828 1639.527 L 1717.828 1616.87 C 1717.828 1614.741 1717.828 1601.012 1717.828 1598.883 Z " id="Path" fill="rgb(255,255,255)"/><path d=" M 1623.043 1562.396 C 1623.043 1560.268 1621.318 1558.542 1619.189 1558.542 C 1617.06 1558.542 1615.334 1560.268 1615.334 1562.396 L 1615.334 1564.709 C 1615.334 1566.838 1617.06 1568.563 1619.189 1568.563 C 1621.318 1568.563 1623.043 1566.838 1623.043 1564.709 L 1623.043 1562.396 Z " id="Path" fill="rgb(62,124,177)"/><path d=" M 1623.043 1583.98 C 1623.043 1581.852 1621.318 1580.126 1619.189 1580.126 C 1617.06 1580.126 1615.334 1581.852 1615.334 1583.98 L 1615.334 1586.293 C 1615.334 1588.421 1617.06 1590.147 1619.189 1590.147 C 1621.318 1590.147 1623.043 1588.421 1623.043 1586.293 L 1623.043 1583.98 Z " id="Path" fill="rgb(62,124,177)"/><path d=" M 1623.043 1605.564 C 1623.043 1603.435 1621.318 1601.71 1619.189 1601.71 C 1617.06 1601.71 1615.334 1603.435 1615.334 1605.564 L 1615.334 1607.877 C 1615.334 1610.005 1617.06 1611.731 1619.189 1611.731 C 1621.318 1611.731 1623.043 1610.005 1623.043 1607.877 L 1623.043 1605.564 Z " id="Path" fill="rgb(62,124,177)"/><path d=" M 1619.189 1623.294 C 1617.06 1623.294 1615.334 1625.019 1615.334 1627.148 L 1615.334 1629.46 C 1615.334 1631.589 1617.06 1633.315 1619.189 1633.315 C 1621.318 1633.315 1623.043 1631.589 1623.043 1629.46 L 1623.043 1627.148 C 1623.043 1625.019 1621.318 1623.294 1619.189 1623.294 Z " id="Path" fill="rgb(62,124,177)"/><path d=" M 1643.877 1583.301 C 1646.007 1583.301 1647.732 1581.576 1647.732 1579.447 C 1647.732 1577.319 1646.007 1575.593 1643.877 1575.593 L 1639.656 1575.593 C 1636.316 1575.593 1633.599 1578.31 1633.599 1581.65 L 1633.599 1591.028 C 1633.599 1594.368 1636.316 1597.085 1639.656 1597.085 L 1666.085 1597.085 C 1669.425 1597.085 1672.142 1594.368 1672.142 1591.028 L 1672.142 1581.65 C 1672.142 1578.31 1669.425 1575.593 1666.085 1575.593 L 1661.864 1575.593 C 1659.735 1575.593 1658.01 1577.319 1658.01 1579.447 C 1658.01 1581.576 1659.735 1583.301 1661.864 1583.301 L 1664.433 1583.301 L 1664.433 1589.376 L 1641.308 1589.376 L 1641.308 1583.301 L 1643.877 1583.301 Z " id="Path" fill="rgb(62,124,177)"/><path d=" M 1713.974 1602.738 C 1716.103 1602.738 1717.828 1601.012 1717.828 1598.883 L 1717.828 1579.57 C 1717.828 1564.591 1708.597 1550.329 1695.379 1544.889 C 1695.354 1544.879 1695.329 1544.868 1695.304 1544.859 L 1643.561 1524.82 L 1643.553 1514.753 C 1652.381 1508.291 1658.496 1498.343 1659.862 1486.951 C 1669.888 1486.073 1677.353 1478.079 1677.353 1468.759 C 1677.353 1464.178 1675.61 1459.7 1672.667 1456.274 L 1672.667 1439.224 C 1672.667 1410.401 1649.218 1386.952 1620.395 1386.952 L 1617.995 1386.952 C 1589.172 1386.952 1565.723 1410.401 1565.723 1439.224 L 1565.723 1456.747 C 1562.765 1460.139 1561.038 1464.444 1561.038 1468.809 C 1561.038 1477.983 1568.366 1486.09 1578.526 1486.956 C 1579.856 1498.143 1585.75 1508.15 1594.807 1514.708 L 1594.807 1524.659 C 1588.762 1527.021 1548.047 1542.922 1543.077 1544.863 C 1543.055 1544.871 1543.034 1544.88 1543.012 1544.889 C 1532.2 1549.339 1520.563 1562.09 1520.563 1579.57 L 1520.563 1639.527 C 1520.563 1645.339 1525.29 1650.067 1531.103 1650.067 L 1707.289 1650.067 C 1713.1 1650.067 1717.828 1645.339 1717.828 1639.527 L 1717.828 1616.87 C 1717.828 1614.741 1716.103 1613.016 1713.974 1613.016 C 1711.845 1613.016 1710.12 1614.741 1710.12 1616.87 L 1710.12 1639.527 C 1710.12 1641.088 1708.849 1642.358 1707.289 1642.358 L 1686.887 1642.358 L 1686.887 1575.634 C 1686.887 1573.505 1685.162 1571.78 1683.033 1571.78 C 1680.904 1571.78 1679.179 1573.505 1679.179 1575.634 L 1679.179 1642.358 L 1559.212 1642.358 L 1559.212 1575.634 C 1559.212 1573.505 1557.487 1571.78 1555.358 1571.78 C 1553.229 1571.78 1551.503 1573.505 1551.503 1575.634 L 1551.503 1642.358 L 1531.103 1642.358 C 1529.541 1642.358 1528.271 1641.088 1528.271 1639.527 L 1528.271 1579.57 C 1528.271 1564.713 1538.812 1554.969 1545.916 1552.03 L 1578.099 1539.461 L 1597.534 1555.577 C 1600.953 1558.415 1606.065 1557.665 1608.538 1554.002 L 1612.775 1547.727 L 1625.616 1547.727 L 1629.853 1554.002 C 1632.322 1557.659 1637.434 1558.418 1640.856 1555.578 L 1660.206 1539.533 L 1692.482 1552.032 C 1701.253 1555.662 1710.12 1566.276 1710.12 1579.57 L 1710.12 1598.883 C 1710.12 1601.012 1711.845 1602.738 1713.974 1602.738 L 1713.974 1602.738 Z  M 1669.644 1468.76 C 1669.644 1474.029 1665.456 1478.274 1660.162 1479.151 L 1660.162 1459.674 C 1661.152 1459.573 1662.308 1459.276 1663.223 1458.892 C 1664.42 1458.393 1669.644 1462.625 1669.644 1468.76 Z  M 1578.229 1479.161 C 1572.925 1478.302 1568.746 1474.058 1568.746 1468.809 C 1568.746 1465.137 1570.92 1461.675 1573.986 1459.658 C 1573.987 1459.658 1573.987 1459.658 1573.987 1459.658 C 1574.209 1459.512 1574.573 1459.433 1574.941 1459.5 C 1576.371 1459.757 1577.368 1459.729 1578.228 1459.729 L 1578.228 1479.161 L 1578.229 1479.161 Z  M 1575.999 1452.021 C 1574.581 1452.021 1573.431 1450.871 1573.431 1449.454 L 1573.431 1439.224 C 1573.431 1414.613 1593.383 1394.661 1617.995 1394.661 L 1620.395 1394.661 C 1645.007 1394.661 1664.959 1414.612 1664.959 1439.224 L 1664.959 1451.261 C 1663.416 1451.002 1661.732 1451.159 1660.24 1451.785 C 1658.838 1452.373 1656.45 1451.784 1655.009 1451.095 C 1651.765 1449.546 1649.575 1446.229 1649.577 1442.529 C 1649.579 1440.445 1648.157 1438.631 1646.135 1438.125 L 1646.135 1438.125 L 1646.134 1438.125 L 1646.027 1438.107 C 1643.942 1437.76 1641.905 1438.807 1640.882 1440.657 C 1637.005 1447.675 1629.659 1452.022 1621.637 1452.022 L 1575.999 1452.022 L 1575.999 1452.021 Z  M 1585.937 1482.111 L 1585.937 1459.729 L 1621.637 1459.729 C 1630.282 1459.729 1638.198 1455.966 1643.602 1450.016 C 1645.473 1453.846 1648.701 1456.825 1652.453 1458.401 L 1652.453 1482.111 C 1652.453 1500.118 1637.792 1514.82 1619.759 1514.839 C 1619.748 1514.839 1619.736 1514.839 1619.725 1514.839 C 1619.714 1514.839 1619.704 1514.839 1619.693 1514.839 C 1598.699 1514.82 1585.937 1498.316 1585.937 1482.111 L 1585.937 1482.111 Z  M 1602.278 1549.498 L 1586.308 1536.254 L 1597.375 1531.932 L 1608.122 1540.843 C 1607.854 1541.241 1602.515 1549.148 1602.278 1549.498 Z  M 1625.203 1535.03 C 1623.664 1536.306 1622.721 1538.125 1622.523 1540.019 L 1615.868 1540.019 C 1615.674 1538.175 1614.755 1536.33 1613.188 1535.03 L 1602.427 1526.107 C 1602.463 1525.874 1602.516 1525.305 1602.516 1524.906 L 1602.516 1519.086 C 1612.8 1523.508 1624.894 1523.904 1635.849 1519.185 L 1635.853 1524.94 C 1635.853 1524.945 1635.854 1524.95 1635.854 1524.955 C 1635.856 1525.35 1635.888 1525.739 1635.948 1526.12 L 1625.203 1535.03 Z  M 1636.112 1549.498 C 1635.877 1549.148 1630.537 1541.241 1630.269 1540.843 L 1640.877 1532.047 C 1649.82 1535.51 1647.688 1534.685 1651.974 1536.344 L 1636.112 1549.498 Z " id="Compound Path" fill="rgb(62,124,177)"/></g></g><g id="art"><g id="Group"><g id="Group"><path d=" M 878.593 1071.781 C 876.636 1060.774 874.107 1050.742 874.081 1050.642 C 873.791 1049.497 872.902 1048.601 871.76 1048.301 C 870.616 1048 869.402 1048.347 868.589 1049.202 C 867.65 1050.187 845.562 1073.448 841.032 1082.81 C 836.834 1091.484 839.049 1101.624 845.792 1107.842 L 843.686 1116.406 C 843.68 1116.425 843.672 1116.444 843.666 1116.463 L 834.239 1149.147 L 807.869 1149.147 L 797.141 1090.435 C 797.137 1090.415 797.131 1090.395 797.127 1090.375 C 797.114 1090.311 797.099 1090.247 797.082 1090.183 C 797.07 1090.138 797.057 1090.092 797.042 1090.047 C 797.026 1089.994 797.008 1089.943 796.989 1089.891 C 796.968 1089.836 796.946 1089.781 796.923 1089.728 C 796.906 1089.688 796.888 1089.648 796.868 1089.609 C 796.838 1089.546 796.806 1089.485 796.773 1089.426 C 796.763 1089.409 796.756 1089.391 796.746 1089.374 L 778.422 1058.224 C 777.732 1057.051 776.383 1056.433 775.044 1056.679 C 773.706 1056.924 772.662 1057.978 772.431 1059.319 L 766.306 1094.936 C 766.302 1094.957 766.301 1094.979 766.298 1095 C 766.288 1095.063 766.281 1095.127 766.275 1095.191 C 766.271 1095.24 766.267 1095.288 766.265 1095.336 C 766.262 1095.39 766.261 1095.444 766.262 1095.498 C 766.262 1095.558 766.263 1095.618 766.267 1095.677 C 766.269 1095.72 766.273 1095.762 766.277 1095.805 C 766.284 1095.875 766.293 1095.944 766.304 1096.013 C 766.307 1096.032 766.308 1096.05 766.312 1096.068 L 776.009 1149.148 L 771.308 1149.148 C 769.517 1149.148 768.065 1150.6 768.065 1152.391 L 768.065 1178.084 C 768.065 1179.875 769.517 1181.327 771.308 1181.327 C 773.098 1181.327 774.55 1179.875 774.55 1178.084 L 774.55 1155.633 L 779.88 1155.633 C 779.885 1155.633 779.889 1155.634 779.894 1155.634 C 779.899 1155.634 779.903 1155.633 779.908 1155.633 L 836.667 1155.633 C 836.671 1155.633 836.675 1155.634 836.679 1155.634 C 836.682 1155.634 836.686 1155.633 836.689 1155.633 L 853.784 1155.633 C 853.791 1155.633 853.798 1155.633 853.806 1155.633 L 860.292 1155.633 L 860.292 1166.651 L 786.873 1166.651 C 785.082 1166.651 783.631 1168.103 783.631 1169.894 C 783.631 1171.685 785.082 1173.137 786.873 1173.137 L 860.293 1173.137 L 860.293 1249.388 C 860.293 1256.182 854.766 1261.709 847.971 1261.709 L 786.873 1261.709 C 780.078 1261.709 774.551 1256.182 774.551 1249.388 L 774.551 1192.849 C 774.551 1191.059 773.099 1189.607 771.308 1189.607 C 769.517 1189.607 768.066 1191.059 768.066 1192.849 L 768.066 1249.387 C 768.066 1259.757 776.502 1268.194 786.872 1268.194 L 847.971 1268.194 C 858.341 1268.194 866.778 1259.758 866.778 1249.387 L 866.778 1152.39 C 866.778 1150.599 865.326 1149.147 863.536 1149.147 L 857.764 1149.147 L 863.439 1121.392 L 865.544 1112.836 C 866.13 1112.685 866.714 1112.51 867.292 1112.308 C 872.684 1110.433 877.024 1106.57 879.511 1101.431 C 880.877 1098.607 882.269 1092.461 878.593 1071.781 Z  M 777.322 1069.144 L 781.344 1075.981 L 775.978 1076.961 L 777.322 1069.144 Z  M 774.807 1083.768 L 784.845 1081.934 L 788.803 1088.662 L 773.483 1091.461 L 774.807 1083.768 Z  M 782.603 1149.148 L 773.275 1098.092 L 791.345 1094.791 L 801.276 1149.148 L 782.603 1149.148 L 782.603 1149.148 Z  M 851.145 1149.148 L 840.989 1149.148 L 849.034 1121.256 L 854.522 1122.606 L 856.473 1123.086 L 851.145 1149.148 Z  M 857.9 1116.759 L 850.713 1114.991 L 851.542 1111.623 C 853.843 1112.654 856.264 1113.264 858.716 1113.443 L 857.9 1116.759 Z  M 873.673 1098.607 C 871.94 1102.186 868.918 1104.877 865.162 1106.184 C 864.255 1106.5 863.331 1106.723 862.401 1106.859 C 862.382 1106.862 862.362 1106.865 862.343 1106.869 C 859.441 1107.282 856.483 1106.828 853.786 1105.523 C 852.924 1105.107 852.116 1104.613 851.365 1104.055 C 851.364 1104.054 851.363 1104.054 851.362 1104.053 C 848.991 1102.291 847.2 1099.864 846.209 1097.012 C 844.903 1093.256 845.137 1089.216 846.869 1085.637 C 849.671 1079.845 861.621 1066.278 869.194 1058.054 C 872.771 1073.669 876.02 1093.757 873.673 1098.607 Z " id="Compound Path" fill="rgb(62,124,177)"/></g></g><g id="Group"><g id="Group"><path d=" M 848.476 1183.44 C 846.685 1183.44 845.233 1184.892 845.233 1186.683 L 845.233 1205.633 C 845.233 1209.566 842.034 1212.766 838.101 1212.766 C 834.168 1212.766 830.969 1209.566 830.969 1205.633 L 830.969 1193.91 C 830.969 1188.136 826.271 1183.44 820.499 1183.44 C 814.726 1183.44 810.028 1188.137 810.028 1193.91 L 810.028 1219.709 C 810.028 1223.96 806.57 1227.417 802.32 1227.417 C 798.07 1227.417 794.612 1223.959 794.612 1219.709 L 794.612 1201.356 C 794.612 1199.565 793.16 1198.114 791.369 1198.114 C 789.578 1198.114 788.126 1199.565 788.126 1201.356 L 788.126 1219.709 C 788.126 1227.535 794.493 1233.903 802.32 1233.903 C 810.146 1233.903 816.513 1227.535 816.513 1219.709 L 816.513 1193.91 C 816.513 1191.712 818.301 1189.925 820.498 1189.925 C 822.695 1189.925 824.483 1191.713 824.483 1193.91 L 824.483 1205.633 C 824.483 1213.142 830.592 1219.251 838.101 1219.251 C 845.61 1219.251 851.719 1213.142 851.719 1205.633 L 851.719 1186.682 C 851.719 1184.891 850.267 1183.44 848.476 1183.44 Z " id="Path" fill="rgb(62,124,177)"/></g></g></g><g id="camera"><g id="Group"><g id="Group"><path d=" M 652.602 512.646 L 550.295 512.646 C 546.514 512.646 543.438 515.722 543.438 519.503 L 543.438 601.275 C 543.438 605.056 546.514 608.132 550.295 608.132 L 578.989 608.132 C 578.943 608.453 578.91 608.778 578.91 609.111 L 578.91 614.172 C 578.91 617.953 581.987 621.029 585.767 621.029 L 593.668 621.029 L 593.668 636.156 C 593.668 639.937 596.744 643.013 600.525 643.013 L 605.585 643.013 C 609.366 643.013 612.442 639.937 612.442 636.156 L 612.442 621.029 L 620.343 621.029 C 624.124 621.029 627.2 617.953 627.2 614.172 L 627.2 609.111 C 627.2 608.778 627.168 608.453 627.122 608.132 L 652.602 608.132 C 656.383 608.132 659.459 605.056 659.459 601.275 L 659.459 519.503 C 659.459 515.722 656.383 512.646 652.602 512.646 Z  M 606.565 636.156 C 606.565 636.696 606.126 637.136 605.585 637.136 L 600.525 637.136 C 599.985 637.136 599.546 636.696 599.546 636.156 L 599.546 621.418 L 606.565 621.418 L 606.565 636.156 Z  M 621.323 614.172 C 621.323 614.712 620.884 615.152 620.343 615.152 L 585.767 615.152 C 585.227 615.152 584.788 614.713 584.788 614.172 L 584.788 609.112 C 584.788 608.572 585.227 608.132 585.767 608.132 L 620.343 608.132 C 620.883 608.132 621.323 608.572 621.323 609.112 L 621.323 614.172 Z  M 653.582 601.275 L 653.582 601.275 C 653.582 601.815 653.143 602.255 652.602 602.255 L 620.343 602.255 L 585.767 602.255 L 550.295 602.255 C 549.755 602.255 549.315 601.815 549.315 601.275 L 549.315 519.503 C 549.315 518.963 549.754 518.523 550.295 518.523 L 652.602 518.523 C 653.143 518.523 653.582 518.963 653.582 519.503 L 653.582 601.275 Z " id="Compound Path" fill="rgb(62,124,177)"/></g></g><g id="Group"><g id="Group"><path d=" M 532.911 531.061 L 525.292 531.061 C 524.386 531.061 523.523 531.241 522.731 531.562 C 522.403 531.166 522.03 530.804 521.616 530.487 L 490.895 507.041 C 488.806 505.447 486.047 505.181 483.694 506.346 C 481.34 507.51 479.878 509.865 479.878 512.492 L 479.878 601.208 C 479.878 603.835 481.34 606.19 483.694 607.355 C 484.667 607.836 485.708 608.073 486.743 608.073 C 488.213 608.073 489.67 607.595 490.895 606.66 L 521.616 583.214 C 522.03 582.898 522.403 582.536 522.731 582.139 C 523.523 582.459 524.387 582.64 525.293 582.64 L 532.912 582.64 C 536.693 582.64 539.769 579.564 539.769 575.783 L 539.769 537.919 C 539.768 534.137 536.693 531.061 532.911 531.061 Z  M 518.05 578.541 L 487.329 601.987 C 486.909 602.308 486.504 602.188 486.301 602.086 C 486.097 601.985 485.755 601.738 485.755 601.208 L 485.755 512.492 C 485.755 511.962 486.097 511.715 486.3 511.614 C 486.405 511.562 486.562 511.505 486.747 511.505 C 486.923 511.505 487.124 511.557 487.329 511.713 L 518.05 535.159 C 518.291 535.343 518.435 535.635 518.435 535.938 L 518.435 537.918 L 518.435 575.783 L 518.435 577.763 L 518.436 577.763 C 518.435 578.066 518.291 578.357 518.05 578.541 Z  M 533.891 575.783 C 533.891 576.323 533.451 576.763 532.911 576.763 L 525.292 576.763 C 524.752 576.763 524.312 576.323 524.312 575.783 L 524.312 537.918 C 524.312 537.379 524.752 536.939 525.292 536.939 L 532.911 536.939 C 533.451 536.939 533.891 537.378 533.891 537.918 L 533.891 575.783 Z " id="Compound Path" fill="rgb(62,124,177)"/></g></g><g id="Group"><g id="Group"><path d=" M 565.472 443.013 C 547.269 443.013 532.459 457.822 532.459 476.026 C 532.459 494.229 547.269 509.039 565.472 509.039 C 583.676 509.039 598.485 494.23 598.485 476.026 C 598.485 457.822 583.676 443.013 565.472 443.013 Z  M 565.472 503.161 C 550.509 503.161 538.337 490.988 538.337 476.026 C 538.337 461.063 550.51 448.89 565.472 448.89 C 580.434 448.89 592.607 461.064 592.607 476.026 C 592.607 490.988 580.435 503.161 565.472 503.161 Z " id="Compound Path" fill="rgb(62,124,177)"/></g></g><g id="Group"><g id="Group"><path d=" M 613.842 583.004 L 609.526 583.004 L 609.526 577.896 C 618.21 574.566 623.987 566.215 623.987 556.85 C 623.987 548.31 619.253 540.604 611.632 536.739 C 603.617 532.674 593.97 533.808 585.826 539.77 C 585.269 540.178 584.78 540.668 584.37 541.226 C 579.012 548.543 577.522 556.739 580.174 564.306 C 582.377 570.593 587.228 575.532 593.371 577.888 L 593.371 583.005 L 588.262 583.005 C 584.481 583.005 581.405 586.081 581.405 589.862 L 581.405 589.918 C 581.405 593.699 584.481 596.775 588.262 596.775 L 613.842 596.775 C 617.623 596.775 620.699 593.699 620.699 589.918 L 620.699 589.862 C 620.699 586.081 617.622 583.004 613.842 583.004 Z  M 593.371 556.24 L 593.371 571.428 C 589.835 569.471 587.088 566.267 585.72 562.362 C 583.728 556.679 584.933 550.405 589.111 544.698 C 589.162 544.628 589.226 544.565 589.296 544.514 C 595.712 539.816 602.884 538.893 608.972 541.981 C 614.608 544.839 618.108 550.537 618.108 556.85 C 618.108 562.985 614.754 568.529 609.525 571.426 L 609.525 556.241 C 609.525 552.46 606.449 549.384 602.668 549.384 L 600.228 549.384 C 596.447 549.383 593.371 552.459 593.371 556.24 Z  M 603.648 556.241 L 603.648 583.005 L 599.248 583.005 L 599.248 583.005 L 599.248 556.241 C 599.248 555.71 599.697 555.261 600.228 555.261 L 602.669 555.261 C 603.199 555.261 603.648 555.71 603.648 556.241 Z  M 614.821 589.918 C 614.821 590.458 614.381 590.898 613.841 590.898 L 588.261 590.898 C 587.721 590.898 587.281 590.459 587.281 589.918 L 587.281 589.862 C 587.281 589.322 587.721 588.883 588.261 588.883 L 613.841 588.883 C 614.381 588.883 614.821 589.322 614.821 589.862 L 614.821 589.918 Z " id="Compound Path" fill="rgb(62,124,177)"/></g></g><g id="Group"><g id="Group"><path d=" M 637.5 443.013 C 619.296 443.013 604.487 457.822 604.487 476.026 C 604.487 494.229 619.296 509.039 637.5 509.039 C 655.703 509.039 670.513 494.229 670.513 476.026 C 670.513 457.822 655.703 443.013 637.5 443.013 Z  M 637.5 503.161 C 622.537 503.161 610.364 490.988 610.364 476.026 C 610.364 461.064 622.537 448.89 637.5 448.89 C 652.463 448.89 664.635 461.064 664.635 476.026 C 664.635 490.988 652.462 503.161 637.5 503.161 Z " id="Compound Path" fill="rgb(62,124,177)"/></g></g><g id="Group"><g id="Group"><path d=" M 637.5 465.879 C 631.905 465.879 627.353 470.431 627.353 476.025 C 627.353 481.62 631.905 486.171 637.5 486.171 C 643.094 486.171 647.646 481.62 647.646 476.025 C 647.646 470.431 643.094 465.879 637.5 465.879 Z  M 637.5 480.295 C 635.146 480.295 633.231 478.38 633.231 476.026 C 633.231 473.672 635.146 471.757 637.5 471.757 C 639.854 471.757 641.769 473.672 641.769 476.026 C 641.769 478.38 639.854 480.295 637.5 480.295 Z " id="Compound Path" fill="rgb(62,124,177)"/></g></g><g id="Group"><g id="Group"><path d=" M 565.472 465.879 C 559.878 465.879 555.326 470.431 555.326 476.025 C 555.326 481.619 559.878 486.171 565.472 486.171 C 571.067 486.171 575.618 481.62 575.618 476.025 C 575.618 470.431 571.067 465.879 565.472 465.879 Z  M 565.472 480.294 C 563.119 480.294 561.204 478.38 561.204 476.026 C 561.204 473.672 563.119 471.757 565.472 471.757 C 567.826 471.757 569.741 473.672 569.741 476.026 C 569.741 478.379 567.826 480.294 565.472 480.294 Z " id="Compound Path" fill="rgb(62,124,177)"/></g></g></g><g id="magician"><g id="Group"><g id="Group"><path d=" M 1127.674 722.868 L 1104.694 722.868 C 1107.06 718.147 1108.507 713.117 1109.08 707.626 C 1109.267 705.84 1107.97 704.24 1106.184 704.054 C 1104.397 703.866 1102.798 705.164 1102.611 706.95 C 1101.992 712.873 1100.282 717.975 1097.26 722.868 L 1023.899 722.868 C 1020.146 716.5 1018.245 709.386 1018.245 701.692 C 1018.245 690.7 1022.441 680.283 1030.062 672.362 C 1030.682 671.717 1031.009 670.846 1030.967 669.953 C 1030.925 669.06 1030.517 668.224 1029.839 667.641 C 1022.267 661.129 1016.901 654.797 1014.321 649.33 C 1007.549 634.98 1008.567 623.727 1012.278 621.976 C 1015.987 620.227 1025.321 626.595 1032.092 640.945 C 1034.418 645.874 1035.816 652.77 1036.249 661.44 C 1036.304 662.547 1036.919 663.55 1037.881 664.101 C 1038.843 664.652 1040.02 664.674 1041.002 664.161 C 1047.08 660.987 1053.659 659.378 1060.559 659.378 C 1067.458 659.378 1074.038 660.987 1080.115 664.161 C 1081.098 664.674 1082.275 664.651 1083.236 664.101 C 1084.198 663.55 1084.814 662.547 1084.869 661.44 C 1085.301 652.77 1086.7 645.874 1089.026 640.945 C 1092.123 634.382 1096.149 628.795 1100.364 625.212 C 1103.792 622.299 1106.96 621.089 1108.84 621.976 C 1112.551 623.727 1113.568 634.98 1106.797 649.33 C 1104.217 654.797 1098.851 661.129 1091.279 667.641 C 1090.602 668.223 1090.193 669.06 1090.151 669.953 C 1090.109 670.846 1090.436 671.717 1091.056 672.361 C 1096.78 678.312 1100.612 685.72 1102.136 693.784 C 1102.47 695.548 1104.17 696.71 1105.936 696.376 C 1107.701 696.042 1108.862 694.341 1108.528 692.575 C 1106.978 684.373 1103.362 676.762 1098.008 670.372 C 1105.05 663.965 1109.979 657.83 1112.68 652.106 C 1120.493 635.548 1120.036 620.066 1111.617 616.093 C 1107.235 614.025 1101.743 615.503 1096.152 620.255 C 1091.247 624.424 1086.627 630.786 1083.144 638.168 C 1080.916 642.891 1079.431 648.999 1078.717 656.369 C 1072.971 654.072 1066.779 652.873 1060.559 652.873 C 1054.339 652.873 1048.147 654.072 1042.401 656.369 C 1041.687 648.999 1040.203 642.891 1037.975 638.168 C 1030.162 621.611 1017.92 612.121 1009.502 616.093 C 1001.083 620.066 1000.626 635.548 1008.439 652.106 C 1011.14 657.83 1016.069 663.965 1023.11 670.373 C 1015.755 679.147 1011.74 690.144 1011.74 701.692 C 1011.74 709.267 1013.352 716.364 1016.526 722.868 L 993.443 722.868 C 989.259 722.868 985.854 726.272 985.854 730.456 L 985.854 741.906 C 985.854 746.09 989.259 749.494 993.443 749.494 L 1000.698 749.494 L 1000.698 781.287 C 1000.698 783.083 1002.154 784.539 1003.95 784.539 C 1005.746 784.539 1007.203 783.083 1007.203 781.287 L 1007.203 773.265 L 1113.914 773.265 L 1113.914 813.624 C 1113.914 821.924 1107.161 828.677 1098.861 828.677 L 1022.256 828.677 C 1013.956 828.677 1007.203 821.924 1007.203 813.624 L 1007.203 795.386 C 1007.203 793.59 1005.747 792.134 1003.951 792.134 C 1002.155 792.134 1000.698 793.59 1000.698 795.386 L 1000.698 813.624 C 1000.698 825.511 1010.369 835.181 1022.256 835.181 L 1098.861 835.181 C 1110.748 835.181 1120.419 825.511 1120.419 813.624 L 1120.419 749.495 L 1127.674 749.495 C 1131.858 749.495 1135.262 746.09 1135.262 741.906 L 1135.262 730.457 C 1135.262 726.273 1131.858 722.868 1127.674 722.868 Z  M 1113.914 766.761 L 1007.203 766.761 L 1007.203 749.495 L 1113.914 749.495 L 1113.914 766.761 Z  M 1128.758 741.906 L 1128.758 741.906 C 1128.758 742.504 1128.271 742.99 1127.674 742.99 L 1117.167 742.99 L 1003.95 742.99 L 993.443 742.99 C 992.845 742.99 992.359 742.504 992.359 741.906 L 992.359 730.457 C 992.359 729.859 992.845 729.373 993.443 729.373 L 1022.086 729.373 L 1099.029 729.373 L 1127.674 729.373 C 1128.272 729.373 1128.758 729.859 1128.758 730.457 L 1128.758 741.906 L 1128.758 741.906 Z " id="Compound Path" fill="rgb(62,124,177)"/></g></g><g id="Group"><g id="Group"><path d=" M 1030.897 644.766 C 1027.938 638.496 1023.225 635.365 1019.437 637.152 C 1015.649 638.94 1015.07 644.567 1018.029 650.838 C 1020.363 655.783 1026.664 660 1027.374 660.465 C 1027.912 660.816 1028.532 660.995 1029.154 660.995 C 1029.626 660.995 1030.101 660.892 1030.541 660.683 C 1031.564 660.201 1032.261 659.223 1032.386 658.1 C 1032.479 657.257 1033.23 649.712 1030.897 644.766 Z  M 1023.912 648.061 C 1023.144 646.435 1022.82 645.07 1022.714 644.094 C 1023.4 644.796 1024.248 645.915 1025.015 647.541 C 1025.431 648.424 1025.694 649.552 1025.853 650.741 C 1025.033 649.861 1024.326 648.939 1023.912 648.061 Z " id="Compound Path" fill="rgb(62,124,177)"/></g></g><g id="Group"><g id="Group"><path d=" M 1102.226 637.152 C 1100.102 636.149 1097.54 636.716 1095.197 638.707 C 1093.505 640.145 1091.932 642.297 1090.767 644.766 C 1088.433 649.712 1089.184 657.256 1089.277 658.1 C 1089.402 659.223 1090.1 660.202 1091.122 660.684 C 1091.563 660.892 1092.037 660.995 1092.509 660.995 C 1093.132 660.995 1093.751 660.817 1094.289 660.466 C 1095 660.001 1101.301 655.784 1103.634 650.838 C 1106.594 644.567 1106.014 638.94 1102.226 637.152 Z  M 1097.752 648.062 C 1097.336 648.944 1096.632 649.865 1095.816 650.744 C 1095.974 649.551 1096.236 648.419 1096.65 647.541 C 1097.417 645.916 1098.265 644.796 1098.951 644.094 C 1098.844 645.07 1098.519 646.436 1097.752 648.062 Z " id="Compound Path" fill="rgb(62,124,177)"/></g></g><g id="Group"><g id="Group"><path d=" M 1045.25 685.464 C 1040.386 685.464 1036.576 690.815 1036.576 697.646 C 1036.576 699.442 1038.033 700.898 1039.829 700.898 C 1041.625 700.898 1043.081 699.442 1043.081 697.646 C 1043.081 693.982 1044.71 691.969 1045.25 691.969 C 1045.79 691.969 1047.419 693.982 1047.419 697.646 C 1047.419 699.442 1048.875 700.898 1050.671 700.898 C 1052.468 700.898 1053.924 699.442 1053.924 697.646 C 1053.924 690.815 1050.115 685.464 1045.25 685.464 Z " id="Path" fill="rgb(62,124,177)"/></g></g><g id="Group"><g id="Group"><path d=" M 1075.866 685.464 C 1071.003 685.464 1067.193 690.815 1067.193 697.646 C 1067.193 699.442 1068.649 700.898 1070.445 700.898 C 1072.241 700.898 1073.697 699.442 1073.697 697.646 C 1073.697 693.982 1075.327 691.969 1075.866 691.969 C 1076.406 691.969 1078.035 693.982 1078.035 697.646 C 1078.035 699.442 1079.492 700.898 1081.288 700.898 C 1083.084 700.898 1084.54 699.442 1084.54 697.646 C 1084.54 690.815 1080.73 685.464 1075.866 685.464 Z " id="Path" fill="rgb(62,124,177)"/></g></g><g id="Group"><g id="Group"><path d=" M 1060.559 702.17 C 1055.249 702.17 1050.928 706.49 1050.928 711.8 C 1050.928 717.159 1057.843 720.527 1059.23 721.147 C 1059.652 721.337 1060.106 721.431 1060.559 721.431 C 1061.012 721.431 1061.465 721.337 1061.888 721.147 C 1063.274 720.527 1070.189 717.159 1070.189 711.8 C 1070.189 706.49 1065.869 702.17 1060.559 702.17 Z  M 1060.559 714.518 C 1058.891 713.539 1057.546 712.333 1057.433 711.8 C 1057.433 710.077 1058.835 708.674 1060.559 708.674 C 1062.273 708.674 1063.67 710.062 1063.684 711.774 C 1063.55 712.345 1062.212 713.547 1060.559 714.518 Z " id="Compound Path" fill="rgb(62,124,177)"/></g></g><g id="Group"><g id="Group"><path d=" M 1182.432 793.417 L 1163.888 678.996 C 1163.583 677.11 1162.56 675.455 1161.01 674.337 C 1159.46 673.219 1157.567 672.771 1155.681 673.077 L 1146.167 674.62 C 1142.272 675.251 1139.617 678.932 1140.249 682.827 L 1143.12 700.541 C 1143.12 700.542 1143.12 700.543 1143.12 700.543 C 1143.12 700.543 1143.12 700.544 1143.12 700.545 L 1154.298 769.514 C 1154.585 771.287 1156.257 772.491 1158.029 772.204 C 1159.802 771.916 1161.006 770.246 1160.719 768.473 L 1150.061 702.713 L 1160.859 700.963 L 1176.011 794.457 C 1176.047 794.677 1175.969 794.842 1175.897 794.942 C 1175.825 795.041 1175.693 795.168 1175.473 795.204 L 1165.959 796.746 C 1165.738 796.782 1165.575 796.703 1165.475 796.632 C 1165.375 796.56 1165.249 796.428 1165.213 796.208 L 1163.138 783.402 C 1162.85 781.628 1161.178 780.422 1159.407 780.711 C 1157.634 780.999 1156.43 782.668 1156.717 784.442 L 1158.792 797.249 C 1159.098 799.135 1160.12 800.79 1161.67 801.908 C 1162.902 802.796 1164.35 803.261 1165.839 803.261 C 1166.224 803.261 1166.612 803.23 1167 803.167 L 1176.514 801.625 C 1178.401 801.319 1180.055 800.297 1181.173 798.747 C 1182.291 797.197 1182.738 795.303 1182.432 793.417 Z  M 1149.02 696.292 L 1146.669 681.786 C 1146.612 681.433 1146.854 681.098 1147.207 681.04 L 1156.721 679.498 C 1156.941 679.461 1157.106 679.541 1157.206 679.612 C 1157.305 679.684 1157.432 679.816 1157.468 680.036 L 1159.819 694.541 L 1149.02 696.292 Z " id="Compound Path" fill="rgb(62,124,177)"/></g></g><g id="Group"><g id="Group"><path d=" M 1167.063 640.38 L 1161.185 637.175 C 1158.49 635.706 1156.288 633.504 1154.818 630.809 L 1151.613 624.93 C 1151.044 623.885 1149.948 623.235 1148.758 623.235 C 1147.567 623.235 1146.472 623.885 1145.902 624.93 L 1142.697 630.809 C 1141.228 633.504 1139.026 635.706 1136.331 637.176 L 1130.452 640.38 C 1129.407 640.95 1128.757 642.045 1128.757 643.236 C 1128.757 644.426 1129.407 645.522 1130.452 646.092 L 1136.33 649.296 C 1139.026 650.766 1141.227 652.968 1142.697 655.663 L 1145.902 661.541 C 1146.472 662.586 1147.567 663.236 1148.758 663.236 C 1149.948 663.236 1151.043 662.586 1151.613 661.541 L 1154.818 655.663 C 1156.287 652.968 1158.489 650.766 1161.185 649.296 L 1167.063 646.091 C 1168.108 645.522 1168.758 644.426 1168.758 643.236 C 1168.758 642.045 1168.108 640.95 1167.063 640.38 Z  M 1158.072 643.585 C 1154.276 645.654 1151.177 648.754 1149.107 652.549 L 1148.758 653.189 L 1148.41 652.549 C 1146.34 648.753 1143.24 645.654 1139.445 643.584 L 1138.805 643.236 L 1139.446 642.887 C 1143.241 640.817 1146.341 637.718 1148.41 633.923 L 1148.759 633.282 L 1149.108 633.923 C 1151.177 637.718 1154.277 640.818 1158.072 642.887 L 1158.712 643.236 L 1158.072 643.585 Z " id="Compound Path" fill="rgb(62,124,177)"/></g></g><g id="Group"><g id="Group"><path d=" M 1002.988 692.197 L 997.11 688.993 C 994.414 687.523 992.212 685.321 990.743 682.626 L 987.538 676.747 C 986.969 675.702 985.873 675.052 984.683 675.052 C 983.492 675.052 982.397 675.702 981.827 676.747 L 978.622 682.625 C 977.153 685.321 974.951 687.523 972.256 688.992 L 966.378 692.197 C 965.333 692.767 964.682 693.862 964.682 695.053 C 964.682 696.244 965.333 697.339 966.378 697.909 L 972.256 701.113 C 974.951 702.583 977.153 704.785 978.623 707.48 L 981.827 713.358 C 982.397 714.403 983.492 715.054 984.683 715.054 C 985.874 715.054 986.968 714.403 987.538 713.358 L 990.743 707.48 C 992.212 704.785 994.414 702.583 997.11 701.113 L 1002.988 697.909 C 1004.033 697.339 1004.683 696.244 1004.683 695.053 C 1004.683 693.862 1004.033 692.767 1002.988 692.197 Z  M 993.996 695.401 C 990.201 697.471 987.101 700.571 985.032 704.366 L 984.683 705.006 L 984.334 704.366 C 982.265 700.57 979.165 697.471 975.37 695.401 L 974.73 695.053 L 975.37 694.704 C 979.165 692.635 982.265 689.535 984.334 685.739 L 984.683 685.099 L 985.032 685.739 C 987.101 689.535 990.201 692.634 993.996 694.704 L 994.636 695.053 L 993.996 695.401 Z " id="Compound Path" fill="rgb(62,124,177)"/></g></g></g><g id="origami (1)"><path d=" M 1355.061 297.905 L 1375.101 250.435 C 1375.794 248.795 1375.026 246.905 1373.386 246.213 C 1371.748 245.52 1369.856 246.289 1369.164 247.928 L 1351.309 290.223 C 1350.068 287.49 1323.724 229.485 1322.493 226.775 L 1393.608 190.028 L 1375.021 234.056 C 1374.329 235.695 1375.097 237.586 1376.736 238.277 C 1378.376 238.97 1380.266 238.201 1380.958 236.562 L 1400.84 189.465 C 1402.746 184.951 1397.959 180.526 1393.608 182.772 L 1316.812 222.455 C 1316.152 222.797 1315.608 223.382 1315.318 224.077 L 1294.652 273.621 L 1286.23 263.173 L 1286.229 263.173 C 1285.23 261.933 1283.743 261.222 1282.151 261.222 L 1241.178 261.222 C 1239.759 261.222 1238.485 262.17 1238.084 263.542 L 1227.108 301.177 C 1226.465 303.381 1227.315 305.72 1229.223 306.998 C 1231.123 308.27 1233.61 308.175 1235.411 306.735 L 1250.158 294.937 L 1268.281 339.282 C 1268.624 340.14 1269.411 340.893 1270.422 341.174 L 1312.849 352.642 C 1314.565 353.104 1316.336 352.09 1316.8 350.372 C 1317.265 348.654 1316.249 346.885 1314.53 346.42 L 1280.307 337.17 L 1349.376 302.865 C 1350.208 305.798 1364.952 357.753 1365.658 360.24 L 1329.124 350.365 C 1327.407 349.902 1325.636 350.916 1325.172 352.635 C 1324.707 354.353 1325.724 356.122 1327.442 356.586 L 1367.71 367.471 L 1373.537 388.005 C 1374.038 389.766 1375.387 391.115 1377.147 391.614 L 1413.633 401.964 C 1415.769 402.571 1417.995 401.802 1419.301 400.005 C 1420.607 398.207 1420.653 395.854 1419.416 394.008 L 1355.061 297.905 Z  M 1277.56 331.338 L 1298.515 281.101 L 1298.515 281.1 L 1318.417 233.388 C 1319.747 236.315 1345.866 293.826 1347.195 296.752 L 1342.081 299.292 L 1277.56 331.338 Z  M 1281.574 267.667 L 1291.828 280.389 C 1291.604 280.926 1271.805 328.394 1271.294 329.62 L 1245.976 267.667 L 1281.574 267.667 Z  M 1234.363 299.32 L 1241.687 274.209 L 1247.616 288.718 L 1234.363 299.32 Z  M 1379.553 385.598 C 1378.751 382.77 1360.954 320.06 1360.082 316.986 L 1412.236 394.869 L 1379.553 385.598 Z " id="Compound Path" fill="rgb(62,124,177)"/></g><g id="theatre"><g id="Group"><g id="Group"><path d=" M 627.463 1635.648 C 621.173 1635.648 615.563 1639.756 613.17 1646.115 C 612.466 1647.987 613.412 1650.076 615.284 1650.781 C 615.704 1650.939 616.135 1651.014 616.559 1651.014 C 618.024 1651.014 619.403 1650.118 619.95 1648.666 C 621.27 1645.158 624.219 1642.891 627.463 1642.891 C 630.636 1642.891 633.559 1645.089 634.909 1648.491 C 635.647 1650.35 637.752 1651.257 639.612 1650.52 C 641.47 1649.782 642.379 1647.677 641.641 1645.818 C 639.189 1639.64 633.623 1635.648 627.463 1635.648 L 627.463 1635.648 Z " id="Path" fill="rgb(62,124,177)"/><path d=" M 611.518 1618.35 C 613.518 1618.35 615.139 1616.728 615.139 1614.728 C 615.139 1612.728 613.518 1611.107 611.518 1611.107 L 597.872 1611.107 C 595.872 1611.107 594.25 1612.728 594.25 1614.728 C 594.25 1616.728 595.872 1618.35 597.872 1618.35 L 611.518 1618.35 Z " id="Path" fill="rgb(62,124,177)"/><path d=" M 656.963 1618.35 C 658.963 1618.35 660.584 1616.728 660.584 1614.728 C 660.584 1612.728 658.963 1611.107 656.963 1611.107 L 643.317 1611.107 C 641.317 1611.107 639.695 1612.728 639.695 1614.728 C 639.695 1616.728 641.317 1618.35 643.317 1618.35 L 656.963 1618.35 Z " id="Path" fill="rgb(62,124,177)"/><path d=" M 694.326 1568.117 C 693.838 1564.96 691.723 1562.373 688.806 1561.365 C 685.967 1560.384 682.946 1561.041 680.722 1563.121 C 680.714 1563.129 680.674 1563.166 680.665 1563.175 C 671.032 1572.155 657.662 1578.055 642.002 1580.233 C 627.783 1582.211 612.428 1580.99 598.763 1576.794 C 591.828 1574.664 585.7 1571.778 580.448 1568.185 C 583.798 1560.035 586.292 1551.289 587.78 1542.151 C 588.101 1540.176 586.871 1538.203 584.905 1537.833 C 582.893 1537.454 580.982 1538.809 580.659 1540.815 C 578.374 1554.981 573.367 1568.611 566.179 1580.234 C 558.86 1592.067 549.397 1601.588 538.811 1607.767 C 535.751 1609.553 533.16 1610.861 530.408 1612.007 C 522.708 1615.213 515.623 1614.978 507.433 1611.247 C 505.286 1610.269 503.108 1609.131 500.772 1607.767 C 475.983 1593.298 459.037 1561.897 457.6 1527.77 C 457.079 1515.387 457.808 1503.945 460.041 1489.51 C 460.154 1488.784 460.588 1488.56 460.769 1488.497 C 461.132 1488.371 461.383 1488.551 461.514 1488.673 L 461.6 1488.755 C 468.816 1495.504 478.037 1500.635 489.01 1504.005 C 503.666 1508.505 520.132 1509.815 535.374 1507.694 C 552.517 1505.309 567.249 1498.761 577.989 1488.749 L 578.044 1488.698 C 578.2 1488.551 578.447 1488.371 578.814 1488.498 C 578.995 1488.561 579.429 1488.785 579.541 1489.511 C 581.618 1502.941 582.378 1513.513 582.082 1524.861 C 582.03 1526.86 583.608 1528.524 585.607 1528.576 C 587.614 1528.623 589.27 1527.049 589.323 1525.05 C 589.631 1513.245 588.847 1502.286 586.7 1488.404 C 586.212 1485.247 584.126 1482.569 581.179 1481.653 C 579.3 1481.068 577.433 1481.399 575.962 1481.93 C 574.544 1482.442 573.268 1483.275 572.143 1484.278 C 562.584 1492.801 549.556 1498.409 534.375 1500.521 C 520.159 1502.499 504.801 1501.278 491.136 1497.082 C 481.225 1494.038 472.953 1489.457 466.549 1483.467 C 466.542 1483.46 466.494 1483.415 466.487 1483.409 C 464.264 1481.329 461.242 1480.673 458.403 1481.653 C 455.487 1482.661 453.371 1485.248 452.883 1488.405 C 450.575 1503.33 449.821 1515.194 450.363 1528.074 C 451.901 1564.604 470.255 1598.34 497.121 1614.022 C 499.668 1615.509 502.059 1616.758 504.43 1617.838 C 509.781 1620.276 514.874 1621.492 519.917 1621.492 C 524.336 1621.492 528.717 1620.557 533.193 1618.693 C 536.213 1617.436 539.159 1615.951 542.463 1614.022 C 547.972 1610.806 553.121 1606.837 557.848 1602.248 C 557.871 1604.082 557.911 1605.923 557.989 1607.788 C 559.1 1634.157 569.039 1659.633 585.26 1677.684 C 586.596 1679.172 588.887 1679.295 590.374 1677.957 C 591.862 1676.62 591.984 1674.33 590.647 1672.843 C 575.532 1656.022 566.266 1632.2 565.226 1607.484 C 565.037 1603.003 565.015 1598.644 565.166 1594.223 C 569.862 1588.42 573.987 1581.928 577.437 1574.893 C 583.041 1578.56 589.465 1581.516 596.636 1583.718 C 611.291 1588.218 627.756 1589.528 642.999 1587.408 C 660.143 1585.022 674.875 1578.475 685.632 1568.446 L 685.669 1568.411 C 685.826 1568.265 686.074 1568.084 686.439 1568.211 C 686.621 1568.274 687.055 1568.498 687.167 1569.224 C 689.4 1583.66 690.129 1595.102 689.608 1607.484 C 688.171 1641.611 671.225 1673.012 646.436 1687.481 C 643.374 1689.269 640.783 1690.576 638.032 1691.722 C 630.332 1694.928 623.247 1694.693 615.058 1690.962 C 612.912 1689.984 610.734 1688.845 608.397 1687.482 C 606.488 1686.367 604.595 1685.133 602.767 1683.811 C 601.166 1682.653 598.88 1682.866 597.665 1684.425 C 596.4 1686.049 596.738 1688.384 598.39 1689.585 C 600.449 1691.081 602.587 1692.478 604.746 1693.738 C 607.294 1695.225 609.685 1696.473 612.054 1697.553 C 617.405 1699.991 622.499 1701.207 627.542 1701.207 C 631.961 1701.207 636.341 1700.273 640.817 1698.408 C 643.877 1697.134 646.736 1695.693 650.087 1693.737 C 676.953 1678.056 695.307 1644.319 696.845 1607.788 C 697.388 1594.909 696.634 1583.044 694.326 1568.117 L 694.326 1568.117 Z " id="Path" fill="rgb(62,124,177)"/><path d=" M 519.745 1574.201 C 526.036 1574.201 531.646 1570.093 534.039 1563.734 C 534.743 1561.862 533.797 1559.773 531.925 1559.068 C 530.053 1558.364 527.965 1559.31 527.259 1561.182 C 525.939 1564.691 522.99 1566.958 519.745 1566.958 C 516.573 1566.958 513.65 1564.76 512.3 1561.358 C 511.562 1559.498 509.456 1558.591 507.597 1559.328 C 505.739 1560.066 504.83 1562.172 505.568 1564.031 C 508.021 1570.209 513.586 1574.201 519.745 1574.201 L 519.745 1574.201 Z " id="Path" fill="rgb(62,124,177)"/><path d=" M 502.868 1545.795 C 504.869 1545.795 506.49 1544.173 506.49 1542.173 L 506.49 1540.101 C 506.49 1533.698 501.28 1528.489 494.878 1528.489 C 488.474 1528.489 483.265 1533.699 483.265 1540.101 L 483.265 1542.173 C 483.265 1544.173 484.886 1545.795 486.886 1545.795 C 488.887 1545.795 490.508 1544.173 490.508 1542.173 L 490.508 1540.101 C 490.508 1537.692 492.469 1535.732 494.878 1535.732 C 497.287 1535.732 499.247 1537.692 499.247 1540.101 L 499.247 1542.173 C 499.247 1544.173 500.868 1545.795 502.868 1545.795 L 502.868 1545.795 Z " id="Path" fill="rgb(62,124,177)"/><path d=" M 552.697 1545.795 C 554.697 1545.795 556.319 1544.173 556.319 1542.173 L 556.319 1540.101 C 556.319 1533.698 551.109 1528.489 544.706 1528.489 C 538.302 1528.489 533.092 1533.699 533.092 1540.101 L 533.092 1542.173 C 533.092 1544.173 534.714 1545.795 536.714 1545.795 C 538.715 1545.795 540.336 1544.173 540.336 1542.173 L 540.336 1540.101 C 540.336 1537.692 542.297 1535.732 544.706 1535.732 C 547.115 1535.732 549.075 1537.692 549.075 1540.101 L 549.075 1542.173 C 549.075 1544.173 550.696 1545.795 552.697 1545.795 Z " id="Path" fill="rgb(62,124,177)"/></g></g></g><g id="joystick"><g id="Group"><g id="Group"><path d=" M 314.514 978.526 L 299.847 978.526 L 299.847 963.859 C 299.847 961.834 298.206 960.192 296.181 960.192 L 281.514 960.192 C 279.489 960.192 277.848 961.834 277.848 963.859 L 277.848 978.526 L 263.181 978.526 C 261.156 978.526 259.515 980.167 259.515 982.192 L 259.515 996.859 C 259.515 998.884 261.156 1000.525 263.181 1000.525 L 277.848 1000.525 L 277.848 1015.192 C 277.848 1017.217 279.489 1018.858 281.514 1018.858 L 296.181 1018.858 C 298.206 1018.858 299.847 1017.217 299.847 1015.192 L 299.847 1000.525 L 314.514 1000.525 C 316.539 1000.525 318.181 998.884 318.181 996.859 L 318.181 982.192 C 318.181 980.167 316.539 978.526 314.514 978.526 Z  M 310.847 993.192 L 296.181 993.192 C 294.156 993.192 292.514 994.834 292.514 996.859 L 292.514 1011.525 L 285.181 1011.525 L 285.181 996.859 C 285.181 994.834 283.539 993.192 281.514 993.192 L 266.848 993.192 L 266.848 985.859 L 281.514 985.859 C 283.539 985.859 285.181 984.217 285.181 982.192 L 285.181 967.526 L 292.514 967.526 L 292.514 982.192 C 292.514 984.217 294.156 985.859 296.181 985.859 L 310.847 985.859 L 310.847 993.192 Z " id="Compound Path" fill="rgb(62,124,177)"/></g></g><g id="Group"><g id="Group"><path d=" M 449.812 982.826 C 447 957.56 423.269 933.921 397.981 931.226 C 395.833 930.989 393.674 930.867 391.513 930.86 L 351.18 930.86 L 351.18 916.193 L 343.847 916.193 L 343.847 908.86 C 343.847 900.76 337.28 894.193 329.18 894.193 L 310.847 894.193 C 306.797 894.193 303.514 890.91 303.514 886.86 C 303.514 882.81 306.797 879.527 310.847 879.527 L 369.513 879.527 C 377.613 879.527 384.18 872.96 384.18 864.86 C 384.18 856.76 377.613 850.194 369.513 850.194 L 351.18 850.194 C 347.13 850.194 343.847 846.911 343.847 842.861 L 343.847 828.194 L 336.514 828.194 L 336.514 842.861 C 336.514 850.961 343.08 857.527 351.18 857.527 L 369.513 857.527 C 373.563 857.527 376.846 860.81 376.846 864.86 C 376.846 868.911 373.563 872.194 369.513 872.194 L 310.847 872.194 C 302.747 872.194 296.181 878.76 296.181 886.86 C 296.181 894.96 302.747 901.527 310.847 901.527 L 329.18 901.527 C 333.231 901.527 336.514 904.81 336.514 908.86 L 336.514 916.193 L 329.18 916.193 L 329.18 930.86 L 288.848 930.86 C 286.684 930.865 284.522 930.987 282.372 931.226 C 257.073 933.939 233.357 957.578 230.552 982.845 C 226.868 1015.035 249.977 1044.117 282.168 1047.8 C 295.276 1049.3 308.507 1046.338 319.724 1039.392 C 324.554 1036.23 330.074 1034.28 335.817 1033.705 C 338.654 1033.481 341.503 1033.471 344.342 1033.676 C 350.176 1034.24 355.785 1036.213 360.688 1039.425 C 388.249 1056.458 424.401 1047.924 441.434 1020.362 C 448.365 1009.147 451.316 995.924 449.812 982.826 Z  M 336.514 923.526 L 343.847 923.526 L 343.847 930.86 L 336.514 930.86 L 336.514 923.526 Z  M 429.774 1023.75 C 413.197 1042.292 385.707 1046.271 364.552 1033.191 C 358.645 1029.344 351.887 1027 344.866 1026.36 C 343.319 1026.248 341.757 1026.192 340.18 1026.192 C 338.512 1026.192 336.88 1026.261 335.238 1026.39 C 328.324 1027.052 321.673 1029.374 315.849 1033.158 C 291.74 1048.074 260.104 1040.623 245.187 1016.514 C 239.114 1006.699 236.527 995.125 237.841 983.659 C 240.254 961.945 261.425 940.855 283.161 938.519 C 285.049 938.308 286.947 938.199 288.848 938.193 L 391.513 938.193 C 393.413 938.194 395.311 938.295 397.2 938.497 C 418.932 940.833 440.099 961.923 442.519 983.637 C 444.248 998.219 439.603 1012.839 429.774 1023.75 Z " id="Compound Path" fill="rgb(62,124,177)"/></g></g><g id="Group"><g id="Group"><path d=" M 391.513 952.859 C 383.413 952.859 376.846 959.426 376.846 967.526 C 376.846 975.626 383.413 982.192 391.513 982.192 C 399.613 982.192 406.179 975.626 406.179 967.526 C 406.179 959.426 399.613 952.859 391.513 952.859 Z  M 391.513 974.859 C 387.463 974.859 384.18 971.576 384.18 967.526 C 384.18 963.475 387.463 960.192 391.513 960.192 C 395.563 960.192 398.846 963.475 398.846 967.526 C 398.846 971.576 395.563 974.859 391.513 974.859 Z " id="Compound Path" fill="rgb(62,124,177)"/></g></g><g id="Group"><g id="Group"><path d=" M 391.513 996.859 C 383.413 996.859 376.846 1003.425 376.846 1011.525 C 376.846 1019.625 383.413 1026.192 391.513 1026.192 C 399.613 1026.192 406.179 1019.625 406.179 1011.525 C 406.179 1003.425 399.613 996.859 391.513 996.859 Z  M 391.513 1018.858 C 387.463 1018.858 384.18 1015.575 384.18 1011.525 C 384.18 1007.475 387.463 1004.192 391.513 1004.192 C 395.563 1004.192 398.846 1007.475 398.846 1011.525 C 398.846 1015.575 395.563 1018.858 391.513 1018.858 Z " id="Compound Path" fill="rgb(62,124,177)"/></g></g><g id="Group"><g id="Group"><path d=" M 365.847 974.859 C 357.747 974.859 351.18 981.425 351.18 989.525 C 351.18 997.625 357.747 1004.192 365.847 1004.192 C 373.947 1004.192 380.513 997.625 380.513 989.525 C 380.513 981.425 373.947 974.859 365.847 974.859 Z  M 365.847 996.859 C 361.796 996.859 358.513 993.576 358.513 989.525 C 358.513 985.475 361.796 982.192 365.847 982.192 C 369.897 982.192 373.18 985.475 373.18 989.525 C 373.18 993.576 369.896 996.859 365.847 996.859 Z " id="Compound Path" fill="rgb(62,124,177)"/></g></g><g id="Group"><g id="Group"><path d=" M 417.179 974.859 C 409.079 974.859 402.513 981.425 402.513 989.525 C 402.513 997.625 409.079 1004.192 417.179 1004.192 C 425.279 1004.192 431.846 997.625 431.846 989.525 C 431.846 981.425 425.279 974.859 417.179 974.859 Z  M 417.179 996.859 C 413.129 996.859 409.846 993.576 409.846 989.525 C 409.846 985.475 413.129 982.192 417.179 982.192 C 421.229 982.192 424.512 985.475 424.512 989.525 C 424.512 993.576 421.229 996.859 417.179 996.859 Z " id="Compound Path" fill="rgb(62,124,177)"/></g></g></g><g id="microphone"><path d=" M 72.617 1449.858 L 77.773 1449.858 C 102.651 1449.858 122.891 1429.619 122.891 1404.741 L 122.891 1344.585 C 122.891 1319.47 102.651 1299.038 77.773 1299.038 L 72.617 1299.038 C 47.767 1299.038 27.545 1319.426 27.5 1344.502 L 27.5 1404.741 C 27.5 1429.619 47.74 1449.858 72.617 1449.858 Z  M 72.617 1311.929 L 77.773 1311.929 C 94.251 1311.929 107.872 1324.528 109.766 1340.718 L 99.258 1340.718 C 95.698 1340.718 92.813 1343.604 92.813 1347.163 C 92.813 1350.723 95.698 1353.608 99.258 1353.608 L 110 1353.608 L 110 1368.218 L 92.383 1368.218 C 88.823 1368.218 85.938 1371.104 85.938 1374.663 C 85.938 1378.223 88.823 1381.108 92.383 1381.108 L 110 1381.108 L 110 1395.718 L 99.258 1395.718 C 95.698 1395.718 92.813 1398.604 92.813 1402.163 C 92.813 1405.723 95.698 1408.608 99.258 1408.608 L 109.76 1408.608 C 107.842 1424.561 94.234 1436.968 77.773 1436.968 L 72.617 1436.968 C 56.157 1436.968 42.549 1424.561 40.631 1408.608 L 51.133 1408.608 C 54.692 1408.608 57.578 1405.723 57.578 1402.163 C 57.578 1398.604 54.692 1395.718 51.133 1395.718 L 40.391 1395.718 L 40.391 1381.108 L 58.008 1381.108 C 61.567 1381.108 64.453 1378.223 64.453 1374.663 C 64.453 1371.104 61.567 1368.218 58.008 1368.218 L 40.391 1368.218 L 40.391 1353.608 L 51.133 1353.608 C 54.692 1353.608 57.578 1350.723 57.578 1347.163 C 57.578 1343.604 54.692 1340.718 51.133 1340.718 L 40.624 1340.718 C 42.519 1324.528 56.14 1311.929 72.617 1311.929 Z " id="Compound Path" fill="rgb(62,124,177)"/><path d=" M 150.391 1402.163 C 150.391 1398.604 147.505 1395.718 143.945 1395.718 C 140.386 1395.718 137.5 1398.604 137.5 1402.163 C 137.5 1436.518 109.55 1464.468 75.195 1464.468 C 40.841 1464.468 12.891 1436.518 12.891 1402.163 C 12.891 1398.604 10.005 1395.718 6.445 1395.718 C 2.886 1395.718 0 1398.604 0 1402.163 C 0 1441.455 30.293 1473.799 68.75 1477.079 L 68.75 1506.147 L 33.945 1506.147 C 30.386 1506.147 27.5 1509.033 27.5 1512.593 C 27.5 1516.152 30.386 1519.038 33.945 1519.038 L 116.445 1519.038 C 120.005 1519.038 122.891 1516.152 122.891 1512.593 C 122.891 1509.033 120.005 1506.147 116.445 1506.147 L 81.641 1506.147 L 81.641 1477.079 C 120.097 1473.799 150.391 1441.455 150.391 1402.163 L 150.391 1402.163 Z " id="Path" fill="rgb(62,124,177)"/></g><g id="history"><path d=" M 934.304 213.085 L 911.13 182.936 C 910.408 181.994 909.329 181.395 908.147 181.278 C 892.425 179.718 884.031 176.38 877.283 173.696 C 871.315 171.323 865.145 168.869 857.182 168.869 C 845.053 168.869 835.781 175.336 829.492 182.666 L 829.492 182.506 C 832.995 174.43 842.333 161.685 856.838 161.685 C 863.078 161.685 867.938 163.618 873.569 165.858 C 878.267 167.726 884.115 170.052 892.663 171.848 C 894.986 172.336 897.264 170.849 897.752 168.526 C 898.239 166.205 896.752 163.926 894.431 163.439 C 886.604 161.794 881.367 159.711 876.743 157.871 C 870.835 155.522 864.725 153.091 856.838 153.091 C 841.737 153.091 831.109 163.211 825.195 172.427 C 819.282 163.211 808.654 153.091 793.551 153.091 C 785.666 153.091 779.554 155.522 773.644 157.873 C 766.976 160.525 758.676 163.827 743.13 165.367 C 740.768 165.602 739.044 167.706 739.278 170.067 C 739.513 172.429 741.618 174.153 743.979 173.919 C 760.727 172.258 770.029 168.558 776.822 165.858 C 782.45 163.618 787.311 161.685 793.551 161.685 C 808.058 161.685 817.397 174.431 820.898 182.508 L 820.898 182.666 C 814.608 175.336 805.337 168.867 793.207 168.867 C 785.246 168.867 779.074 171.323 773.102 173.698 C 766.358 176.38 757.966 179.718 742.242 181.278 C 741.062 181.395 739.983 181.994 739.259 182.936 L 716.086 213.085 C 715.088 214.382 714.915 216.134 715.638 217.603 C 716.362 219.07 717.855 220 719.492 220 L 930.899 220 C 932.535 220 934.029 219.07 934.752 217.603 C 935.476 216.134 935.303 214.382 934.304 213.085 L 934.304 213.085 Z  M 857.182 177.461 C 863.498 177.461 868.414 179.416 874.111 181.682 C 880.717 184.311 889.675 187.872 905.44 189.633 L 922.13 211.347 C 893.413 210.728 879.784 205.307 870.585 201.648 C 865.245 199.524 861.719 198.121 857.182 198.121 C 849.241 198.121 843.798 204.081 841.542 209.201 C 841.522 209.241 841.502 209.281 841.482 209.323 L 840.503 211.406 L 829.492 211.406 L 829.492 198.547 C 833.034 190.373 842.489 177.461 857.182 177.461 L 857.182 177.461 Z  M 744.951 189.633 C 760.715 187.872 769.671 184.309 776.283 181.681 C 781.975 179.416 786.893 177.461 793.207 177.461 C 807.9 177.461 817.357 190.373 820.898 198.547 L 820.898 211.406 L 809.886 211.406 L 808.909 209.323 C 808.889 209.281 808.869 209.241 808.849 209.201 C 806.591 204.081 801.15 198.121 793.209 198.121 C 788.672 198.121 785.145 199.524 779.806 201.648 C 770.606 205.307 756.976 210.728 728.26 211.347 L 744.951 189.633 Z  M 782.983 209.632 C 787.713 207.751 790.318 206.715 793.207 206.715 C 796.915 206.715 799.243 209.632 800.317 211.406 L 778.436 211.406 C 780.071 210.79 781.575 210.193 782.983 209.632 L 782.983 209.632 Z  M 850.074 211.406 C 851.148 209.632 853.476 206.715 857.182 206.715 C 860.072 206.715 862.677 207.751 867.409 209.634 C 868.815 210.193 870.321 210.79 871.954 211.406 L 850.074 211.406 Z " id="Compound Path" fill="rgb(62,124,177)"/><path d=" M 906.259 173.904 L 906.415 173.919 C 906.558 173.933 906.7 173.941 906.84 173.941 C 909.025 173.941 910.893 172.283 911.111 170.064 C 911.343 167.702 909.617 165.599 907.256 165.367 L 907.103 165.352 C 904.741 165.117 902.638 166.844 902.405 169.206 C 902.172 171.568 903.897 173.671 906.259 173.904 L 906.259 173.904 Z " id="Path" fill="rgb(62,124,177)"/><path d=" M 810.692 105.72 C 809.575 105.815 808.533 106.344 807.798 107.202 C 806.981 108.153 806.621 109.414 806.811 110.653 C 808.592 122.253 814.765 130.178 823.779 132.896 C 823.572 134.52 823.381 136.147 823.21 137.778 L 820.922 159.597 C 820.675 161.957 822.387 164.072 824.747 164.318 C 824.9 164.335 825.051 164.342 825.2 164.342 C 827.372 164.342 829.237 162.702 829.469 160.493 L 831.756 138.675 C 831.923 137.089 832.109 135.509 832.307 133.933 C 852.294 133.686 864.497 120.942 870.605 93.994 C 871.284 90.996 872.109 87.505 873.057 83.616 C 873.357 82.384 873.099 81.083 872.349 80.059 C 872.07 79.68 871.734 79.353 871.358 79.087 L 873.049 78.121 C 874.064 77.541 874.799 76.571 875.083 75.437 C 882.591 45.56 893.581 5.842 893.692 5.444 C 894.063 4.108 893.766 2.677 892.895 1.599 C 892.025 0.52 890.683 -0.076 889.305 0.008 C 887.849 0.09 853.33 2.584 824.955 48.747 C 824.603 49.32 824.26 49.887 823.921 50.456 C 823.399 51.325 823.203 52.353 823.364 53.353 L 825.516 66.601 L 818.22 66.601 C 816.497 66.601 814.943 67.628 814.267 69.211 C 809.666 79.992 807.023 90.112 806.408 99.293 C 806.326 100.513 806.769 101.711 807.625 102.586 L 810.692 105.72 Z  M 867.196 71.568 L 855.72 78.126 C 854.075 79.065 853.239 80.972 853.664 82.819 C 854.089 84.665 855.673 86.016 857.563 86.144 L 863.513 86.543 C 863.04 88.537 862.608 90.392 862.222 92.094 C 856.02 119.46 844.567 124.863 833.566 125.319 C 839.87 87.303 855.824 52 880.234 22.085 C 876.484 35.915 871.367 55.053 867.196 71.568 L 867.196 71.568 Z  M 821.091 75.197 L 830.566 75.197 C 831.825 75.197 833.022 74.643 833.839 73.683 C 834.655 72.723 835.009 71.454 834.808 70.21 L 832.101 53.534 C 832.158 53.439 832.216 53.345 832.275 53.249 C 845.822 31.209 860.757 20.24 870.9 14.919 C 873.302 13.659 875.554 12.65 877.611 11.838 C 862.825 29.005 850.693 48.195 841.532 68.943 C 833.712 86.65 828.186 105.194 825.039 124.231 C 820.36 122.315 817.85 118.212 816.504 114.297 L 820.898 114.297 C 822.629 114.297 824.19 113.259 824.86 111.665 C 825.529 110.072 825.179 108.231 823.968 106.994 L 815.14 97.977 C 815.834 90.994 817.832 83.351 821.091 75.197 L 821.091 75.197 Z " id="Compound Path" fill="rgb(62,124,177)"/></g></svg>