<?xml version="1.0" encoding="UTF-8"?>
<svg xmlns="http://www.w3.org/2000/svg" viewBox="0 0 512 512" width="512" height="512"><g id="Outline"><path d="M471.415,16a24.612,24.612,0,0,0-18.321,8.191L322.565,170.076,304,184a8.009,8.009,0,0,1-11.2-1.6l-14.4-19.2A8,8,0,0,0,264,168v39.14A48.915,48.915,0,0,0,312.86,256a49.145,49.145,0,0,0,24.082-6.338,48.9,48.9,0,0,0,17.817-17.385l11.824-19.7L490.614,57.54A24.679,24.679,0,0,0,496,42.183v-1.6A24.613,24.613,0,0,0,471.415,16ZM312.86,240A32.9,32.9,0,0,1,280,207.14V192a24.064,24.064,0,0,0,24,9.127v3.563a35.319,35.319,0,0,0,10.343,24.967,19.445,19.445,0,0,1,5.22,9.649A32.835,32.835,0,0,1,312.86,240Zm28.177-15.951a32.872,32.872,0,0,1-6.874,8.113,35.466,35.466,0,0,0-8.506-13.819A19.317,19.317,0,0,1,320,204.69v-4.42a35.207,35.207,0,0,0-.843-7.638l8.093-6.069,22.676,22.676Zm18.3-28.026-20.329-20.329,2.886-3.226,31.762-35.5,18.291,18.291ZM480,42.183a8.613,8.613,0,0,1-1.881,5.362L402,142.69l-17.663-17.662L465.018,34.86A8.585,8.585,0,0,1,480,40.585ZM48,64H304v88h16V64h16v58.12h16V56a8,8,0,0,0-8-8H216V24a8,8,0,0,0-8-8H176a8,8,0,0,0-8,8V48H40a8,8,0,0,0-8,8V96H48ZM184,32h16V48H184ZM24,408H92.578l-28.1,77.266A8,8,0,0,0,72,496h40a8,8,0,0,0,7.519-5.266L126.331,472H257.667l6.815,18.735A8,8,0,0,0,272,496h40V480H277.6l-6.815-18.735A8,8,0,0,0,263.27,456H132.149l5.818-16H232V424H143.785l5.819-16H216V392H32V376H216V360H128V336H112v24H96V304.98a23.949,23.949,0,0,1,16-22.615V288a32.036,32.036,0,0,0,32,32h72a32.036,32.036,0,0,0,32-32v-.9a24.079,24.079,0,0,1,4.341,5.152l13.557-8.5A39.8,39.8,0,0,0,248,268.333V148a68,68,0,1,0-136,0V265.754l-1.7.425A39.934,39.934,0,0,0,80,304.98V360H48V112H32V360H24a8,8,0,0,0-8,8v32A8,8,0,0,0,24,408Zm108.579,0L106.4,480H83.421L109.6,408ZM180,96a51.987,51.987,0,0,1,52,52V262.722A43.161,43.161,0,0,1,208,224V120a8,8,0,0,0-8-8H142.465A51.874,51.874,0,0,1,180,96Zm-52,52a52.091,52.091,0,0,1,4.019-20H192v16.7a12,12,0,1,0,0,22.6V216H168a40.045,40.045,0,0,1-40-40Zm0,67.138a56.251,56.251,0,0,0,16,11.448V251.51a7.988,7.988,0,0,1-6.061,7.759L128,261.754Zm0,63.108,13.82-3.455A23.964,23.964,0,0,0,160,251.51V231.419a56.14,56.14,0,0,0,8,.581h24.544A59.119,59.119,0,0,0,232,280.024V288a16.019,16.019,0,0,1-16,16H144a16.019,16.019,0,0,1-16-16ZM80,96H64V80H80ZM64,112H80v64H64Zm84,56a12,12,0,1,1,12-12A12.013,12.013,0,0,1,148,168ZM493.254,350.032A89.41,89.41,0,0,1,496,372a37.62,37.62,0,0,1-13.57,28.944l-1.354,1.129a38.156,38.156,0,0,1-51.659-2.343l-.911-.911a10.6,10.6,0,0,0-7.424-3,9.349,9.349,0,0,0-6.724,2.81,9.725,9.725,0,0,0,.132,13.553l5.988,5.987a33.617,33.617,0,0,1-15.022,56.223A161.336,161.336,0,0,1,363,480c-35.2,0-68.363-11.024-93.386-31.042C244.068,428.521,230,401.19,230,372s14.068-56.521,39.614-76.958C294.637,275.024,327.8,264,363,264c27.286,0,53.5,6.642,75.81,19.208,22.1,12.449,38.845,29.775,48.427,50.1l-14.473,6.822C455.811,304.167,411.7,280,363,280c-64.514,0-117,41.271-117,92s52.486,92,117,92a145.3,145.3,0,0,0,38.243-5.049,17.617,17.617,0,0,0,7.922-29.473l-5.989-5.987a25.808,25.808,0,0,1-.342-35.967,25.232,25.232,0,0,1,18.1-7.709,26.5,26.5,0,0,1,18.886,7.689l.911.912a22.235,22.235,0,0,0,30.1,1.366l1.354-1.129A21.656,21.656,0,0,0,480,371.993a73.367,73.367,0,0,0-2.255-18.025ZM360,432a16,16,0,1,1,16,16A16.019,16.019,0,0,1,360,432Zm32-96a24,24,0,1,0,24-24A24.027,24.027,0,0,0,392,336Zm32,0a8,8,0,1,1-8-8A8.009,8.009,0,0,1,424,336Zm-48-12a28,28,0,1,0-28,28A28.032,28.032,0,0,0,376,324Zm-40,0a12,12,0,1,1,12,12A12.013,12.013,0,0,1,336,324Zm-24,28a24,24,0,1,0-24,24A24.027,24.027,0,0,0,312,352Zm-24,8a8,8,0,1,1,8-8A8.009,8.009,0,0,1,288,360Zm32,72a24,24,0,1,0-24-24A24.027,24.027,0,0,0,320,432Zm0-32a8,8,0,1,1-8,8A8.009,8.009,0,0,1,320,400ZM160,176h4.687a19.187,19.187,0,0,0,13.656-5.657l11.314,11.314A35.082,35.082,0,0,1,164.687,192H160Z"/></g></svg>
