<?xml version="1.0" encoding="UTF-8" standalone="no"?>
<!-- Generator: Gravit.io -->
<svg xmlns="http://www.w3.org/2000/svg" xmlns:xlink="http://www.w3.org/1999/xlink" style="isolation:isolate" viewBox="0 0 459 516.564"><g id="palette"><path d=" M 229.5 0 C 102 0 0 102 0 229.5 C 0 357 102 459 229.5 459 C 249.9 459 267.75 441.15 267.75 420.75 C 267.75 410.55 265.2 402.9 257.55 395.25 C 252.45 387.6 247.35 379.95 247.35 369.75 C 247.35 349.35 265.201 331.5 285.6 331.5 L 331.5 331.5 C 402.9 331.5 459 275.4 459 204 C 459 91.8 357 0 229.5 0 Z " id="Path" fill="rgb(62,124,177)"/><path d=" M 89.25 229.5 C 68.85 229.5 51 211.65 51 191.25 C 51 170.85 68.85 153 89.25 153 C 109.65 153 127.5 170.85 127.5 191.25 C 127.5 211.65 109.65 229.5 89.25 229.5 Z " id="Path" fill="rgb(255,255,255)"/><path d=" M 165.75 127.5 C 145.35 127.5 127.5 109.65 127.5 89.25 C 127.5 68.85 145.35 51 165.75 51 C 186.15 51 204 68.85 204 89.25 C 204 109.65 186.15 127.5 165.75 127.5 Z " id="Path" fill="rgb(255,255,255)"/><path d=" M 293.25 127.5 C 272.85 127.5 255 109.65 255 89.25 C 255 68.85 272.85 51 293.25 51 C 313.65 51 331.5 68.85 331.5 89.25 C 331.5 109.65 313.65 127.5 293.25 127.5 Z " id="Path" fill="rgb(255,255,255)"/><path d=" M 369.75 229.5 C 349.35 229.5 331.5 211.65 331.5 191.25 C 331.5 170.85 349.35 153 369.75 153 C 390.15 153 408 170.85 408 191.25 C 408 211.65 390.15 229.5 369.75 229.5 Z " id="Path" fill="rgb(255,255,255)"/></g><g id="paintbrush"><path d=" M 439 516.564 C 429.96 502.949 426.167 486.517 428.32 470.318 L 428.832 467.19 L 428.941 466.519 C 431.168 452.891 407.722 441.604 396.237 437.491 L 378.042 450.575 L 377.485 453.982 C 375.072 467.194 378.245 480.815 386.248 491.6 C 396.32 504.715 414.062 513.005 439 516.564 Z " id="Path" fill="rgb(243,127,104)"/><path d=" M 368.995 396.796 C 353.684 371.872 256.254 215.681 202.424 191 C 208.993 249.42 325.946 391.769 344.756 414.226 L 368.995 396.796 Z " id="Path" fill="rgb(243,127,104)"/><path d=" M 393.809 428.836 L 379.796 399.479 L 343.861 425.32 L 367.231 447.948 L 393.809 428.836 Z " id="Path" fill="rgb(243,127,104)"/>
</g></svg>