<?xml version="1.0" encoding="UTF-8" standalone="no"?>
<!-- Generator: Gravit.io -->
<svg xmlns="http://www.w3.org/2000/svg" xmlns:xlink="http://www.w3.org/1999/xlink" style="isolation:isolate" viewBox="0 0 1100 1200" >
<g id="Contract">
	<path d=" M 118.977 214.778 L 118.977 985.778 C 118.977 991.297 123.458 995.778 128.977 995.778 L 723.977 995.778 C 729.496 995.778 733.977 991.297 733.977 985.778 L 733.977 415.778 C 733.977 410.259 730.77 402.649 726.82 398.794 L 535.134 211.762 C 531.184 207.907 523.496 204.778 517.977 204.778 L 128.977 204.778 C 123.458 204.778 118.977 209.259 118.977 214.778 Z " id="Path" fill="rgb(255,255,255)" Stroke-width="15" stroke="rgb(85,122,181)" stroke-linejoin="round" stroke-linecap="round" stroke-miterlimit="3"/>
	<path d=" M 528.977 204.778 L 528.977 395.778 C 528.977 401.297 533.458 405.778 538.977 405.778 L 733.977 405.778" id="Path" fill="none" Stroke-width="15" stroke="rgb(85,122,181)" stroke-linejoin="round" stroke-linecap="butt" stroke-miterlimit="3"/>
	<g id="Lines">
		<line x1="203.977" y1="396.778" x2="440.034" y2="396.778" id="Path" Stroke-width="15" stroke="rgb(85,122,181)" stroke-linejoin="miter" stroke-linecap="round" stroke-miterlimit="3"/>
		<line x1="203.977" y1="488.578" x2="619.263" y2="488.578" id="Path" Stroke-width="15" stroke="rgb(85,122,181)" stroke-linejoin="miter" stroke-linecap="round" stroke-miterlimit="3"/>
		<line x1="203.977" y1="580.378" x2="619.263" y2="580.378" id="Path" Stroke-width="15" stroke="rgb(85,122,181)" stroke-linejoin="miter" stroke-linecap="round" stroke-miterlimit="3"/>
		<line x1="203.977" y1="855.778" x2="619.263" y2="855.778" id="Path" Stroke-width="15" stroke="rgb(85,122,181)" stroke-linejoin="miter" stroke-linecap="round" stroke-miterlimit="3"/>
		<line x1="203.977" y1="763.978" x2="619.263" y2="763.978" id="Path" Stroke-width="15" stroke="rgb(85,122,181)" stroke-linejoin="miter" stroke-linecap="round" stroke-miterlimit="3"/>
		<line x1="203.977" y1="672.178" x2="619.263" y2="672.178" id="Path" Stroke-width="15" stroke="rgb(85,122,181)" stroke-linejoin="miter" stroke-linecap="round" stroke-miterlimit="3"/>
	</g>
</g>
<g id="gear">
	<g id="Group">
		<path d=" M 876.367 967.905 L 849.627 964.693 C 846.894 954.493 842.891 944.857 837.737 935.915 L 854.362 914.785 C 856.903 911.536 856.615 906.514 853.678 903.59 L 826.123 876.023 C 823.223 873.11 818.189 872.799 814.928 875.339 L 793.762 891.988 C 784.856 886.834 775.22 882.831 765.044 880.122 L 761.844 853.382 C 761.352 849.295 757.577 845.95 753.454 845.95 L 714.476 845.95 C 710.353 845.95 706.578 849.295 706.098 853.382 L 702.886 880.122 C 692.698 882.843 683.05 886.858 674.144 892 L 652.989 875.375 C 649.753 872.834 644.719 873.134 641.807 876.047 L 614.239 903.626 C 611.339 906.526 611.039 911.56 613.592 914.82 L 630.204 935.963 C 625.051 944.881 621.047 954.529 618.327 964.729 L 591.598 967.929 C 587.511 968.409 584.155 972.184 584.155 976.319 L 584.155 1015.297 C 584.155 1019.42 587.499 1023.171 591.598 1023.675 L 618.339 1026.887 C 621.071 1037.051 625.063 1046.687 630.216 1055.605 L 613.604 1076.772 C 611.075 1080.02 611.363 1085.042 614.287 1087.966 L 641.807 1115.545 C 644.719 1118.446 649.753 1118.77 652.989 1116.229 L 674.156 1099.568 C 683.074 1104.722 692.71 1108.738 702.898 1111.446 L 706.11 1138.175 C 706.601 1142.274 710.365 1145.606 714.488 1145.606 L 753.466 1145.606 C 757.601 1145.606 761.364 1142.274 761.844 1138.175 L 765.056 1111.446 C 775.256 1108.714 784.892 1104.71 793.798 1099.568 L 814.964 1116.193 C 818.213 1118.734 823.235 1118.434 826.147 1115.521 L 853.702 1087.942 C 856.627 1085.042 856.926 1080.008 854.374 1076.736 L 837.737 1055.593 C 842.903 1046.675 846.894 1037.039 849.627 1026.863 L 876.355 1023.651 C 880.454 1023.159 883.798 1019.42 883.798 1015.273 L 883.798 976.295 C 883.81 972.148 880.478 968.397 876.367 967.905 Z  M 733.989 1070.683 C 692.614 1070.683 659.078 1037.147 659.078 995.772 C 659.078 954.397 692.614 920.861 733.989 920.861 C 775.364 920.861 808.9 954.397 808.9 995.772 C 808.9 1037.147 775.376 1070.683 733.989 1070.683 Z " id="Compound Path" fill="rgb(255,255,255)" Stroke-width="15"  stroke="rgb(0,0,0)"/>
	</g>
</g>
<g id="gear">
	<g id="Group">
		<path d=" M 1083.55 1052.699 L 1064.651 1047.876 C 1063.649 1040.295 1061.681 1032.999 1058.822 1026.093 L 1072.748 1012.485 C 1074.878 1010.391 1075.144 1006.758 1073.311 1004.382 L 1056.119 981.994 C 1054.311 979.63 1050.725 978.932 1048.145 980.45 L 1031.379 990.412 C 1025.47 985.873 1018.927 982.091 1011.875 979.189 L 1012.094 959.687 C 1012.126 956.706 1009.73 953.949 1006.769 953.561 L 978.781 949.893 C 975.82 949.505 972.795 951.55 972.066 954.44 L 967.243 973.339 C 959.671 974.333 952.365 976.308 945.487 979.162 L 931.861 965.234 C 929.776 963.105 926.133 962.847 923.768 964.664 L 901.378 981.873 C 899.022 983.682 898.333 987.269 899.859 989.85 L 909.798 1006.595 C 905.258 1012.513 901.475 1019.065 898.562 1026.133 L 879.068 1025.915 C 876.088 1025.875 873.323 1028.27 872.934 1031.239 L 869.265 1059.227 C 868.877 1062.188 870.926 1065.196 873.822 1065.943 L 892.72 1070.766 C 893.726 1078.322 895.685 1085.617 898.546 1092.505 L 884.626 1106.141 C 882.504 1108.235 882.238 1111.868 884.063 1114.243 L 901.227 1136.637 C 903.046 1138.994 906.63 1139.7 909.193 1138.18 L 925.959 1128.209 C 931.878 1132.749 938.419 1136.539 945.48 1139.443 L 945.271 1158.938 C 945.238 1161.927 947.627 1164.674 950.587 1165.062 L 978.575 1168.73 C 981.544 1169.12 984.56 1167.081 985.29 1164.183 L 990.112 1145.293 C 997.694 1144.291 1004.99 1142.323 1011.868 1139.469 L 1025.503 1153.398 C 1027.596 1155.529 1031.23 1155.786 1033.596 1153.969 L 1055.977 1136.759 C 1058.35 1134.952 1059.039 1131.365 1057.514 1128.775 L 1047.558 1112.028 C 1052.107 1106.111 1055.88 1099.567 1058.8 1092.517 L 1078.294 1092.726 C 1081.284 1092.759 1084.037 1090.389 1084.427 1087.411 L 1088.096 1059.423 C 1088.495 1056.446 1086.455 1053.439 1083.55 1052.699 Z  M 971.641 1113.099 C 941.932 1109.205 921.008 1081.968 924.902 1052.259 C 928.796 1022.549 956.033 1001.625 985.742 1005.519 C 1015.451 1009.413 1036.375 1036.65 1032.481 1066.359 C 1028.587 1096.069 1001.359 1116.994 971.641 1113.099 Z " id="Compound Path" Stroke-width="15" stroke="rgb(0,0,0)" fill="rgb(255,255,255)"/>
	</g>
</g>
<g id="gear">
	<g id="Group">
		<path d=" M 959.787 777.348 L 942.778 775.305 C 941.04 768.817 938.494 762.688 935.216 757.001 L 945.79 743.56 C 947.406 741.494 947.223 738.3 945.355 736.44 L 927.828 718.906 C 925.984 717.053 922.782 716.855 920.708 718.471 L 907.245 729.06 C 901.58 725.782 895.451 723.236 888.979 721.513 L 886.943 704.505 C 886.631 701.905 884.229 699.778 881.607 699.778 L 856.815 699.778 C 854.192 699.778 851.791 701.905 851.486 704.505 L 849.443 721.513 C 842.963 723.243 836.826 725.797 831.161 729.068 L 817.706 718.494 C 815.647 716.878 812.445 717.068 810.593 718.921 L 793.059 736.463 C 791.214 738.308 791.023 741.51 792.647 743.583 L 803.213 757.031 C 799.935 762.703 797.389 768.84 795.658 775.328 L 778.658 777.363 C 776.058 777.668 773.923 780.07 773.923 782.7 L 773.923 807.492 C 773.923 810.114 776.05 812.501 778.658 812.821 L 795.666 814.864 C 797.404 821.329 799.943 827.458 803.221 833.13 L 792.655 846.593 C 791.046 848.659 791.229 851.853 793.089 853.714 L 810.593 871.256 C 812.445 873.1 815.647 873.306 817.706 871.69 L 831.169 861.093 C 836.841 864.371 842.97 866.925 849.45 868.648 L 851.493 885.649 C 851.806 888.256 854.2 890.376 856.822 890.376 L 881.614 890.376 C 884.244 890.376 886.638 888.256 886.943 885.649 L 888.986 868.648 C 895.474 866.91 901.603 864.364 907.268 861.093 L 920.731 871.667 C 922.797 873.283 925.991 873.093 927.844 871.24 L 945.37 853.698 C 947.231 851.853 947.421 848.652 945.797 846.57 L 935.216 833.122 C 938.501 827.45 941.04 821.321 942.778 814.849 L 959.779 812.805 C 962.386 812.493 964.513 810.114 964.513 807.477 L 964.513 782.685 C 964.521 780.047 962.401 777.661 959.787 777.348 Z  M 869.226 842.72 C 842.909 842.72 821.578 821.39 821.578 795.073 C 821.578 768.756 842.909 747.426 869.226 747.426 C 895.543 747.426 916.873 768.756 916.873 795.073 C 916.873 821.39 895.55 842.72 869.226 842.72 Z " id="Compound Path" Stroke-width="15" stroke="rgb(0,0,0)" fill="rgb(255,255,255)"/>
	</g>
</g>
<g id="icons8-ethereum">
		<path d=" M 118.977 283.37 C 117.734 283.37 116.498 283.019 115.408 282.325 L 3.042 210.22 C 0.087 208.323 -0.871 204.449 0.861 201.396 L 113.226 3.103 C 115.573 -1.034 122.381 -1.034 124.727 3.103 L 237.093 201.396 C 238.825 204.449 237.866 208.323 234.912 210.22 L 122.546 282.325 C 121.462 283.019 120.22 283.37 118.977 283.37 Z " id="Path" fill="rgb(0,0,0)"/>
		<path d=" M 15.442 202.466 L 118.977 268.907 L 222.505 202.473 L 118.977 19.766 L 15.442 202.466 Z " id="Path" fill="rgb(255,255,255)"/>
		<path d=" M 118.977 409.556 C 116.789 409.556 114.747 408.479 113.517 406.668 L 1.152 242.026 C -0.62 239.428 -0.316 235.945 1.872 233.691 C 4.067 231.443 7.537 231.047 10.181 232.732 L 118.977 302.558 L 227.773 232.746 C 230.411 231.047 233.894 231.45 236.082 233.704 C 238.276 235.958 238.574 239.441 236.802 242.039 L 124.437 406.681 C 123.207 408.479 121.158 409.556 118.977 409.556 Z " id="Path" fill="rgb(0,0,0)"/>
		<path d=" M 30.387 261.412 L 118.977 391.221 L 207.567 261.412 L 122.546 315.975 C 120.378 317.377 117.589 317.37 115.408 315.975 L 30.387 261.412 Z " id="Path" fill="rgb(255,255,255)"/>
		<path d=" M 118.977 409.556 C 118.329 409.556 117.668 409.457 117.027 409.259 C 114.258 408.406 112.367 405.841 112.367 402.946 L 112.367 310.41 C 112.367 308.156 113.511 306.067 115.408 304.845 L 227.773 232.739 C 230.411 231.04 233.894 231.443 236.082 233.697 C 238.276 235.951 238.574 239.435 236.802 242.032 L 124.437 406.674 C 123.181 408.512 121.118 409.556 118.977 409.556 Z  M 125.587 314.026 L 125.587 381.537 L 207.567 261.412 L 125.587 314.026 Z  M 118.977 283.37 C 117.734 283.37 116.498 283.019 115.408 282.325 L 3.042 210.22 C 1.026 208.924 -0.131 206.644 0.015 204.251 C 0.16 201.865 1.588 199.736 3.743 198.699 L 116.108 144.618 C 117.919 143.745 120.034 143.745 121.839 144.618 L 234.205 198.699 C 236.359 199.736 237.787 201.865 237.932 204.251 C 238.078 206.644 236.921 208.924 234.905 210.22 L 122.54 282.325 C 121.462 283.019 120.22 283.37 118.977 283.37 Z  M 20.135 205.48 L 118.977 268.907 L 217.819 205.48 L 118.977 157.91 L 20.135 205.48 Z " id="Compound Path" fill="rgb(0,0,0)"/>
		<path d=" M 118.977 283.37 C 117.886 283.37 116.796 283.099 115.811 282.563 C 113.689 281.4 112.367 279.172 112.367 276.76 L 112.367 150.573 C 112.367 148.299 113.537 146.184 115.461 144.975 C 117.384 143.765 119.783 143.62 121.846 144.618 L 234.211 198.699 C 236.366 199.736 237.794 201.865 237.939 204.251 C 238.084 206.644 236.928 208.924 234.912 210.22 L 122.546 282.325 C 121.462 283.019 120.22 283.37 118.977 283.37 Z  M 125.587 161.089 L 125.587 264.664 L 217.819 205.48 L 125.587 161.089 Z " id="Compound Path" fill="rgb(0,0,0)"/>
</g>
</svg>